<?xml version="1.0" standalone="no"?>
<!DOCTYPE svg PUBLIC "-//W3C//DTD SVG 1.1//EN" "http://www.w3.org/Graphics/SVG/1.1/DTD/svg11.dtd" >
<svg xmlns="http://www.w3.org/2000/svg" xmlns:xlink="http://www.w3.org/1999/xlink" version="1.1">
<metadata></metadata>
<defs>
<font id="seoulnamsanm" horiz-adv-x="940" vert-adv-y="1000" >
<font-face units-per-em="1000" ascent="800" descent="-200" />
<missing-glyph horiz-adv-x="500" />
<glyph horiz-adv-x="0" vert-adv-y="0" />
<glyph horiz-adv-x="333" />
<glyph horiz-adv-x="330" />
<glyph unicode="!" horiz-adv-x="318" d="M200 768h-83l5 -551h72zM213 -27v107h-107v-107h107z" />
<glyph unicode="&#x22;" horiz-adv-x="418" d="M331 808h-92l14 -223h62zM181 808h-94l17 -223h62z" />
<glyph unicode="#" horiz-adv-x="647" d="M592 477h-122l59 222h-68l-58 -222h-116l58 222h-68l-57 -222h-116l-14 -59h117l-26 -95h-116l-14 -59h118l-58 -220h67l58 220h115l-56 -220h66l57 220h121l15 59h-123l27 95h120zM390 418l-26 -95h-115l25 95h116z" />
<glyph unicode="$" horiz-adv-x="548" d="M297 90v266q3 -2 24 -11q31 -17 49 -35q17 -19 28 -39q10 -23 10 -52q0 -34 -12 -58q-14 -26 -31 -42q-18 -18 -42 -24q-13 -5 -26 -5zM241 375v-285q-43 5 -66 28q-33 30 -33 73h-88q6 -68 58 -111q43 -38 129 -43v-85h56v85q29 3 57 12q42 13 71 34q26 20 46 57 q18 34 18 86q0 50 -22 86q-24 33 -54 54q-36 24 -79 40q-19 7 -37 14v268q37 -6 62 -29q29 -31 31 -69h87q0 26 -16 56q-19 28 -43 48q-23 18 -59 34q-31 10 -62 13v75h-56v-76q-29 -3 -50 -10q-40 -14 -65 -33q-27 -21 -44 -52t-17 -77q0 -56 19 -88q18 -34 45 -55 q26 -20 73 -36q10 -5 39 -14zM241 688v-249q-9 3 -21 9q-34 12 -46 29q-14 14 -22 39q-9 22 -9 56q0 32 10 53q9 21 25 37q14 13 37 21q13 4 26 5z" />
<glyph unicode="%" horiz-adv-x="865" d="M614 705h-71l-294 -658h71zM293 503q0 -64 -25 -105q-27 -40 -68 -40t-65 40q-24 39 -24 105q0 65 24 107q25 40 65 40t68 -40q25 -44 25 -107zM368 503q0 38 -13 82q-13 38 -35 66q-22 25 -54 41q-36 13 -66 13t-64 -13q-34 -16 -54 -41q-22 -25 -35 -66 q-12 -41 -12 -82t12 -80q12 -41 35 -67q22 -28 54 -40q30 -13 64 -13t66 13q29 11 54 40q22 29 35 67q13 42 13 80zM754 247q0 -64 -25 -105q-25 -40 -67 -40q-41 0 -65 40q-24 39 -24 105q0 65 24 107q25 40 65 40t68 -40q24 -42 24 -107zM830 247q0 38 -13 82 q-13 38 -35 66q-22 25 -54 41q-36 13 -66 13t-63 -13q-34 -15 -55 -41q-22 -25 -35 -66q-12 -41 -12 -82t12 -80q12 -41 35 -67q24 -29 55 -40q29 -13 63 -13t66 13q29 11 54 40q22 29 35 67q13 42 13 80z" />
<glyph unicode="&#x26;" horiz-adv-x="777" d="M457 628q0 -30 -22 -57q-23 -28 -43 -42q-28 -24 -50 -34q-18 21 -42 59q-24 34 -24 68q0 33 24 60q24 26 61 26q41 0 69 -24q27 -26 27 -56zM554 137l88 -104h98l-133 154q47 48 96 99l-56 47q-44 -51 -85 -94l-175 203q36 25 62 45q37 29 63 66q24 36 24 69 q-3 35 -18 62q-15 24 -41 43q-25 15 -56 24q-34 8 -61 8q-38 0 -69 -12q-32 -13 -56 -34q-22 -22 -32 -47q-12 -29 -9 -59q3 -34 23 -65q18 -32 65 -85q-38 -25 -57 -37q-42 -26 -89 -72q-46 -45 -55 -103q-12 -59 14 -111q31 -59 89 -85q56 -28 120 -28q81 0 148 41 q56 33 102 75zM326 405l185 -217q-46 -43 -98 -73q-59 -34 -109 -34q-44 0 -81 24q-39 23 -51 54q-20 41 -8 83q10 41 37 68q64 58 125 95z" />
<glyph unicode="'" horiz-adv-x="328" d="M179 808h-93l16 -223h62z" />
<glyph unicode="(" horiz-adv-x="384" d="M227 261v190q0 60 7 110q5 45 19 97q13 45 32 76q18 31 47 45v48q-66 -18 -102 -64q-38 -47 -56 -107q-19 -62 -23 -122q-5 -52 -5 -115v-126q0 -61 5 -114q4 -62 23 -122q19 -63 56 -107q36 -47 102 -64v48q-29 12 -47 45q-20 29 -32 76q-14 50 -19 97q-7 49 -7 109z " />
<glyph unicode=")" horiz-adv-x="384" d="M156 261q0 -48 -7 -109q-7 -49 -20 -97q-11 -41 -31 -76q-21 -34 -47 -45v-48q65 17 102 64q37 48 55 107q18 58 24 122q5 70 5 114v126q0 45 -5 115q-6 62 -24 122q-17 56 -55 107q-38 46 -102 64v-48q25 -13 47 -45q20 -37 31 -76q13 -50 20 -97q7 -63 7 -110v-190z " />
<glyph unicode="*" horiz-adv-x="406" d="M248 616h-5l3 5l19 27l39 60l-46 27l-36 -59l-13 -32l-7 -12l-7 12l-13 32l-36 59l-45 -27l38 -60l20 -27l3 -5h-7l-35 5h-69v-54h69l35 4h10l-2 -4l-24 -26l-38 -61l45 -28l37 62l15 31l5 7l4 -7l14 -31l38 -62l45 28l-39 61l-23 26l-2 4h8l34 -4h73v54h-73z" />
<glyph unicode="+" horiz-adv-x="583" d="M529 356v65h-203v202h-70v-202h-202v-65h202v-201h70v201h203z" />
<glyph unicode="," horiz-adv-x="253" d="M184 108h-101l-23 -224h69z" />
<glyph unicode="-" horiz-adv-x="428" d="M374 352v72h-323v-72h323z" />
<glyph unicode="." horiz-adv-x="253" d="M180 -27v107h-107v-107h107z" />
<glyph unicode="/" horiz-adv-x="388" d="M353 819h-75l-244 -925h73z" />
<glyph unicode="0" horiz-adv-x="552" d="M272 90q-34 0 -61 20q-32 20 -52 60q-22 40 -29 98q-8 51 -8 120q0 64 9 123q9 60 28 97q21 42 51 63t62 21q36 0 66 -21q29 -22 50 -63q18 -38 30 -97q11 -61 11 -123q0 -56 -10 -118q-11 -59 -31 -99q-22 -41 -51 -61t-65 -20zM272 24q50 0 95 24q44 23 77 73 q34 52 50 121q16 74 16 146q0 73 -16 150q-19 73 -50 120q-33 49 -77 75q-47 25 -95 25q-47 0 -92 -24q-46 -25 -79 -76q-31 -50 -45 -120q-15 -72 -15 -150q0 -82 14 -146q14 -71 46 -121q33 -51 79 -73q45 -24 92 -24z" />
<glyph unicode="1" horiz-adv-x="552" d="M346 35v711h-74l-157 -88v-76l151 77v-624h80z" />
<glyph unicode="2" horiz-adv-x="552" d="M503 35v67h-341q85 75 175 168q85 88 125 170q10 20 19 53q8 32 8 59q0 46 -17 85q-19 39 -46 64q-30 27 -69 42q-42 13 -81 13q-63 0 -108 -21q-45 -23 -71 -56q-42 -54 -42 -127h82q1 59 32 97q33 42 104 42q36 0 63 -15q26 -17 42 -37q12 -16 22 -43q8 -27 8 -44 q0 -44 -20 -87q-39 -83 -152 -196q-114 -114 -180 -165v-69h447z" />
<glyph unicode="3" horiz-adv-x="552" d="M506 232q0 47 -16 79q-19 31 -41 51q-36 33 -89 48q43 11 83 45q26 25 38 57t12 56q0 43 -16 80q-18 33 -48 60q-30 26 -73 38q-47 11 -86 11q-52 0 -92 -14q-38 -14 -67 -40q-26 -26 -40 -55q-16 -32 -16 -52h80q3 33 41 65q37 31 99 31q55 0 98 -31q41 -32 41 -93 q0 -53 -47 -89q-47 -37 -139 -37v-64q13 0 59 -7q36 -9 66 -24q26 -15 50 -43q22 -30 22 -70q0 -63 -43 -104q-44 -41 -117 -41q-38 0 -59 8q-26 7 -39 21q-19 14 -26 33q-8 16 -8 37h-92q2 -37 18 -67q14 -30 44 -52q22 -19 68 -32q40 -13 97 -13q59 0 104 16q44 15 75 47 q29 27 44 70q15 42 15 75z" />
<glyph unicode="4" horiz-adv-x="552" d="M534 222v66h-121v463h-79l-316 -467v-62h317v-187h78v187h121zM335 288h-235l235 351v-351z" />
<glyph unicode="5" horiz-adv-x="552" d="M508 247q0 99 -58 163q-60 62 -171 62q-68 0 -129 -38l15 245h297v67h-373l-23 -400h79q14 26 49 43q34 17 73 17q69 0 115 -41q44 -42 44 -116q-6 -73 -52 -116t-117 -43q-39 0 -60 8q-25 8 -38 21q-12 11 -19 31q-8 18 -8 32h-87q0 -32 11 -57q11 -29 35 -50 q27 -25 68 -37q39 -13 97 -13q60 0 107 17q47 15 78 47q31 31 49 73t18 85z" />
<glyph unicode="6" horiz-adv-x="552" d="M169 443v-71q59 38 110 38q31 0 63 -13q27 -13 48 -36q15 -19 29 -50q11 -31 11 -65q0 -30 -11 -60q-12 -30 -30 -51q-20 -23 -48 -34q-29 -12 -62 -12t-58 12q-28 11 -47 33q-21 21 -33 57q-14 32 -17 87q-4 91 -1 167q0 28 7 77q5 42 22 79q18 39 50 65t76 26 q32 0 60 -10q21 -9 38 -26q14 -17 19 -33q5 -18 7 -31h91q0 23 -13 57q-16 33 -40 55q-26 23 -67 39q-42 14 -93 14q-72 0 -120 -33t-74 -85q-26 -50 -34 -111q-9 -62 -9 -128q0 -90 6 -141q4 -51 11 -74q15 -55 58 -102q32 -32 76 -45q39 -14 84 -14q48 0 90 14 q44 12 76 45q32 31 49 75q16 45 16 87q0 46 -16 94q-18 44 -47 73q-32 29 -71 47q-42 16 -97 16q-56 0 -109 -32z" />
<glyph unicode="7" horiz-adv-x="552" d="M501 676v70h-455v-69h366l-284 -642h89z" />
<glyph unicode="8" horiz-adv-x="552" d="M418 562q0 -55 -41 -88q-41 -34 -108 -34q-61 0 -98 34q-38 32 -38 88q0 59 39 95q40 35 98 35q63 0 106 -35q42 -36 42 -95zM497 562q0 41 -18 77q-16 31 -46 61q-36 29 -74 43q-44 14 -89 14q-39 0 -83 -14q-42 -15 -73 -43q-30 -27 -45 -61q-16 -35 -16 -77 q0 -36 15 -71q14 -37 46 -60q16 -16 44 -26q-30 -12 -53 -30q-33 -29 -50 -65q-17 -35 -17 -83q0 -43 14 -79q13 -40 47 -69q33 -30 81 -42q45 -13 90 -13q49 0 95 13q47 12 80 42q34 30 49 69t15 79q0 45 -18 83q-20 37 -51 65q-26 19 -52 30q26 10 45 26q30 24 48 60 q16 37 16 71zM270 90q-68 0 -110 39t-42 98q0 65 44 106q43 41 108 41q69 0 115 -41q44 -42 44 -106q0 -58 -43 -98q-45 -39 -116 -39z" />
<glyph unicode="9" horiz-adv-x="552" d="M380 330v72q-50 -31 -115 -31q-34 0 -59 11q-28 11 -47 34q-20 23 -28 51q-11 25 -11 60q0 37 11 65q8 26 28 51q19 20 47 36q29 13 59 13q32 0 61 -13q25 -14 47 -36q19 -22 30 -50q10 -31 15 -65q11 -97 11 -197q0 -33 -8 -76q-10 -47 -26 -80q-17 -37 -50 -62 q-33 -24 -79 -24q-36 0 -55 8q-23 7 -38 24q-14 12 -20 34q-7 17 -7 34h-91q0 -32 14 -60q12 -31 40 -56q26 -25 67 -37q39 -12 87 -12q75 0 122 31q47 29 76 83q26 50 37 112q10 67 10 123q0 88 -8 152q-8 53 -22 93q-21 45 -48 75q-33 30 -72 48q-43 16 -92 16 q-48 0 -91 -16q-42 -18 -72 -48q-30 -32 -45 -73q-16 -42 -16 -92q0 -46 15 -90q13 -44 44 -73q33 -32 73 -45q36 -14 91 -14q69 0 115 24z" />
<glyph unicode=":" horiz-adv-x="409" d="M258 109v107h-107v-107h107zM258 504v107h-107v-107h107z" />
<glyph unicode=";" horiz-adv-x="409" d="M258 216h-102l-22 -224h68zM258 504v107h-107v-107h107z" />
<glyph unicode="&#x3c;" horiz-adv-x="592" d="M101 333l422 -251v83l-341 202l341 201v83l-422 -251v-67z" />
<glyph unicode="=" horiz-adv-x="592" d="M528 463v65h-466v-65h466zM528 251v65h-466v-65h466z" />
<glyph unicode="&#x3e;" horiz-adv-x="592" d="M529 333v67l-422 251v-83l341 -201l-341 -202v-83z" />
<glyph unicode="?" horiz-adv-x="468" d="M428 587q0 44 -20 78q-20 32 -52 54q-32 21 -71 31q-39 9 -75 9q-24 0 -48 -3q-40 -8 -43 -8l-42 -9q-9 -2 -20.5 -6t-12.5 -4v-78q5 4 30 14q4 1 19.5 6t24.5 7q15 4 45 10q21 3 45 3q26 0 53 -8q24 -9 43 -22q19 -16 30 -34q12 -21 12 -43q0 -23 -14 -48 q-15 -27 -32 -47q-19 -24 -40 -43q-5 -5 -18.5 -17t-19.5 -18q-34 -34 -50 -63q-18 -30 -18 -91v-72h74v51q0 34 4 50q2 14 13 33q6 13 20 28q17 19 24 28q10 12 34 34q20 18 46 48q24 27 41 60q18 33 18 70zM246 -27v107h-107v-107h107z" />
<glyph unicode="@" horiz-adv-x="1000" d="M917 379q5 126 -58 221q-64 95 -168 131q-69 23 -134 26q-71 2 -129 -16q-58 -17 -113 -52t-101 -87q-49 -56 -78 -122q-29 -64 -43 -126q-12 -61 -7 -128q3 -65 28 -118q49 -108 152 -161q101 -55 237 -55q82 0 139 17q61 17 100 40q36 21 62 42q22 18 29 28l-30 37 q-7 -9 -35 -29q-30 -20 -58 -34q-36 -19 -90 -32q-54 -12 -114 -12q-125 0 -206 51q-81 49 -118 128q-20 41 -23 100q-5 54 9 107q8 44 32 104q22 59 65 113q30 40 80 76q49 35 102 52q54 17 110 17t116 -21q87 -33 137 -118q51 -87 45 -178q-1 -33 -15 -81q-16 -52 -34 -80 q-13 -22 -40 -50q-28 -26 -49 -38q-53 -30 -82 -19q-29 9 -11 60q29 77 73 188q47 121 63 158h-74l-25 -53q-11 29 -37 52q-28 22 -78 22q-55 -2 -103 -36q-48 -35 -85 -84q-43 -59 -58 -110q-17 -52 -19 -90q-2 -43 9 -73q9 -31 31 -53q18 -19 44 -28q25 -9 52 -9 q28 0 48 7q20 6 32 15q21 12 52 38v-17q3 -27 23 -41q18 -16 59 -13q47 3 96 30q84 44 135 124q49 81 55 180zM624 410q0 -13 -10 -60q-13 -48 -38 -104q-28 -64 -66 -97q-38 -34 -84 -34q-13 0 -22 3q-12 4 -21 11q-14 10 -22 32q-9 19 -3 54q4 35 18 73q12 35 36 73 q34 55 75 89q42 34 74 34q30 0 47 -23q16 -26 16 -51z" />
<glyph unicode="A" horiz-adv-x="650" d="M111 35l76 222h274l75 -222h86l-254 711h-90l-253 -711h86zM437 326h-226l114 332z" />
<glyph unicode="B" horiz-adv-x="602" d="M550 235q0 85 -54 127q-56 40 -114 48q62 13 101 54q37 40 37 95q0 92 -63 140q-65 47 -173 47h-204v-711h215q28 0 48 1q25 0 51 7q65 17 111 64q45 47 45 128zM160 101v274h120q15 0 47 -4q8 -2 20.5 -4.5t16.5 -3.5q53 -16 80 -48q25 -34 25 -80q0 -44 -25 -78 q-27 -34 -80 -49q-17 -5 -41 -5q-18 -2 -43 -2h-120zM439 559q0 -50 -35 -80q-35 -31 -92 -37q-8 -1 -28 -1h-124v239h97q4 0 13 -0.5t15 -0.5q20 -2 27 -2q56 -6 92 -33q35 -30 35 -85z" />
<glyph unicode="C" horiz-adv-x="653" d="M609 552q0 45 -20 85q-22 38 -54 65q-34 27 -77 42q-45 15 -94 15q-80 0 -140 -30q-63 -32 -101 -79q-40 -47 -59 -113q-19 -64 -19 -136q0 -74 17 -136q15 -68 59 -123q42 -56 103 -87q58 -32 145 -32q81 0 145 16q24 6 42 15q17 7 26 12v80q-30 -21 -81 -39 q-53 -18 -112 -18q-82 0 -132 34q-52 34 -80 82q-29 49 -38 105q-10 51 -10 91q0 60 18 120q18 59 51 97q33 39 77 57q42 18 90 18q31 -3 58 -10q28 -9 49 -26q24 -20 37 -43q14 -28 14 -62h86z" />
<glyph unicode="D" horiz-adv-x="659" d="M160 678h83q12 0 58 -2q33 -3 54 -9q27 -8 58 -26q29 -19 54 -54q22 -31 41 -81q17 -49 17 -117q0 -66 -17 -114q-20 -53 -41 -82q-25 -36 -54 -54q-31 -20 -58 -26q-23 -7 -54 -8q-23 -2 -58 -2h-83v575zM80 746v-711h163q31 0 70 3q37 3 66 9q44 9 85 39q39 27 72 69 q29 38 51 100q19 63 19 134q0 74 -19 137q-21 58 -51 99q-32 39 -72 70q-42 28 -85 38q-23 5 -66 10q-39 3 -70 3h-163z" />
<glyph unicode="E" horiz-adv-x="547" d="M488 35v68h-327v270h304v68h-304v237h317v68h-398v-711h408z" />
<glyph unicode="F" horiz-adv-x="521" d="M478 678v68h-398v-711h81v338h306v68h-306v237h317z" />
<glyph unicode="G" horiz-adv-x="682" d="M609 552q0 45 -20 85q-22 38 -54 65q-34 27 -77 42q-45 15 -94 15q-80 0 -140 -30q-63 -32 -101 -79q-40 -47 -59 -113q-19 -63 -19 -135q0 -74 17 -136q16 -67 59 -122q41 -54 102 -87q60 -33 146 -33q73 0 127 12q57 13 106 38v339h-255v-69h175v-230q-8 -6 -49 -15 t-84 -9q-83 0 -133 35q-51 32 -79 82q-29 52 -38 105q-10 50 -10 90q0 60 18 120q18 58 51 96q33 39 76 57q42 18 91 18q31 -3 58 -10q28 -9 49 -26q24 -20 37 -43q14 -28 14 -62h86z" />
<glyph unicode="H" horiz-adv-x="660" d="M578 35v711h-81v-307h-336v307h-81v-711h81v336h336v-336h81z" />
<glyph unicode="I" horiz-adv-x="252" d="M166 35v711h-81v-711h81z" />
<glyph unicode="J" horiz-adv-x="390" d="M309 191v555h-81v-545q0 -31 -9 -50q-9 -18 -23 -32q-13 -13 -28 -19q-16 -7 -28 -8q-6 -1 -16 -1h-14q-27 0 -54 6q-28 5 -42 12v-74q20 -7 40 -8q21 -3 49 -3q63 0 102 15q38 15 62 40q22 22 32 54q10 33 10 58z" />
<glyph unicode="K" horiz-adv-x="592" d="M576 35l-339 377l312 334h-96l-294 -310v310h-79v-711h79v339l314 -339h103z" />
<glyph unicode="L" horiz-adv-x="513" d="M489 35v68h-328v643h-81v-711h409z" />
<glyph unicode="M" horiz-adv-x="834" d="M752 35v711h-115l-220 -604l-224 604h-113v-711h75v611l224 -611h72l226 611v-611h75z" />
<glyph unicode="N" horiz-adv-x="660" d="M578 35v711h-77v-608l-326 608h-95v-711h77v606l324 -606h97z" />
<glyph unicode="O" horiz-adv-x="743" d="M610 390q0 -62 -18 -119q-18 -56 -50 -99q-32 -41 -77 -62q-45 -22 -96 -22q-50 0 -94 22q-47 21 -79 62q-32 42 -48 99q-17 54 -17 119q0 66 17 121q16 57 48 99q33 41 79 63q47 22 94 22t96 -22q43 -22 77 -63q32 -43 50 -99q18 -58 18 -121zM691 390q0 75 -23 147 q-25 71 -68 120q-42 48 -104 76q-64 26 -127 26t-126 -26q-64 -27 -105 -76q-47 -53 -67 -120q-22 -69 -22 -147q0 -77 22 -144q20 -68 67 -121q42 -51 105 -75q59 -26 126 -26q66 0 127 26q61 24 104 75q44 49 68 121q23 71 23 144z" />
<glyph unicode="P" horiz-adv-x="583" d="M542 537q0 58 -24 100q-25 40 -63 64q-38 22 -83 34q-47 11 -95 11h-197v-711h81v644h114q31 0 66 -8q30 -9 58 -24q25 -15 44 -40q18 -27 18 -70q0 -35 -17 -63q-18 -30 -44 -45q-22 -17 -56 -23q-33 -6 -67 -6h-67v-71h68q50 0 96 10q45 9 82 35q37 25 62 67 q24 42 24 96z" />
<glyph unicode="Q" horiz-adv-x="764" d="M560 87q23 18 40 38q44 49 68 121q23 71 23 144q0 75 -23 147q-25 71 -68 120q-42 48 -104 76q-64 26 -127 26t-126 -26q-64 -27 -105 -76q-47 -53 -67 -120q-22 -69 -22 -147q0 -77 22 -144q20 -68 67 -121q42 -51 105 -75q59 -26 126 -26q45 0 84 11h288v62 q-49 -10 -124 -10h-57zM610 390q0 -62 -18 -119q-18 -56 -50 -99q-32 -41 -77 -62q-45 -22 -96 -22q-50 0 -94 22q-47 21 -79 62q-32 42 -48 99q-17 54 -17 119q0 66 17 121q16 57 48 99q33 41 79 63q47 22 94 22t96 -22q43 -22 77 -63q32 -43 50 -99q18 -58 18 -121z" />
<glyph unicode="R" horiz-adv-x="594" d="M542 543q0 56 -25 97q-26 37 -62 61q-34 21 -82 34q-49 11 -96 11h-197v-711h81v644h114q31 0 66 -8q34 -10 58 -23q26 -15 44 -41q18 -27 18 -64q0 -33 -17 -61q-17 -27 -44 -43q-28 -16 -57 -22q-31 -7 -66 -7h-67v-71h70q63 0 118 -70q46 -61 75 -234h86 q-25 123 -61 216q-33 82 -108 118q38 9 67 27q33 20 60 61q25 39 25 86z" />
<glyph unicode="S" horiz-adv-x="532" d="M491 225q-3 48 -19 78q-19 31 -40 51q-25 22 -64 46q-54 28 -119 58q-21 11 -44 26q-23 12 -39 27q-17 15 -28 32q-12 17 -12 40q0 53 40 83q40 29 97 29q52 0 113 -16q59 -19 69 -25v74q-27 9 -69 18q-20 4 -50 9q-38 4 -54 4q-98 0 -163 -43q-64 -45 -64 -140 q0 -42 21 -73q19 -33 55 -58q33 -26 73 -44q39 -21 72 -36q50 -27 90 -56q17 -13 37 -38q16 -26 16 -58q0 -34 -19 -58q-21 -26 -40 -37q-22 -14 -53 -20q-28 -7 -63 -7q-32 0 -60 7q-37 7 -56 13q-43 11 -66 23v-82q31 -9 79 -18q46 -10 94 -10q123 0 194 49q72 48 72 152z " />
<glyph unicode="T" horiz-adv-x="603" d="M570 678v68h-537v-68h228v-643h81v643h228z" />
<glyph unicode="U" horiz-adv-x="673" d="M335 92q-51 0 -85 18q-37 18 -54 47q-20 32 -27 70q-8 32 -8 76v443h-81v-446q0 -45 9 -93q9 -53 38 -90q26 -41 79 -67q49 -26 129 -26q81 0 130 26q51 25 79 67q28 40 38 90q9 48 9 93v446h-80v-443q0 -40 -9 -76q-9 -37 -29 -70q-18 -30 -54 -48q-34 -20 -84 -17z" />
<glyph unicode="V" horiz-adv-x="644" d="M615 746h-83l-210 -620l-214 620h-81l248 -711h91z" />
<glyph unicode="W" horiz-adv-x="874" d="M840 746h-76l-117 -610l-170 610h-83l-169 -610l-117 610h-75l141 -711h95l167 606l167 -606h94z" />
<glyph unicode="X" horiz-adv-x="616" d="M31 35h89l187 301l189 -301h89l-234 372l211 339h-89l-166 -267l-168 267h-89l212 -339z" />
<glyph unicode="Y" horiz-adv-x="604" d="M303 433l-188 313h-88l235 -387v-324h81v324l233 387h-88z" />
<glyph unicode="Z" horiz-adv-x="570" d="M541 35v68h-411l387 572v71h-459v-68h368l-385 -574v-69h500z" />
<glyph unicode="[" horiz-adv-x="359" d="M314 -106v60h-110v805h110v60h-186v-925h186z" />
<glyph unicode="\" horiz-adv-x="388" d="M35 819l246 -925h73l-244 925h-75z" />
<glyph unicode="]" horiz-adv-x="359" d="M232 -106v925h-188v-60h110v-805h-110v-60h188z" />
<glyph unicode="^" horiz-adv-x="477" d="M202 815l-148 -230h76l110 170l106 -170h77l-146 230h-75z" />
<glyph unicode="_" horiz-adv-x="508" d="M504 -82v52h-499v-52h499z" />
<glyph unicode="`" horiz-adv-x="309" d="M216 580l-62 170h-92l89 -170h65z" />
<glyph unicode="a" horiz-adv-x="538" d="M463 35v336q0 70 -51 118q-52 48 -150 48q-45 0 -87 -13q-42 -14 -66 -33q-27 -21 -37 -44q-12 -25 -12 -51h90q0 36 33 58q35 22 79 22q36 0 63 -12q24 -12 38 -29q10 -15 17 -36q4 -28 4 -32v-45h-92q-24 0 -64 -5q-36 -6 -67 -15q-48 -15 -81 -54q-33 -40 -33 -95 q0 -32 11 -54q9 -24 31 -41q18 -15 47 -25q26 -9 46 -9q46 0 75 8q31 6 59 20q42 20 68 43v-60h79zM384 220q0 -34 -12 -52q-23 -36 -64 -60q-18 -10 -47 -17q-27 -6 -42 -6q-41 0 -66 19q-26 17 -26 59q0 40 39 67q35 22 78 28q53 7 79 8h61v-46z" />
<glyph unicode="b" horiz-adv-x="570" d="M199 510v-65q54 30 96 30q28 0 59 -13q29 -16 47 -40q18 -25 31 -64q10 -43 10 -78q0 -37 -10 -77q-12 -38 -31 -64q-19 -28 -46 -40q-28 -14 -60 -14q-31 0 -56 14q-29 12 -47 39q-21 28 -29 65q-11 33 -11 77v466h-77v-461q0 -65 16 -113q15 -51 43 -82q28 -34 69 -49 q38 -17 94 -17q55 0 96 17q42 15 70 49q26 31 43 82q16 53 16 113q0 44 -13 96q-15 46 -40 81q-26 33 -71 55q-46 20 -95 20q-55 0 -104 -27z" />
<glyph unicode="c" horiz-adv-x="538" d="M485 371q0 39 -17 71q-18 31 -43 51q-28 21 -62 33q-38 11 -78 11q-53 0 -101 -19q-46 -20 -75 -51q-31 -31 -47 -77q-15 -45 -15 -99q0 -68 21 -116q20 -49 54 -83q24 -25 69 -44q43 -20 85 -23q51 -6 100 3q49 8 93 31v61q-35 -21 -73 -27q-38 -7 -66 -7q-34 0 -59 6 q-28 6 -39 13q-36 18 -56 44q-21 24 -30 51q-9 23 -12 46q-4 20 -4 44q0 89 44 137q43 49 109 49q60 0 90 -33q28 -34 28 -72h84z" />
<glyph unicode="d" horiz-adv-x="570" d="M369 447v62q-48 28 -105 28q-51 0 -93 -21q-42 -20 -70 -56q-29 -39 -40 -80q-14 -43 -14 -95q0 -65 16 -112q15 -50 45 -82q28 -34 68 -50q38 -17 83 -17q57 0 97 26q40 23 61 50v-65h76v711h-76v-466q0 -40 -12 -76q-13 -36 -32 -63q-19 -26 -46 -41t-56 -15 q-32 0 -57 14q-27 13 -46 41q-20 27 -30 64q-11 33 -11 76t11 77q10 36 30 63q18 26 47 41q28 14 56 14q47 0 98 -28z" />
<glyph unicode="e" horiz-adv-x="538" d="M131 317q6 69 43 110q43 49 109 49q32 0 60 -13q25 -16 38 -36q24 -42 24 -110h-274zM132 256h353v53q0 109 -45 163q-26 30 -67 49q-45 16 -90 16q-55 0 -101 -19q-44 -19 -73 -51q-31 -31 -47 -77q-15 -45 -15 -99q0 -68 21 -116q20 -49 54 -83q28 -28 68 -45 q43 -19 86 -22q51 -6 100 3q49 8 93 31v61q-35 -21 -73 -27q-38 -7 -66 -7q-34 0 -59 6q-28 6 -39 13q-37 19 -55 44q-20 23 -31 51q-9 23 -12 46z" />
<glyph unicode="f" horiz-adv-x="398" d="M390 682v64q-33 5 -41 7q-34 4 -55 4q-61 -1 -94 -18t-52 -44q-18 -30 -21 -62q-4 -29 -4 -69v-39h-91v-61h91v-429h81v429h149v61h-149v59q0 25 3 43t12 33q11 18 31 28q18 8 48 8q20 0 52 -4q25 -5 40 -10z" />
<glyph unicode="g" horiz-adv-x="570" d="M493 74v451h-76v-65q-60 77 -154 77q-51 0 -93 -21q-43 -20 -71 -56q-26 -35 -40 -75q-14 -39 -14 -90q0 -66 17 -107q15 -45 44 -77q28 -34 69 -50q38 -17 83 -17q38 0 65 11q28 9 46 24v60q-18 -15 -45 -24q-27 -10 -55 -10q-30 0 -55 14q-29 14 -47 41q-20 28 -30 59 q-11 28 -11 71q0 42 11 71q9 31 30 59q18 26 47 41q28 14 55 14q29 0 58 -15q27 -17 47 -41q20 -27 32 -58q11 -33 11 -71v-203q0 -12 -4 -44q-5 -52 -45 -82q-41 -32 -116 -32q-42 0 -90 9q-52 10 -77 26v-78q22 -11 73 -17q45 -7 84 -7q118 0 185 54q62 51 66 158z" />
<glyph unicode="h" horiz-adv-x="570" d="M493 35v329q0 87 -51 132q-49 41 -131 41q-58 0 -105 -35q-37 -29 -54 -61v305h-77v-711h77v214q0 24 2 36q2 18 6 36q17 74 55 112t89 38q57 0 81 -30q31 -39 31 -89v-317h77z" />
<glyph unicode="i" horiz-adv-x="241" d="M167 648v98h-97v-98h97zM160 35v490h-81v-490h81z" />
<glyph unicode="j" horiz-adv-x="260" d="M192 648v98h-97v-98h97zM182 43v482h-77v-502q0 -68 -65 -89q-25 -8 -72 -5v-68q39 0 81 7q45 6 73 26q31 22 46 57q13 34 14 92z" />
<glyph unicode="k" horiz-adv-x="518" d="M493 35l-265 272l258 218h-103l-231 -197v418h-77v-711h77v239l243 -239h98z" />
<glyph unicode="l" horiz-adv-x="241" d="M160 35v711h-81v-711h81z" />
<glyph unicode="m" horiz-adv-x="817" d="M740 35v324q0 93 -45 136q-45 42 -112 42q-64 0 -109 -43q-28 -28 -39 -50q-16 38 -45 61q-38 32 -103 32q-54 0 -95 -38q-28 -26 -42 -52v78h-75v-490h75v210q0 40 8 78q7 38 20 69q14 35 41 55q24 18 57 18q28 0 51 -10q19 -13 29 -34q8 -19 13 -50q3 -30 3 -56v-280 h71v210q0 23 2 35q0 10 4 38q9 67 44 108q33 39 80 39q24 0 47 -10q20 -12 30 -34q7 -17 12 -49q3 -32 3 -57v-280h75z" />
<glyph unicode="n" horiz-adv-x="570" d="M493 35v329q0 87 -51 132q-49 41 -131 41q-61 0 -108 -35q-37 -29 -51 -61v84h-77v-490h77v214q0 24 2 36q2 18 6 36q17 74 55 112t89 38q57 0 81 -30q31 -39 31 -89v-317h77z" />
<glyph unicode="o" horiz-adv-x="582" d="M291 24q106 0 175 72t69 185q0 111 -68 184q-69 72 -176 72t-175 -72q-69 -73 -69 -184q0 -113 69 -185t175 -72zM291 84q-72 0 -117 58q-45 57 -45 139q0 79 45 138q46 58 117 58t117 -58q45 -59 45 -138q0 -82 -45 -139q-45 -58 -117 -58z" />
<glyph unicode="p" horiz-adv-x="570" d="M199 57q48 -29 109 -29q44 0 84 17q41 17 68 50q27 31 45 81q17 49 17 111q0 46 -14 93q-14 41 -41 79q-26 34 -70 57q-43 21 -94 21q-88 0 -151 -78v66h-77v-664h77v421q0 39 12 75q11 35 30 61q18 24 46 41q29 16 55 16q31 0 58 -15q25 -14 46 -41q20 -28 32 -62 q11 -38 11 -75q0 -38 -11 -76q-12 -38 -30 -62q-21 -27 -47 -40q-28 -15 -59 -15q-43 0 -96 34v-66z" />
<glyph unicode="q" horiz-adv-x="570" d="M369 57v66q-50 -34 -98 -34q-32 0 -57 14q-27 13 -46 41q-20 27 -30 63q-11 32 -11 75q0 42 11 75q11 35 30 62q18 26 47 41q27 15 56 15q27 0 57 -16q26 -16 45 -41q18 -27 32 -61q12 -36 12 -75v-421h76v664h-76v-66q-65 78 -153 78q-51 0 -93 -21q-43 -22 -70 -57 q-29 -38 -40 -79q-14 -42 -14 -93q0 -64 16 -111q15 -50 45 -81q28 -34 68 -50q38 -17 83 -17q64 0 110 29z" />
<glyph unicode="r" horiz-adv-x="398" d="M374 461v76q-80 -2 -131 -30q-53 -28 -92 -82v100h-76v-490h76v203q0 48 9 90q8 35 33 62q24 27 52 42q25 14 62 22q38 7 67 7z" />
<glyph unicode="s" horiz-adv-x="449" d="M408 163q0 45 -28 78q-28 30 -65 48q-21 9 -82 32q-46 14 -68 28q-24 14 -33 28q-9 13 -9 36q0 29 31 47q31 17 70 17q50 0 93 -12q41 -13 59 -23v73q-75 22 -143 22q-82 0 -134 -35q-52 -36 -52 -99q0 -49 26 -75q25 -29 57 -43q33 -17 78 -31q50 -19 66 -26 q22 -11 40 -29q16 -19 16 -41q0 -35 -44 -58q-28 -14 -93 -14q-39 0 -84 14q-49 13 -65 26v-77q87 -25 149 -25q55 0 98 10q41 9 69 29q23 17 36 43q12 26 12 57z" />
<glyph unicode="t" horiz-adv-x="375" d="M339 464v61h-145v162l-77 -38v-124h-87v-61h87v-316q0 -64 35 -93q34 -31 109 -31q48 0 75 4v64q-32 -6 -62 -6q-28 0 -44 8q-18 6 -26 23q-10 17 -10 39v308h145z" />
<glyph unicode="u" horiz-adv-x="570" d="M75 525v-329q0 -89 52 -132q44 -41 131 -41q58 -1 108 35q36 30 51 61v-84h76v490h-76v-214q0 -12 -2 -36l-6 -36q-18 -72 -55 -111q-39 -39 -89 -39q-58 0 -82 30q-30 36 -30 89v317h-78z" />
<glyph unicode="v" horiz-adv-x="516" d="M496 525h-76l-154 -395l-165 395h-80l210 -490h72z" />
<glyph unicode="w" horiz-adv-x="710" d="M686 525h-71l-99 -376l-131 376h-61l-129 -376l-98 376h-74l132 -490h72l127 368l131 -368h74z" />
<glyph unicode="x" horiz-adv-x="510" d="M468 525h-85l-127 -173l-125 173h-86l168 -232l-189 -258h86l146 200l145 -200h85l-187 258z" />
<glyph unicode="y" horiz-adv-x="500" d="M399 525l-143 -372l-153 372h-83l200 -465l-76 -199h78l257 664h-80z" />
<glyph unicode="z" horiz-adv-x="478" d="M437 35v61h-309l295 363v66h-363v-61h279l-298 -369v-60h396z" />
<glyph unicode="{" horiz-adv-x="458" d="M129 336q46 -14 79 -41q30 -27 30 -69q0 -28 -9 -55q-10 -34 -14 -58q-3 -30 -3 -60q0 -34 14 -62q15 -31 37 -48q19 -19 47 -32q22 -12 50 -19q27 -7 47 -4v36q-50 12 -73 39q-25 28 -31 54q-9 34 -5 66q3 33 9 63q4 30 3 61q-3 30 -15 57q-22 42 -50 64q-33 21 -52 29 q25 9 53 30q27 19 49 64q12 27 15 58q2 30 -3 60q-6 31 -9 62q-6 30 5 67q8 28 31 54q23 27 73 39v36q-24 2 -47 -4q-23 -5 -50 -19q-24 -11 -47 -31q-22 -21 -37 -49q-14 -29 -14 -62q0 -32 3 -60q4 -27 14 -57q9 -30 9 -56q0 -43 -30 -68q-32 -27 -79 -42v-43z" />
<glyph unicode="|" horiz-adv-x="342" d="M204 -93v899h-67v-899h67z" />
<glyph unicode="}" horiz-adv-x="458" d="M329 336v43q-49 15 -79 42q-30 25 -30 68q0 26 9 56q6 21 13 57q4 38 4 60q0 28 -16 62q-14 27 -36 49q-25 20 -47 31q-29 14 -50 19q-24 6 -46 4v-36q48 -12 72 -39q23 -27 30 -54q10 -35 7 -67q-4 -22 -10 -62q-6 -30 -3 -60q0 -30 14 -58q18 -40 48 -62q28 -23 55 -32 q-21 -8 -52 -29q-28 -20 -50 -63q-13 -27 -15 -58q-3 -31 3 -61q7 -45 10 -62q3 -34 -7 -67q-7 -27 -30 -54q-24 -27 -72 -39v-36q18 -3 46 4q27 7 50 19q27 14 47 32q21 18 36 48q16 32 16 62q0 20 -4 60q-8 38 -13 58q-9 27 -9 55q0 42 30 69q31 27 79 41z" />
<glyph unicode="~" horiz-adv-x="592" d="M542 455h-65q0 -53 -19 -81t-58 -28q-23 0 -41 15q-16 11 -49 44q-34 36 -61 50q-31 14 -64 14q-56 0 -96 -46q-39 -47 -39 -129h64q0 59 19 85q18 26 54 26q20 0 39 -11q17 -12 55 -49q32 -39 61 -50q27 -13 61 -13q66 0 103 47q36 47 36 126z" />
<glyph d="M914 394v55h-139l56 272h-70l-54 -272h-133l-66 272h-77l-66 -272h-133l-54 272h-69l56 -272h-138v-55h149l71 -349h85l84 349h107l84 -349h86l71 349h150zM696 394l-49 -248l-60 248h109zM352 394l-60 -248l-49 248h109zM430 449l40 166l40 -166h-80z" />
<glyph horiz-adv-x="408" d="M361 395h-314v-74h314v74z" />
<glyph d="M464 802q-94 0 -176 -35q-80 -35 -142 -97q-62 -60 -95 -140q-35 -79 -35 -168q0 -97 35 -176q33 -82 93 -142q60 -63 139 -95q76 -35 168 -35q94 0 176 35q81 33 144 93q62 61 97 139q36 78 36 168q0 91 -35 176q-35 79 -97 144q-61 61 -140 97q-81 36 -168 36zM632 158 v62q-32 -19 -62 -25q-31 -7 -60 -7q-32 0 -50 5q-22 3 -33 10q-28 14 -46 37q-17 19 -26 43q-11 23 -12 46q-3 21 -3 42q0 68 37 105q36 36 93 36q23 0 47 -6q24 -8 32 -19q10 -14 13 -27q3 -17 3 -34h80q0 31 -8 57q-9 24 -24 42q-26 25 -63 37q-42 10 -78 10 q-100 0 -155 -60q-56 -59 -56 -153q0 -59 19 -101q17 -43 48 -74q22 -23 59 -37q39 -16 78 -19q41 -4 86 3q42 6 81 27zM463 753q74 0 147 -31q68 -31 123 -83l3 -3q51 -56 84 -129q31 -78 31 -157q0 -80 -31 -151q-32 -73 -85 -123q-52 -52 -127 -83q-74 -30 -156 -30 t-150 31q-73 31 -122 83q-51 51 -82 125q-30 72 -30 156q0 81 30 153t83 125q52 52 126 86q74 31 156 31z" />
<glyph d="M225 368h59v332h135v60h-329v-60h135v-332zM611 368h44l102 266v-266h55v392h-70l-111 -301l-124 301h-59v-392h55v261z" />
<glyph unicode="&#x85;" horiz-adv-x="858" d="M765 408h-100v-100h100v100zM479 408h-100v-100h100v100zM193 408h-100v-100h100v100z" />
<glyph unicode="&#xa1;" d="M418 -55h80l-9 563h-62zM408 755v-105h102v105h-102z" />
<glyph unicode="&#xa2;" d="M657 114q-32 -10 -65 -13q-32 -3 -43 -3q-31 0 -70 6q-40 4 -58 15h-2l-1 1l136 353l9 -6q1 -1 2 -2.5t2.5 -2.5t2.5 -2q11 -14 16 -33q3 -19 3 -37h84q0 34 -9 61q-11 26 -28 46q-10 10 -27 22q-18 11 -31 16l22 57h-59l-17 -44q-8 0 -24 2q-4 0 -12 0.5t-12 0.5 q-115 0 -178 -68q-64 -68 -64 -177q0 -68 22 -116q20 -49 55 -84q5 -6 15 -13q7 -7 17 -12l-37 -97h59l29 74q31 -10 63 -14q27 -5 70 -5q41 0 68 5q28 4 62 14v56zM473 492q2 0 6.5 -0.5t7.5 -0.5q8 -2 14 -2l-129 -333q-38 36 -47 82q-11 41 -11 83q0 81 45 126t114 45z " />
<glyph unicode="&#xa3;" d="M683 216q0 -17 -2 -37q-3 -18 -7 -26q-7 -13 -15 -19q-10 -8 -22 -13q-12 -6 -36 -6q-16 -1 -34 -1h-243q4 9 12 39q6 25 12 70q6 39 6 71q0 19 -4 69h254v60h-262q-8 36 -9 83q-3 46 12 82q18 44 55 77q36 31 91 31q52 0 92 -38q37 -38 46 -93h72q-5 39 -21 75 q-18 36 -45 63t-63 45q-40 16 -80 16q-70 0 -129 -37q-59 -38 -86 -110q-18 -46 -17 -94q0 -54 7 -100h-58v-60h65q6 -35 6 -67q0 -34 -6 -76q-7 -42 -15 -70q-9 -30 -12 -35h-72v-67h397q48 0 73 5q28 5 42 13q15 8 31 26q14 16 23 36q5 17 9 38q4 28 4 50h-71z" />
<glyph unicode="&#xa4;" horiz-adv-x="759" d="M194 218l-82 -83l38 -38l82 82q29 -26 66 -37q34 -14 80 -14q43 0 79 14q38 14 68 39l84 -84l38 38l-85 85q23 27 37 65q13 39 13 79q0 38 -14 78q-14 34 -40 68l89 89l-38 38l-88 -89q-30 21 -66 36q-39 14 -77 14q-41 0 -78 -14q-39 -16 -63 -35l-87 88l-38 -38l85 -87 q-27 -31 -39 -68q-13 -38 -13 -80q0 -44 12 -80q12 -38 37 -66zM560 364q0 -40 -15 -73q-15 -35 -39 -59q-26 -26 -58 -39q-33 -15 -70 -15q-38 0 -71 15q-35 14 -58 39q-25 24 -39 59q-14 31 -14 73q0 36 15 71q13 31 38 58q25 25 58 40t71 15q36 0 69 -15q30 -14 58 -40 q27 -30 40 -59q15 -33 15 -70z" />
<glyph unicode="&#xa5;" d="M200 205h228v-157h80v157h217v69h-217v61h217v69h-200l222 354h-87l-192 -309l-187 309h-90l219 -354h-210v-69h228v-61h-228v-69z" />
<glyph unicode="&#xa7;" horiz-adv-x="386" d="M341 286q11 34 -4 74q-16 36 -38 66q-27 30 -51 53q-28 24 -52 49q-25 24 -41 52q-17 26 -17 61t17 51q17 15 36 18q18 1 36 -5q15 -9 13 -18q-5 -15 1 -29q3 -16 14 -27q9 -11 24 -13q15 -3 29 11q13 12 12 32q-3 17 -19 40q-17 19 -43 33q-30 14 -64 14q-52 -2 -86 -34 q-35 -34 -32 -100q0 -30 8 -49q6 -21 17 -40q10 -20 17 -27q6 -11 8 -11q-4 -2 -6 -2q-1 -1 -3 -2t-5.5 -2.5t-5.5 -2.5q-14 -7 -22 -14q-13 -10 -19 -24q-12 -27 -9 -50q1 -24 14 -49q14 -27 31 -46q19 -25 38 -43q28 -32 43 -46q26 -29 39 -46q15 -24 24 -48q8 -26 2 -54 q-6 -26 -22 -36q-17 -11 -33 -11q-16 -1 -28 6q-14 6 -11 14q2 6 0 20q-3 10 -9 23q-8 10 -18 18q-11 5 -27 2t-20 -18q-6 -15 0 -33q6 -20 22 -37q15 -18 43 -27q25 -9 52 -8q29 0 51 11q23 11 41 32q17 20 26 52q9 33 6 63q-5 31 -13 50q-11 27 -17 35q-9 12 -11 16 q2 0 8 3q5 0 15 6q12 7 22 17q11 11 17 30zM254 372q14 -20 20 -31q7 -18 9 -34q0 -17 -7 -27q-8 -11 -32 -11q-18 0 -41 17q-24 15 -56 53q-14 14 -22 36q-8 16 -8 35q0 16 10 26q8 8 32 7q16 -3 43 -20q23 -17 52 -51z" />
<glyph unicode="&#xa8;" horiz-adv-x="560" d="M482 809h-102v-99h102v99zM180 809h-102v-99h102v99z" />
<glyph unicode="&#xa9;" horiz-adv-x="0" />
<glyph unicode="&#xaa;" horiz-adv-x="686" d="M123 232h440v59h-440v-59zM442 350h76v275q0 55 -44 94q-45 39 -120 39q-37 0 -70 -10q-33 -12 -53 -27q-23 -17 -33 -36q-12 -21 -12 -40h86q0 26 22 41q22 14 60 14q28 0 47 -8q17 -9 26 -21q9 -11 12 -25q3 -15 3 -24v-30q-33 4 -72 1q-44 -4 -89 -20q-45 -17 -74 -46 q-32 -31 -32 -81q0 -28 11 -44q10 -20 29 -33q18 -15 41 -21q20 -7 45 -7q31 0 55 7q24 6 41 16q14 7 29 20q11 9 14 17h2v-51zM442 500q0 -42 -32 -71q-33 -30 -80 -30q-28 0 -51 12q-23 11 -23 44q0 31 21 49q18 17 49 26q26 7 61 10q11 0 29.5 0.5t25.5 0.5v-41z" />
<glyph unicode="&#xab;" d="M213 358l578 397l-24 28l-625 -425l625 -425l24 28zM409 358l476 330l-24 28l-523 -358l523 -359l23 30z" />
<glyph unicode="&#xac;" d="M888 403h-863v-54h799v-275h64v329z" />
<glyph unicode="&#xad;" horiz-adv-x="408" d="M361 395h-314v-74h314v74z" />
<glyph unicode="&#xae;" horiz-adv-x="920" d="M758 263h-43q-13 0 -19 -4q-5 -4 -8 -10t-6 -15q-5 -10 -14 -19t-23 -15q-15 -6 -24 -6l-322 1q-8 0 33 23l13 7q51 28 166 64q31 9 66 21q34 12 65 30q32 18 56 40q22 19 38 53q16 39 12 78q-6 38 -28 67q-22 30 -58 52q-36 21 -80 30q-5 1 -26 3.5t-35 4.5q-39 3 -83 3 q-47 -3 -91 -13q-46 -12 -86 -36q-25 -18 -39 -32q-19 -21 -28 -41q-9 -24 -8 -47q0 -27 17 -50q11 -20 33 -27q23 -10 44 -7q24 2 44 16t29 41q6 18 3 34q-3 17 -9 28q-2 4 -11 19q-7 7 -5 7q2 2 8 6q5 5 25 12q19 7 47 12q33 4 70 1q33 -3 57 -18q23 -17 32 -40 q9 -25 5 -51q-6 -29 -29 -57q-16 -20 -39 -33q-19 -12 -53 -28q-20 -10 -64 -30q-33 -16 -71 -38q-69 -42 -110 -86t-41 -88v-70h571zM159 -52q-22 0 -42 7q-22 6 -34 18q-19 16 -25 40q-8 21 -8 48v596q0 18 6 42t17 36q14 16 41 26q28 7 48 7h596q20 0 48 -7q24 -9 41 -26 q10 -15 17 -36q6 -24 6 -42v-596q0 -22 -8 -48q-9 -25 -25 -40q-14 -12 -34 -18q-20 -7 -42 -7h-602zM174 799q-2 0 -11 -0.5t-14 -0.5q-9 -1 -34 -5q-19 -5 -35 -12q-17 -9 -30 -23q-20 -23 -25 -52q-6 -28 -6 -46v-588q0 -15 1 -25q0 -14 5 -34q3 -16 13 -35q7 -17 23 -28 q23 -20 51 -26q25 -7 49 -7h598q21 0 48 7q28 6 52 26q15 11 23 28q7 16 12 35q2 12 6 34q0 5 0.5 14t0.5 11v588q0 18 -6 46q-6 27 -25 52q-12 14 -29 23q-18 7 -36 12q-24 4 -34 5q-6 0 -14.5 0.5t-10.5 0.5h-572z" />
<glyph unicode="&#xb0;" horiz-adv-x="258" d="M129 792q-44 0 -75 -31q-31 -32 -31 -75q0 -44 31 -74q30 -31 75 -31q43 0 75 31q31 31 31 74q0 41 -31 75q-34 31 -75 31zM129 735q19 0 35 -14q14 -16 14 -35q0 -22 -14 -34q-14 -14 -35 -14q-22 0 -35 14q-14 11 -14 34q0 21 14 35t35 14z" />
<glyph unicode="&#xb1;" horiz-adv-x="662" d="M613 398v65h-244v189h-75v-189h-245v-65h245v-193h75v193h244zM613 70v64h-564v-64h564z" />
<glyph unicode="&#xb2;" horiz-adv-x="387" d="M79 405v-53h244v57h-157q18 18 32 31q19 19 40 43q20 23 38 50q16 23 28 53q6 14 9 33q2 24 2 32q0 50 -37 84q-40 31 -83 31q-35 0 -58 -12q-24 -13 -37 -31t-18 -38q-6 -21 -6 -35h67q-3 29 11 46t41 17q32 0 44 -21q12 -23 12 -37q0 -7 -2 -27q-3 -15 -6 -25 q-14 -30 -29 -50q-4 -6 -37 -50q-35 -40 -38 -43q-13 -14 -31 -32q-3 -2 -7 -6q-6 -4 -8 -6q-1 -1 -3.5 -2.5t-3.5 -2.5q-3 -2 -7 -6z" />
<glyph unicode="&#xb3;" horiz-adv-x="387" d="M269 566q16 3 32 25q15 21 15 63q0 25 -11 47q-12 19 -28 34q-16 13 -39 23q-26 7 -44 7q-32 0 -53 -9q-24 -10 -37 -25q-17 -17 -22 -31q-7 -17 -7 -34h61q3 20 18 34q15 13 44 13q22 0 40 -16q14 -15 14 -43q0 -15 -4 -27q-8 -14 -14 -22q-5 -7 -22 -10q-18 -3 -44 -3 v-52q34 0 63 -13q26 -15 26 -57q0 -34 -15 -52q-16 -20 -49 -20q-32 0 -44 15q-14 16 -14 33h-68q3 -42 35 -71q30 -30 93 -30q61 0 95 37q33 36 33 87q0 43 -18 66q-21 23 -36 31z" />
<glyph unicode="&#xb4;" d="M544 750h-90l-64 -168h65z" />
<glyph unicode="&#xb6;" d="M592 758h-185q-40 0 -74 -14q-33 -14 -60 -40q-25 -24 -39 -56q-15 -33 -15 -69q0 -81 52 -132q50 -53 142 -53v-474h39v799h101v-799h39v838z" />
<glyph unicode="&#xb7;" horiz-adv-x="286" d="M193 408h-100v-100h100v100z" />
<glyph unicode="&#xb8;" horiz-adv-x="310" d="M270 48h-76v-105q-4 -26 -23 -34q-19 -9 -49 -9q-24 0 -41 6q-19 5 -30 13l-17 -25q18 -13 52 -23q30 -10 64 -9q49 0 85 24q35 23 35 62v100z" />
<glyph unicode="&#xb9;" horiz-adv-x="387" d="M174 692v-342h63v413h-50l-81 -50v-64z" />
<glyph unicode="&#xba;" horiz-adv-x="686" d="M123 232h440v59h-440v-59zM345 348q90 0 141 57q51 55 51 148q0 91 -52 151q-53 57 -142 57q-47 0 -84 -17q-37 -18 -60 -46q-25 -31 -35 -66q-12 -39 -12 -80q0 -98 54 -150q52 -54 139 -54zM234 552q0 34 5 57q5 27 18 48q12 20 33 34q21 12 52 12q60 0 87 -45 q25 -47 25 -105q0 -60 -25 -104q-25 -43 -84 -43q-61 0 -85 43q-26 40 -26 103z" />
<glyph unicode="&#xbb;" d="M709 358l-578 -397l24 -28l625 425l-625 425l-24 -28zM513 358l-475 -329l23 -30l523 359l-523 358l-24 -28z" />
<glyph unicode="&#xbc;" d="M108 -40l677 774l-48 37l-676 -772zM204 702v-342h63v413h-50l-81 -50v-64zM673 69v-106h61v106h63v57h-63v250h-60l-158 -260v-47h157zM673 274v-148h-87z" />
<glyph unicode="&#xbd;" d="M108 -40l677 774l-48 37l-676 -772zM204 692v-342h63v413h-50l-81 -50v-64zM539 15v-53h244v57h-157q18 18 32 31q19 19 40 43q20 23 38 50q16 23 28 53q6 14 9 33q2 24 2 32q0 50 -37 84q-40 31 -83 31q-35 0 -58 -12q-24 -13 -37 -31t-18 -38q-6 -21 -6 -35h67 q-3 29 11 46t41 17q32 0 44 -21q12 -23 12 -37q0 -7 -2 -27q-3 -15 -6 -25q-14 -30 -29 -50q-4 -6 -37 -50q-35 -40 -38 -43q-13 -14 -31 -32q-3 -2 -7 -6q-6 -4 -8 -6q-1 -1 -3.5 -2.5t-3.5 -2.5q-3 -2 -7 -6z" />
<glyph unicode="&#xbe;" d="M108 -40l677 774l-48 37l-676 -772zM269 576q16 3 32 25q15 21 15 63q0 25 -11 47q-12 19 -28 34q-16 13 -39 23q-26 7 -44 7q-32 0 -53 -9q-24 -10 -37 -25q-17 -17 -22 -31q-7 -17 -7 -34h61q3 20 18 34q15 13 44 13q22 0 40 -16q14 -15 14 -43q0 -15 -4 -27 q-8 -14 -14 -22q-5 -7 -22 -10q-18 -3 -44 -3v-52q34 0 63 -13q26 -15 26 -57q0 -34 -15 -52q-16 -20 -49 -20q-32 0 -44 15q-14 16 -14 33h-68q3 -42 35 -71q30 -30 93 -30q61 0 95 37q33 36 33 87q0 43 -18 66q-21 23 -36 31zM673 69v-106h61v106h63v57h-63v250h-60 l-158 -260v-47h157zM673 274v-148h-87z" />
<glyph unicode="&#xbf;" d="M225 127q0 -50 19 -82q18 -34 48 -53q29 -20 69 -28q37 -9 78 -9q53 0 90 8q44 8 70 16v71q-30 -14 -75 -24q-44 -11 -81 -11q-31 0 -53 7q-24 5 -46 22q-19 13 -32 36q-12 21 -12 51q0 23 14 47q10 20 32 47q22 25 42 44l38 38q31 28 53 66q19 36 19 95v73h-68v-44 q0 -30 -4 -60q-5 -26 -12 -40q-10 -20 -20 -30q-8 -9 -29 -28q-13 -12 -36 -33q-28 -26 -47 -49q-23 -28 -40 -61t-17 -69zM413 755v-105h103v105h-103z" />
<glyph unicode="&#xc6;" horiz-adv-x="848" d="M10 33h76l91 215h230v-215h388v67h-309v267h289v66h-289v234h300v67h-480zM347 649h60v-335h-203z" />
<glyph unicode="&#xd0;" horiz-adv-x="708" d="M143 364v-331h162q69 0 131 14q43 9 85 38q36 25 70 70q32 45 49 98q18 55 18 133q0 130 -50 209q-51 77 -129 111q-68 28 -163 28h-173v-314h-115v-56h115zM220 364h219v56h-219v247h77q65 -1 112 -9q32 -8 62 -25q31 -20 54 -52q24 -33 39 -80q14 -44 17 -116 q0 -65 -16 -113q-17 -49 -40 -81q-24 -32 -52 -53q-31 -23 -58 -28q-52 -12 -109 -10h-86v264z" />
<glyph unicode="&#xd7;" horiz-adv-x="662" d="M604 136l-223 221l207 209l-48 46l-209 -207l-207 211l-50 -50l211 -211l-219 -214l53 -48l213 216l225 -223z" />
<glyph unicode="&#xd8;" horiz-adv-x="763" d="M612 384q0 -60 -17 -117q-19 -59 -49 -98q-32 -42 -76 -62q-45 -22 -94 -22t-93 22q-22 10 -41 26l328 429q14 -25 25 -60q17 -59 17 -118zM538 609l-334 -438q-30 41 -45 96q-17 52 -17 117q0 64 17 118q15 54 47 97q32 39 77 62q47 22 93 22q45 0 94 -22q38 -19 68 -52 zM693 384q0 72 -23 143q-20 55 -52 99l60 78l-45 30l-51 -67q-34 31 -81 53q-61 26 -125 26t-124 -26q-60 -27 -103 -76q-43 -51 -66 -117t-23 -143q0 -79 23 -142q22 -68 66 -118q6 -8 10 -11l-58 -77l47 -27l52 69q22 -16 52 -29q58 -27 124 -27q65 0 125 27q59 25 103 75 q42 50 66 118q23 67 23 142z" />
<glyph unicode="&#xde;" horiz-adv-x="593" d="M162 734h-78v-701h78v130h135q45 0 88 10q41 8 79 34q34 22 58 61q22 39 22 94q0 50 -22 91q-24 37 -60 63q-42 25 -91 38q-53 12 -111 12h-98v168zM162 502h129q29 0 63 -8q30 -9 53 -25q22 -15 41 -42q16 -29 16 -63q-6 -76 -54 -106q-51 -30 -128 -30h-120v274z" />
<glyph unicode="&#xdf;" horiz-adv-x="606" d="M302 372q28 0 62 -8q31 -9 54 -25q22 -17 39 -42q14 -25 17 -63q-6 -75 -55 -106q-51 -30 -126 -30h-39v-65h53q45 0 88 10q41 8 79 34q35 23 57 61q22 39 22 94q0 51 -18 84q-17 30 -43 51q-27 19 -51 29q-22 8 -47 11q42 9 87 51q43 43 43 114q-3 92 -65 134 q-64 41 -152 41q-96 0 -154 -61q-59 -62 -59 -168v-485h77v485q0 75 33 120q32 44 102 44q62 0 102 -29q39 -30 39 -86q0 -38 -14 -64q-15 -27 -40 -41q-25 -16 -56 -20q-33 -6 -67 -6h-16v-64h48z" />
<glyph unicode="&#xe6;" horiz-adv-x="821" d="M764 324q0 37 -8 85q-9 44 -31 73q-24 29 -59 42q-39 13 -82 13q-57 0 -101 -19q-44 -22 -70 -55q-22 34 -59 54q-42 20 -100 20q-48 0 -82 -12q-34 -13 -59 -33q-26 -22 -35 -44q-11 -23 -11 -50h86q0 35 27 58q27 22 74 22q38 0 60 -12q20 -13 31 -30q12 -18 15 -38 q3 -22 3 -29v-51q-26 0 -96 -4q-51 -4 -100 -20q-49 -17 -80 -49q-32 -33 -32 -94q0 -32 11 -54q11 -25 30 -41q18 -17 44 -25q24 -9 49 -9q90 0 137 28q48 27 75 80q36 -61 89 -84q52 -24 129 -24q41 0 68 5q29 4 62 14v56q-30 -10 -64 -13q-31 -3 -44 -3q-100 0 -147 43 q-49 42 -57 142h327v58zM363 217q0 -37 -10 -54q-19 -34 -57 -59q-15 -10 -36 -17q-20 -6 -34 -6q-37 0 -63 16q-29 15 -29 64q0 37 24 60q24 21 59 31q40 10 74 13q52 2 72 2v-50zM580 478q32 0 54 -12q21 -14 33 -33q11 -19 14 -51q2 -44 2 -58h-246q6 72 43 113 q36 41 100 41z" />
<glyph unicode="&#xf0;" horiz-adv-x="583" d="M347 672q-41 27 -100 47q-57 15 -118 21v-56q42 -8 84 -18q39 -12 72 -30l-120 -70l28 -46l134 79q25 -22 47 -51q21 -33 36 -72q-29 20 -64 29q-35 8 -67 8q-51 0 -97 -19q-46 -21 -74 -54q-31 -32 -46 -78t-15 -97q0 -121 64 -181q62 -62 170 -62q107 0 172 65 q64 66 64 179v1q0 125 -32 219q-32 90 -94 150l100 59l-27 45zM126 265q0 79 36 135q34 54 116 54q41 0 71 -15q29 -17 47 -42q18 -26 31 -60q10 -38 10 -71q0 -35 -10 -72q-12 -35 -30 -59q-19 -25 -47 -39q-28 -15 -68 -15q-78 0 -117 54q-39 52 -39 130z" />
<glyph unicode="&#xf7;" horiz-adv-x="662" d="M393 584q0 24 -16 46q-19 19 -45 19q-27 0 -45 -18t-18 -47q0 -26 19 -41q17 -17 44 -17q25 0 43 17q18 15 18 41zM621 322v70h-580v-70h580zM394 130q0 23 -17 43q-18 18 -47 18q-25 0 -44 -19t-19 -43q0 -28 19 -44q18 -18 45 -18q25 0 44 19t19 44z" />
<glyph unicode="&#xf8;" horiz-adv-x="602" d="M451 279q0 -39 -11 -77q-12 -38 -31 -65q-23 -28 -52 -41q-30 -15 -62 -15t-62 15q-6 1 -11 5l210 280q2 -8 8 -24q11 -41 11 -78zM401 431l-220 -293q-21 27 -30 64q-11 33 -11 77q0 42 11 78q9 36 31 65q21 27 51 42q31 14 62 14t62 -14q25 -14 44 -33zM532 279 q0 51 -17 102q-12 32 -35 65l47 63l-44 30l-40 -53q-26 19 -54 32q-49 19 -94 19t-93 -19q-46 -20 -77 -54q-35 -38 -49 -83q-17 -47 -17 -102q0 -56 17 -101q15 -47 49 -83q6 -7 13 -13l-47 -63l48 -29l45 60q9 -6 18 -9q44 -19 93 -19t94 19q44 18 76 54q31 32 50 83 q17 49 17 101z" />
<glyph unicode="&#xfe;" horiz-adv-x="592" d="M102 -133h73v211q23 -25 57 -38q33 -15 80 -15q98 0 162 63q64 64 64 190q0 45 -11 95q-12 43 -37 83q-26 35 -65 59q-42 22 -97 22q-33 0 -61 -11q-32 -14 -46 -26q-16 -13 -30 -31q-14 -19 -16 -26v291h-73v-867zM177 261q0 43 9 82q9 40 28 68q21 30 46 47 q26 17 59 17q40 0 67 -18q24 -18 41 -47q14 -31 21 -65q7 -42 7 -72q0 -81 -37 -136q-39 -54 -106 -54q-39 0 -63 17q-26 14 -41 42q-18 26 -24 58q-7 28 -7 61z" />
<glyph unicode="&#x152;" horiz-adv-x="925" d="M490 35h392v67h-312v272h291v66h-291v238h303v67h-383v-20q-24 12 -64 23q-37 8 -72 8q-75 0 -132 -30q-59 -32 -98 -81q-40 -53 -59 -116q-20 -63 -20 -138q0 -81 20 -144q19 -67 59 -116q39 -51 98 -78q55 -29 132 -29q38 0 72 9q33 8 64 23v-21zM354 87q-52 0 -92 25 q-42 24 -71 67q-31 44 -46 98q-16 52 -16 115q0 65 16 119q14 52 46 96q31 40 71 63q41 23 91 23q36 0 74 -16q37 -19 63 -44v-489q-28 -27 -62 -42q-36 -15 -74 -15z" />
<glyph unicode="&#x153;" horiz-adv-x="846" d="M804 329q-3 37 -14 79q-11 35 -35 67q-23 29 -56 47q-36 17 -81 17q-65 0 -111 -23q-47 -25 -73 -63q-29 39 -76 63q-52 22 -101 22q-54 0 -93 -21q-41 -21 -68 -57q-28 -37 -41 -82q-14 -45 -14 -98q0 -121 56 -186q55 -67 162 -67q53 0 103 25q49 24 77 67 q80 -101 220 -92q41 0 68 5q28 4 62 14v56q-32 -10 -65 -13q-32 -3 -43 -3q-100 0 -152 43q-54 42 -62 142h337v58zM123 280q0 44 8 76q7 36 24 63q15 25 42 44q26 16 59 16q37 0 65 -17q25 -18 42 -45q16 -30 23 -63q7 -42 7 -73q0 -33 -7 -73q-7 -35 -23 -63 q-17 -28 -41 -43q-25 -16 -62 -16q-38 0 -61 16q-26 15 -43 42q-18 26 -25 62q-8 31 -8 74zM615 480q27 0 50 -13q21 -14 32 -34q12 -21 18 -48q4 -28 6 -56h-254q3 70 44 111q40 40 104 40z" />
<glyph unicode="&#x2dc;" d="M177 306h61v49q0 35 23 52q22 16 45 16q37 0 67 -24q11 -9 31.5 -26.5t30.5 -25.5q29 -29 69 -52q36 -24 90 -24q36 0 62 15t40 34q14 18 22 41q6 20 6 32v61h-61v-44q0 -25 -17 -51t-49 -26q-39 0 -69 24q-33 23 -64 52q-35 30 -72 53q-39 24 -91 24q-28 0 -52 -11 q-25 -12 -39 -28q-16 -18 -24 -39q-9 -24 -9 -45v-57z" />
<glyph unicode="&#x2000;" horiz-adv-x="413" vert-adv-y="0" />
<glyph unicode="&#x2001;" horiz-adv-x="827" vert-adv-y="0" />
<glyph unicode="&#x2002;" horiz-adv-x="413" vert-adv-y="0" />
<glyph unicode="&#x2003;" horiz-adv-x="827" vert-adv-y="0" />
<glyph unicode="&#x2004;" horiz-adv-x="275" vert-adv-y="0" />
<glyph unicode="&#x2005;" horiz-adv-x="206" vert-adv-y="0" />
<glyph unicode="&#x2006;" horiz-adv-x="137" vert-adv-y="0" />
<glyph unicode="&#x2007;" horiz-adv-x="137" vert-adv-y="0" />
<glyph unicode="&#x2008;" horiz-adv-x="103" vert-adv-y="0" />
<glyph unicode="&#x2009;" horiz-adv-x="165" vert-adv-y="0" />
<glyph unicode="&#x200a;" horiz-adv-x="45" vert-adv-y="0" />
<glyph unicode="&#x2010;" horiz-adv-x="428" d="M374 352v72h-323v-72h323z" />
<glyph unicode="&#x2011;" horiz-adv-x="428" d="M374 352v72h-323v-72h323z" />
<glyph unicode="&#x2012;" horiz-adv-x="428" d="M374 352v72h-323v-72h323z" />
<glyph unicode="&#x2013;" horiz-adv-x="408" d="M361 395h-314v-74h314v74z" />
<glyph unicode="&#x2014;" d="M930 395h-921v-74h921v74z" />
<glyph unicode="&#x2018;" horiz-adv-x="240" d="M64 692v-83h108v105h-52q-4 52 55 70l-35 41q-22 -13 -35 -23q-17 -13 -26 -27q-9 -15 -12 -40q-3 -27 -3 -43z" />
<glyph unicode="&#x2019;" horiz-adv-x="240" d="M173 731v85h-108v-105h52q3 -54 -57 -72l35 -41q15 8 35 22q13 11 26 28q8 14 13 40q4 32 4 43z" />
<glyph unicode="&#x201c;" horiz-adv-x="412" d="M91 692v-83h108v105h-52q-4 52 55 70l-35 41q-22 -13 -35 -23q-17 -13 -26 -27q-9 -15 -12 -40q-3 -27 -3 -43zM219 692v-83h108v105h-52q-4 52 55 70l-35 41q-22 -13 -35 -23q-17 -13 -26 -27q-9 -15 -12 -40q-3 -27 -3 -43z" />
<glyph unicode="&#x201d;" horiz-adv-x="412" d="M326 731v85h-108v-105h52q4 -54 -57 -72l35 -41q15 8 35 22q13 11 26 28q8 14 13 40q4 32 4 43zM198 731v85h-108v-105h52q4 -54 -57 -72l35 -41q15 8 35 22q13 11 26 28q8 14 13 40q4 32 4 43z" />
<glyph unicode="&#x2022;" d="M577 358q0 46 -34 82q-37 34 -83 34q-49 0 -83 -34t-34 -82q0 -51 34 -84q33 -34 83 -34q48 0 83 34q34 34 34 84z" />
<glyph unicode="&#x2026;" horiz-adv-x="0" />
<glyph unicode="&#x202f;" horiz-adv-x="165" vert-adv-y="0" />
<glyph unicode="&#x2039;" d="M883 799l-722 -441l722 -442v39l-652 403l652 404v37z" />
<glyph unicode="&#x203a;" d="M37 799v-37l652 -404l-652 -403v-39l722 442z" />
<glyph unicode="&#x205f;" horiz-adv-x="206" vert-adv-y="0" />
<glyph unicode="&#x20ac;" horiz-adv-x="920" d="M385 537v-368q0 -23 -12 -33q-13 -11 -32 -13q-24 -3 -40 -8q-14 -6 -14 -24v-38h351v38q0 18 -14 24q-17 5 -40 8q-20 1 -32 13q-12 10 -12 33v456q0 24 -7 31l-62 5l-200 -66v-58h114zM159 -52q-22 0 -42 7q-22 6 -34 18q-19 16 -25 40q-8 21 -8 48v596q0 18 6 42 t17 36q14 16 41 26q28 7 48 7h596q20 0 48 -7q24 -9 41 -26q10 -15 17 -36q6 -24 6 -42v-596q0 -22 -8 -48q-9 -25 -25 -40q-14 -12 -34 -18q-20 -7 -42 -7h-602zM174 799q-2 0 -11 -0.5t-14 -0.5q-9 -1 -34 -5q-19 -5 -35 -12q-17 -9 -30 -23q-20 -23 -25 -52 q-6 -28 -6 -46v-588q0 -15 1 -25q0 -14 5 -34q3 -16 13 -35q7 -17 23 -28q23 -20 51 -26q25 -7 49 -7h598q21 0 48 7q28 6 52 26q15 11 23 28q7 16 12 35q2 12 6 34q0 5 0.5 14t0.5 11v588q0 18 -6 46q-6 27 -25 52q-12 14 -29 23q-18 7 -36 12q-24 4 -34 5q-6 0 -14.5 0.5 t-10.5 0.5h-572z" />
<glyph unicode="&#x2122;" d="M225 355h59v332h135v60h-329v-60h135v-332zM611 355h44l102 266v-266h55v392h-70l-111 -301l-124 301h-59v-392h55v261z" />
</font>
</defs>
</svg>
