<?xml version="1.0" standalone="no"?>
<!DOCTYPE svg PUBLIC "-//W3C//DTD SVG 1.1//EN" "http://www.w3.org/Graphics/SVG/1.1/DTD/svg11.dtd" >
<svg xmlns="http://www.w3.org/2000/svg" xmlns:xlink="http://www.w3.org/1999/xlink" version="1.1">
<metadata></metadata>
<defs>
<font id="seoulnamsanl" horiz-adv-x="940" vert-adv-y="1000" >
<font-face units-per-em="1000" ascent="800" descent="-200" />
<missing-glyph horiz-adv-x="500" />
<glyph horiz-adv-x="0" vert-adv-y="0" />
<glyph horiz-adv-x="333" />
<glyph horiz-adv-x="330" />
<glyph unicode="!" horiz-adv-x="318" d="M189 758h-61l5 -538h50zM202 -17v87h-85v-87h85z" />
<glyph unicode="&#x22;" horiz-adv-x="418" d="M319 798h-68l12 -203h42zM169 798h-70l15 -203h42z" />
<glyph unicode="#" horiz-adv-x="647" d="M580 469h-122l59 222h-49l-58 -222h-135l58 222h-49l-57 -222h-116l-11 -43h117l-29 -111h-116l-11 -43h118l-58 -220h48l58 220h134l-56 -220h47l57 220h121l12 43h-123l30 111h120zM400 426l-29 -111h-134l28 111h135z" />
<glyph unicode="$" horiz-adv-x="548" d="M291 79v290q4 -2 9.5 -4t13 -5.5t12.5 -5.5q33 -18 52 -37q16 -18 30 -42q11 -23 11 -56q0 -34 -13 -62q-15 -27 -33 -45q-22 -20 -46 -26q-16 -5 -36 -7zM247 384v-305q-49 4 -80 32q-36 33 -36 70h-65q4 -52 53 -93q43 -38 128 -41v-85h44v85q28 1 60 11q38 12 67 33 q25 21 43 53q17 34 17 82t-21 81q-21 30 -51 51q-29 21 -77 39q-18 6 -38 14v288q47 -6 76 -33q32 -34 34 -66h65q0 14 -15 41q-17 26 -40 45q-23 17 -56 33q-27 9 -64 12v75h-44v-75q-23 -3 -52 -11q-36 -12 -62 -31q-26 -20 -41 -48q-16 -29 -16 -73q0 -52 18 -84 q16 -33 42 -51q29 -21 71 -35q10 -4 40 -14zM247 699v-273q-17 6 -33 13q-33 13 -49 32q-15 15 -24 41q-9 24 -9 60q0 35 11 57q10 21 27 40q19 16 41 24q15 5 36 6z" />
<glyph unicode="%" horiz-adv-x="865" d="M598 695h-48l-285 -638h48zM304 503q0 -67 -28 -111t-76 -44q-49 0 -74 44q-26 40 -26 111q0 70 26 113q26 44 74 44q47 0 76 -44q28 -47 28 -113zM357 503q0 39 -12 78q-14 38 -34 64q-21 24 -50 38q-30 12 -61 12q-30 0 -59 -12q-30 -14 -50 -38q-23 -27 -33 -63 q-12 -39 -12 -79q0 -41 12 -77q10 -38 33 -64q19 -24 50 -37q28 -12 59 -12t61 12q30 13 50 37q20 23 34 63q12 37 12 78zM765 247q0 -69 -27 -111q-28 -44 -76 -44q-49 0 -74 44q-26 40 -26 111q0 70 26 113q26 44 74 44q47 0 76 -44q27 -45 27 -113zM819 247q0 39 -12 78 q-14 38 -34 64q-21 24 -50 38q-30 12 -61 12q-30 0 -59 -12q-28 -12 -50 -38q-23 -27 -33 -63q-12 -39 -12 -79q0 -41 12 -77q10 -38 33 -64q21 -25 50 -37t59 -12q31 0 61 12q30 13 50 37q20 23 34 63q12 37 12 78z" />
<glyph unicode="&#x26;" horiz-adv-x="777" d="M468 628q0 -34 -23 -62q-22 -26 -46 -45q-31 -25 -60 -39q-25 29 -49 67q-25 35 -25 73q0 37 27 67q27 29 68 29q46 0 77 -27q31 -29 31 -63zM555 152l92 -109h70l-125 145q55 53 96 97l-40 33q-42 -49 -86 -95l-190 221q32 21 70 51q36 27 60 63q23 34 23 64 q-3 33 -16 57q-14 22 -38 40q-20 13 -53 23q-35 7 -58 7q-35 0 -65 -12t-52 -31q-20 -18 -30 -43q-11 -25 -8 -55t22 -62q19 -34 71 -91q-6 -4 -29 -19t-38 -24q-37 -24 -87 -71q-44 -43 -53 -98q-10 -56 14 -105q27 -55 84 -80q55 -27 115 -27q78 0 143 40q60 36 108 81z M329 418l196 -231q-50 -50 -107 -81q-61 -35 -114 -35q-47 0 -87 25q-41 23 -55 59q-21 44 -9 89t40 73q62 58 136 101z" />
<glyph unicode="'" horiz-adv-x="328" d="M167 798h-69l14 -203h42z" />
<glyph unicode="(" horiz-adv-x="384" d="M216 261v190q0 62 7 112q5 47 19 98q11 41 34 79q20 33 45 45v29q-47 -13 -83 -57q-37 -46 -53 -104q-19 -61 -23 -120q-5 -53 -5 -114v-126q0 -62 5 -113q4 -61 23 -120q16 -58 53 -103q37 -47 83 -58v29q-25 10 -45 45q-22 35 -34 79q-14 51 -19 99q-7 49 -7 110z" />
<glyph unicode=")" horiz-adv-x="384" d="M167 261q0 -49 -7 -110q-7 -50 -20 -99q-14 -45 -33 -78q-21 -34 -45 -46v-29q46 12 83 58q34 43 52 103q18 57 24 120q5 68 5 113v126q0 44 -5 114q-6 61 -24 120q-19 61 -53 104q-36 43 -82 57v-29q24 -12 45 -45q19 -34 33 -80q13 -50 20 -97q7 -63 7 -112v-190z" />
<glyph unicode="*" horiz-adv-x="406" d="M249 611h-16l8 12l19 27l36 57l-36 21l-33 -54l-13 -32l-12 -20l-12 20l-13 32l-33 54l-35 -21l34 -57l20 -27l8 -12h-17l-35 5h-62v-44h62l35 4h20l-7 -12l-24 -26l-34 -57l35 -22l33 56l15 31l10 16l10 -16l14 -31l35 -56l35 22l-36 57l-23 26l-7 12h19l34 -4h66v44 h-66z" />
<glyph unicode="+" horiz-adv-x="583" d="M518 366v45h-203v202h-48v-202h-202v-45h202v-201h48v201h203z" />
<glyph unicode="," horiz-adv-x="253" d="M170 98h-77l-21 -204h48z" />
<glyph unicode="-" horiz-adv-x="428" d="M363 362v52h-301v-52h301z" />
<glyph unicode="." horiz-adv-x="253" d="M169 -17v87h-85v-87h85z" />
<glyph unicode="/" horiz-adv-x="388" d="M339 809h-52l-239 -905h50z" />
<glyph unicode="0" horiz-adv-x="552" d="M272 80q-37 0 -68 22q-33 21 -55 64q-23 41 -30 100q-8 52 -8 122q0 65 9 125q9 61 29 99q20 42 55 67q32 23 68 23q38 0 72 -23q32 -24 54 -67q19 -39 31 -99q11 -63 11 -125q0 -57 -10 -120q-10 -58 -32 -101q-23 -43 -54 -65q-32 -22 -72 -22zM272 34q48 0 90 23 q41 21 73 69t49 119q15 68 15 143q0 73 -16 148q-17 69 -48 117q-34 49 -74 72q-43 23 -89 23q-44 0 -87 -23q-44 -24 -74 -72q-31 -48 -45 -117q-14 -66 -14 -148q0 -80 14 -144q12 -69 44 -118t75 -70q41 -22 87 -22z" />
<glyph unicode="1" horiz-adv-x="552" d="M335 45v691h-60l-149 -84v-53l151 77v-631h58z" />
<glyph unicode="2" horiz-adv-x="552" d="M492 45v47h-352q105 93 191 184q83 89 121 168q9 18 19 51q7 35 7 57q0 43 -16 81q-16 33 -44 61q-28 25 -65 39q-41 13 -77 13q-60 0 -103 -20q-42 -20 -67 -53q-40 -50 -40 -111h60q2 53 34 93q37 46 113 46q38 0 69 -17q27 -17 46 -39q15 -21 24 -46q8 -29 8 -47 q0 -44 -22 -91q-39 -84 -153 -198q-119 -119 -178 -164v-54h425z" />
<glyph unicode="3" horiz-adv-x="552" d="M495 232q0 38 -14 71q-14 27 -40 52q-39 33 -104 55q69 23 98 52q23 23 35 51q12 27 12 55q0 43 -15 76q-17 32 -46 57q-28 23 -70 35q-44 11 -81 11q-49 0 -88 -13q-40 -15 -63 -37q-22 -21 -38 -49q-15 -28 -15 -42h60q3 29 43 63q39 33 106 33q60 0 105 -33 q45 -35 45 -101q0 -58 -50 -97q-51 -39 -136 -39v-44q8 0 50 -8q38 -9 70 -24q32 -19 54 -47q23 -31 23 -75q0 -67 -46 -111q-47 -44 -125 -44q-38 0 -62 10q-29 10 -44 22q-19 14 -28 36q-9 20 -9 31h-69q0 -23 16 -53q13 -30 41 -48q24 -18 66 -30q38 -13 92 -13 q56 0 101 18q44 16 70 42q27 27 42 67q14 40 14 71z" />
<glyph unicode="4" horiz-adv-x="552" d="M523 232v46h-121v463h-62l-311 -460v-49h317v-187h56v187h121zM346 278h-261l261 392v-392z" />
<glyph unicode="5" horiz-adv-x="552" d="M497 251q0 96 -58 154q-60 57 -160 57q-66 0 -141 -48l17 275h296v47h-352l-21 -380h60q12 21 50 41q38 19 79 19q75 0 123 -42q47 -42 47 -121q0 -73 -52 -122q-51 -50 -128 -50q-42 0 -63 8q-26 6 -43 23t-22 34q-7 17 -7 26h-66q0 -19 10 -43q9 -26 33 -47 q22 -22 64 -35q39 -12 93 -12q58 0 99 14q41 13 78 47q30 28 48 72q16 45 16 83z" />
<glyph unicode="6" horiz-adv-x="552" d="M169 435v-47q47 31 110 32q35 0 68 -14q29 -15 52 -39q21 -28 31 -53q11 -31 11 -68q0 -32 -11 -63q-12 -30 -32 -54q-24 -25 -53 -37q-29 -13 -66 -13q-36 0 -63 13q-30 12 -50 35q-23 24 -36 61q-14 33 -17 90q-4 91 -1 167q0 29 7 78q4 38 23 82q18 41 54 69 q34 28 81 28q37 0 65 -11q28 -12 43 -29q13 -15 21 -36q6 -21 6 -24h70q0 13 -12 43q-13 27 -38 52q-24 22 -63 37q-42 13 -89 13q-67 0 -113 -31q-47 -32 -71 -81q-26 -51 -33 -109q-9 -60 -9 -126q0 -89 6 -140q4 -50 11 -73q14 -53 55 -97q30 -30 72 -42q38 -14 80 -14 q44 0 86 13q41 12 72 43t47 71q15 41 15 84q0 45 -16 91q-16 41 -44 69q-29 28 -67 45q-37 15 -93 15q-61 -3 -109 -30z" />
<glyph unicode="7" horiz-adv-x="552" d="M490 678v58h-433v-49h371l-284 -642h66z" />
<glyph unicode="8" horiz-adv-x="552" d="M429 562q0 -59 -45 -95q-44 -37 -115 -37q-66 0 -106 37q-41 35 -41 95q0 63 42 102q43 38 106 38q67 0 114 -38q45 -39 45 -102zM486 562q0 39 -17 73q-19 34 -44 58q-28 24 -70 40q-42 14 -85 14q-39 0 -79 -14q-41 -15 -69 -40t-43 -58t-15 -73q0 -36 14 -67 q12 -32 43 -57q28 -22 61 -32q-38 -13 -70 -39q-33 -28 -47 -61q-16 -35 -16 -79q0 -41 14 -76q13 -37 44 -65q29 -27 76 -39q43 -13 87 -13q45 0 90 12q44 12 77 40q32 28 47 66q14 37 14 75q0 42 -20 82q-22 38 -45 58q-28 23 -69 38q34 9 62 33t45 57q15 33 15 67z M270 80q-73 0 -118 42t-45 105q0 69 47 113q46 44 116 44q74 0 123 -44q47 -45 47 -113q0 -62 -46 -105q-48 -42 -124 -42z" />
<glyph unicode="9" horiz-adv-x="552" d="M380 342v47q-41 -28 -116 -28q-33 0 -62 12q-32 13 -52 37q-19 22 -30 53q-11 28 -11 64q0 39 11 68q10 30 30 54q21 24 51 39q30 14 64 14q35 0 66 -14q29 -15 50 -39q21 -21 33 -53q11 -33 15 -67q11 -97 11 -199q0 -32 -8 -77q-9 -44 -27 -83q-20 -39 -53 -65 q-35 -26 -86 -26q-36 0 -60 9q-27 10 -41 26q-17 15 -23 37q-7 20 -7 28h-69q0 -19 13 -46q12 -30 38 -53q23 -23 63 -34q36 -12 83 -12q69 0 116 30q45 28 72 78q25 49 36 110q10 65 10 121q0 87 -8 151q-9 57 -21 90q-22 45 -46 72q-30 29 -68 46q-39 15 -88 15 q-48 0 -86 -15q-40 -17 -69 -46q-27 -30 -42 -70q-16 -41 -16 -88q0 -48 14 -87q13 -42 42 -69q31 -31 69 -43q36 -13 87 -13q76 0 115 26z" />
<glyph unicode=":" horiz-adv-x="409" d="M247 119v87h-85v-87h85zM247 514v87h-85v-87h85z" />
<glyph unicode=";" horiz-adv-x="409" d="M244 206h-78l-20 -204h47zM247 514v87h-85v-87h85z" />
<glyph unicode="&#x3c;" horiz-adv-x="592" d="M112 338l400 -238v60l-350 207l350 206v59l-400 -237v-57z" />
<glyph unicode="=" horiz-adv-x="592" d="M517 473v45h-444v-45h444zM517 261v45h-444v-45h444z" />
<glyph unicode="&#x3e;" horiz-adv-x="592" d="M518 338v57l-400 237v-59l350 -206l-350 -207v-60z" />
<glyph unicode="?" horiz-adv-x="468" d="M417 587q0 40 -19 73q-20 31 -49 51q-31 20 -67 29q-38 9 -72 9q-24 0 -46 -3q-40 -8 -43 -8q-26 -6 -40 -9q-6 -2 -12.5 -3.5t-9.5 -2.5t-4 -1v-51q19 5 25 7q3 1 14.5 4.5t20.5 5.5q19 5 47 10q21 3 46 3q27 0 56 -8q26 -9 47 -24q19 -16 33 -38q13 -26 13 -47 q0 -25 -15 -52q-17 -30 -33 -49q-28 -32 -41 -44q-5 -5 -18.5 -17t-19.5 -18q-33 -33 -48 -60q-17 -28 -17 -84v-65h52v45q0 33 5 48q2 13 13 35q10 17 21 29q4 5 24 29l8.5 8.5l13 13l13.5 13.5q26 24 45 47q20 21 40 58q17 32 17 66zM235 -17v87h-85v-87h85z" />
<glyph unicode="@" horiz-adv-x="1000" d="M908 379q4 123 -57 217q-64 94 -163 128q-70 22 -131 25q-68 2 -127 -16q-60 -19 -109 -50q-52 -32 -99 -86q-50 -59 -76 -120q-29 -62 -43 -125q-12 -60 -7 -125q3 -65 27 -116q46 -103 148 -157q101 -54 232 -54q79 0 136 17q58 15 98 38q37 23 60 42q19 17 26 21 l-20 24q-2 -2 -29 -20q-28 -20 -60 -36q-35 -19 -92 -32q-52 -13 -116 -13q-128 0 -211 52q-86 52 -121 131q-21 45 -24 103q-4 56 9 110q9 46 32 105q20 54 67 115q32 42 81 78q51 35 105 52q54 18 113 18q56 0 119 -22q89 -32 142 -121q52 -90 46 -182q-2 -34 -15 -83 q-14 -49 -35 -82q-16 -26 -41 -51q-25 -24 -51 -40q-57 -31 -92 -19q-35 10 -14 69q29 77 73 188q12 31 25.5 65.5t21.5 53.5t11 29h-55l-27 -56q-16 36 -43 56q-30 21 -76 21q-50 0 -98 -34q-47 -36 -83 -83q-42 -56 -57 -108q-16 -54 -18 -87q-1 -42 9 -70q9 -31 29 -51 q17 -18 41 -26q21 -8 48 -8q24 0 45 6q16 4 30 11q31 14 65 45v-25q0 -22 19 -37t54 -11q48 5 92 28q83 42 132 121q48 78 54 177zM633 410q0 -15 -10 -62q-12 -45 -39 -105q-30 -67 -69 -101q-41 -35 -89 -35q-17 0 -25 4q-12 3 -24 12q-16 12 -24 35q-10 23 -4 58 q5 39 19 74q12 36 36 75q35 57 78 92t79 35q33 0 53 -26q19 -29 19 -56z" />
<glyph unicode="A" horiz-adv-x="650" d="M103 45l76 222h290l75 -222h63l-247 691h-74l-246 -691h63zM452 316h-256l129 376z" />
<glyph unicode="B" horiz-adv-x="602" d="M539 235q0 77 -51 122q-53 45 -124 51q71 18 109 60q36 42 36 91q0 87 -60 132t-164 45h-194v-691h205q26 0 46 1q24 0 49 7q60 15 105 61q43 45 43 121zM149 91v294h130q16 0 50 -4q21 -4 38 -9q59 -19 86 -53q27 -36 27 -84t-27 -84q-29 -38 -86 -53q-17 -5 -43 -5 q-19 -2 -45 -2h-130zM450 559q0 -53 -38 -86q-38 -35 -99 -41q-8 -1 -30 -1h-134v259h107q4 0 13.5 -0.5t15.5 -0.5q20 -2 28 -2q60 -6 99 -36q38 -33 38 -92z" />
<glyph unicode="C" horiz-adv-x="653" d="M598 562q0 33 -19 71q-20 35 -51 61q-34 26 -74 41q-44 14 -90 14q-77 0 -135 -29t-97 -76q-40 -47 -58 -110t-18 -133t16 -134q15 -65 58 -119q40 -54 99 -84q56 -31 141 -31q75 -3 141 16q20 5 40 14q16 7 20 9v54q-14 -10 -67 -28q-53 -19 -115 -19q-87 0 -138 35 q-54 34 -84 86t-39 108q-10 51 -10 93q0 62 19 123q18 62 52 100q36 40 81 60q48 19 95 19q36 -4 62 -11q27 -8 52 -28q22 -16 40 -46q15 -28 15 -56h64z" />
<glyph unicode="D" horiz-adv-x="659" d="M149 688h92q13 0 61 -2q35 -3 56 -9q31 -9 61 -28q30 -21 57 -57q27 -41 43 -83q17 -49 17 -120q0 -68 -17 -117q-17 -46 -43 -84q-26 -37 -60 -58q-35 -23 -58 -27q-17 -4 -56 -7q-36 -3 -61 -3h-92v595zM91 736v-691h153q30 0 68 3t64 9q38 9 79 37q40 28 72 67 q29 37 49 97q19 60 19 131q0 72 -19 134q-20 58 -49 96q-34 40 -72 68q-41 27 -79 36q-21 5 -64 10q-39 3 -68 3h-153z" />
<glyph unicode="E" horiz-adv-x="547" d="M477 45v48h-327v290h304v48h-304v257h317v48h-376v-691h386z" />
<glyph unicode="F" horiz-adv-x="521" d="M467 688v48h-376v-691h59v338h306v48h-306v257h317z" />
<glyph unicode="G" horiz-adv-x="682" d="M598 562q0 33 -19 71q-20 35 -51 61q-34 26 -74 41q-44 14 -90 14q-77 0 -135 -29t-97 -76q-40 -47 -58 -110t-18 -132q0 -72 17 -133q15 -67 57 -119q39 -54 99 -84q55 -32 141 -32q69 0 123 12q55 11 98 34v323h-233v-49h175v-245q-14 -10 -57 -19q-40 -10 -87 -10 q-85 0 -139 36q-57 37 -83 86q-30 52 -39 108q-10 51 -10 92q0 62 19 123q18 61 52 99q35 40 81 60q48 19 95 19q36 -4 62 -11q27 -8 52 -28q22 -16 40 -46q15 -28 15 -56h64z" />
<glyph unicode="H" horiz-adv-x="660" d="M567 45v691h-59v-307h-358v307h-59v-691h59v336h358v-336h59z" />
<glyph unicode="I" horiz-adv-x="252" d="M155 45v691h-59v-691h59z" />
<glyph unicode="J" horiz-adv-x="390" d="M298 192v544h-59v-538q0 -28 -10 -51q-11 -25 -25 -36q-16 -15 -31 -20q-18 -8 -31 -9q-6 -1 -17 -1h-15q-30 0 -51 4q-26 3 -34 7v-50q11 -4 31 -5q19 -3 47 -3q63 0 97 14t59 38q19 19 30 50q9 28 9 56z" />
<glyph unicode="K" horiz-adv-x="592" d="M553 45l-349 362l321 329h-67l-310 -310v310h-57v-691h57v340l330 -340h75z" />
<glyph unicode="L" horiz-adv-x="513" d="M478 45v48h-328v643h-59v-691h387z" />
<glyph unicode="M" horiz-adv-x="834" d="M741 45v691h-96l-228 -616l-232 616h-94v-691h53v630l243 -630h56l245 629v-629h53z" />
<glyph unicode="N" horiz-adv-x="660" d="M567 45v691h-55v-631l-344 631h-77v-691h55v629l342 -629h79z" />
<glyph unicode="O" horiz-adv-x="743" d="M621 390q0 -64 -18 -121q-20 -60 -52 -103q-35 -44 -81 -65q-46 -23 -101 -23q-54 0 -99 23q-48 21 -83 65q-32 43 -49 103q-18 57 -18 121t18 124q17 60 49 102q34 42 83 66q48 23 99 23q52 0 101 -23q46 -24 81 -66q32 -42 52 -102q18 -60 18 -124zM680 390 q0 71 -22 143q-24 68 -67 118q-42 48 -100 73q-63 25 -122 25q-60 0 -121 -25q-61 -26 -101 -73q-43 -49 -65 -117q-22 -67 -22 -144q0 -76 22 -141q21 -70 65 -118q40 -48 101 -72q57 -25 121 -25q63 0 122 25q58 24 100 72q43 49 67 118q22 69 22 141z" />
<glyph unicode="P" horiz-adv-x="583" d="M531 537q0 55 -23 95q-24 39 -59 61q-37 21 -80 33q-48 10 -91 10h-187v-691h59v644h124q36 0 70 -9q31 -9 61 -25q28 -17 48 -43q19 -30 19 -75q0 -36 -19 -68q-19 -29 -47 -48q-27 -18 -60 -24q-32 -7 -65 -7h-71v-51h72q46 0 89 10q43 9 78 33q35 23 59 63 q23 40 23 92z" />
<glyph unicode="Q" horiz-adv-x="764" d="M537 83q30 19 54 48q43 49 67 118q22 69 22 141q0 71 -22 143q-24 68 -67 118q-42 48 -100 73q-63 25 -122 25q-60 0 -121 -25q-61 -26 -101 -73q-43 -49 -65 -117q-22 -67 -22 -144q0 -76 22 -141q21 -70 65 -118q40 -48 101 -72q57 -25 121 -25q27 0 50 4h311v54 q-42 -11 -109 -9h-84zM621 390q0 -64 -18 -121q-20 -60 -52 -103q-35 -44 -81 -65q-46 -23 -101 -23q-54 0 -99 23q-48 21 -83 65q-32 43 -49 103q-18 57 -18 121t18 124q17 60 49 102q34 42 83 66q48 23 99 23q52 0 101 -23q46 -24 81 -66q32 -42 52 -102q18 -60 18 -124z " />
<glyph unicode="R" horiz-adv-x="594" d="M531 543q0 55 -23 92q-23 33 -59 58q-36 21 -79 33q-50 10 -92 10h-187v-691h59v644h124q33 0 70 -8q31 -9 61 -25q26 -16 48 -44q19 -30 19 -69q0 -36 -19 -66q-20 -31 -47 -46q-28 -17 -60 -23q-31 -8 -64 -8h-72v-51h78q62 0 119 -74q48 -63 75 -230h64 q-24 109 -57 197q-36 88 -119 130q50 12 81 32q34 21 57 58t23 81z" />
<glyph unicode="S" horiz-adv-x="532" d="M480 225q-3 43 -18 73q-15 26 -38 49q-27 24 -63 43q-41 21 -117 60q-54 27 -86 55q-43 36 -43 81q0 56 44 88q43 31 103 31q58 0 100 -9q45 -12 72 -22v47q-21 5 -61 15q-25 5 -49 9q-36 4 -52 4q-95 0 -156 -41q-60 -42 -60 -128q0 -72 72 -126q35 -27 72 -44 q42 -22 71 -35q44 -23 93 -59q19 -15 38 -40q18 -27 18 -63q0 -38 -20 -63q-20 -26 -44 -40q-28 -16 -56 -22q-31 -7 -66 -7q-33 0 -62 7q-37 7 -57 13q-48 14 -52 16v-58q19 -5 70 -15q44 -10 92 -10q119 0 187 47q68 45 68 144z" />
<glyph unicode="T" horiz-adv-x="603" d="M559 688v48h-515v-48h228v-643h59v643h228z" />
<glyph unicode="U" horiz-adv-x="673" d="M335 82q-55 0 -91 20q-38 17 -58 50q-22 35 -28 72q-8 35 -8 77v435h-59v-436q0 -43 9 -91q8 -48 36 -87q27 -39 76 -63q47 -25 123 -25t125 25q48 24 75 63t36 87t9 91v436h-58v-435q0 -38 -9 -77q-11 -39 -30 -72q-21 -31 -58 -52q-39 -21 -90 -18z" />
<glyph unicode="V" horiz-adv-x="644" d="M600 736h-60l-218 -624l-222 624h-58l241 -691h75z" />
<glyph unicode="W" horiz-adv-x="874" d="M827 736h-54l-124 -628l-181 628h-65l-180 -628l-124 628h-53l137 -691h77l176 617l176 -617h76z" />
<glyph unicode="X" horiz-adv-x="616" d="M50 45h64l193 311l195 -311h64l-227 362l204 329h-64l-172 -277l-174 277h-64l206 -329z" />
<glyph unicode="Y" horiz-adv-x="604" d="M303 412l-195 324h-62l227 -374v-317h59v317l225 374h-62z" />
<glyph unicode="Z" horiz-adv-x="570" d="M530 45v48h-420l396 585v58h-437v-48h377l-394 -587v-56h478z" />
<glyph unicode="[" horiz-adv-x="359" d="M303 -96v40h-110v825h110v40h-164v-905h164z" />
<glyph unicode="\" horiz-adv-x="388" d="M49 809l241 -905h50l-239 905h-52z" />
<glyph unicode="]" horiz-adv-x="359" d="M221 -96v905h-166v-40h110v-825h-110v-40h166z" />
<glyph unicode="^" horiz-adv-x="477" d="M208 805l-135 -210h51l116 174l112 -174h52l-133 210h-63z" />
<glyph unicode="_" horiz-adv-x="508" d="M493 -77v42h-477v-42h477z" />
<glyph unicode="`" horiz-adv-x="309" d="M201 590l-55 150h-67l79 -150h43z" />
<glyph unicode="a" horiz-adv-x="538" d="M452 45v324q0 68 -48 113q-50 45 -142 45q-46 0 -83 -12q-38 -13 -63 -32t-34 -40q-11 -22 -11 -37h68q0 31 37 56q36 24 86 24q37 0 68 -13q26 -13 42 -32q12 -20 18 -40q5 -23 5 -35v-54h-100q-27 0 -65 -5q-44 -7 -65 -14q-46 -15 -76 -51q-31 -37 -31 -89 q0 -30 10 -50q10 -24 28 -38q17 -14 44 -22q24 -9 43 -9q36 0 65 5q35 5 66 19q44 19 81 53v-66h57zM395 223q0 -37 -13 -60q-26 -39 -69 -63q-23 -13 -50 -19q-29 -6 -44 -6q-45 0 -73 21q-30 21 -30 67q0 45 43 75q36 22 83 30q40 6 77 6h76v-51z" />
<glyph unicode="b" horiz-adv-x="570" d="M199 499v-41q39 24 96 27q32 0 65 -14q27 -14 50 -43q20 -28 32 -68q11 -41 11 -80q0 -40 -11 -79q-13 -43 -32 -67q-20 -30 -50 -44q-32 -15 -65 -15q-31 0 -61 15q-32 14 -51 42q-20 27 -31 68q-11 36 -11 78v458h-55v-451q0 -62 15 -110q15 -50 42 -79q28 -33 65 -47 q35 -17 89 -17q48 0 89 17q40 14 68 47q25 29 42 79q15 48 15 110q0 44 -13 93q-13 44 -38 78q-25 33 -67 52q-44 19 -90 19q-60 -1 -104 -28z" />
<glyph unicode="c" horiz-adv-x="538" d="M474 381q0 25 -16 57q-18 29 -40 47q-25 18 -59 31q-35 11 -74 11q-55 0 -97 -18q-43 -18 -71 -49q-31 -32 -44 -74q-15 -44 -15 -95q0 -65 21 -113q20 -50 51 -79q24 -25 66 -42q42 -19 81 -22q49 -6 97 3q46 6 84 27v36q-20 -12 -60 -18q-39 -7 -68 -7q-36 0 -61 7 q-29 6 -43 13q-37 18 -59 47q-23 27 -31 54q-10 22 -13 48q-4 20 -4 45q0 92 47 143q46 52 117 52q65 0 98 -36q31 -37 31 -68h62z" />
<glyph unicode="d" horiz-adv-x="570" d="M369 459v39q-45 29 -105 29q-47 0 -87 -20q-42 -21 -67 -53q-27 -33 -39 -77q-13 -43 -13 -92q0 -64 16 -109q16 -50 43 -79q24 -32 64 -47q36 -16 78 -16q53 0 97 25q45 24 72 78v-92h54v691h-54v-458q0 -38 -13 -77t-33 -66q-23 -29 -49 -43q-28 -17 -62 -17 q-32 0 -62 15q-32 15 -50 45q-20 26 -31 66q-12 37 -12 79q0 40 12 79q11 39 31 66t50 44q32 16 61 16q56 0 99 -26z" />
<glyph unicode="e" horiz-adv-x="538" d="M119 307q3 78 47 127q46 52 117 52q37 0 66 -15q27 -15 42 -39q25 -47 25 -125h-297zM120 266h354v49q0 99 -43 151q-25 29 -63 46q-39 15 -85 15q-55 0 -96 -18q-42 -18 -70 -49q-31 -32 -44 -74q-15 -44 -15 -95q0 -65 21 -113q20 -50 51 -79q24 -26 65 -43 q39 -18 82 -21q49 -6 97 3q46 6 84 27v36q-20 -12 -60 -18q-39 -7 -68 -7q-36 0 -61 7q-29 6 -43 13q-39 19 -58 46q-22 27 -32 55q-10 22 -13 48q-3 9 -3 21z" />
<glyph unicode="f" horiz-adv-x="398" d="M379 697v41q-5 0 -32 5q-32 4 -53 4q-58 -1 -89 -17q-32 -17 -48 -40q-16 -26 -19 -59q-4 -29 -4 -72v-44h-91v-41h91v-429h59v429h149v41h-149v66q0 29 3 48t13 36q16 24 35 32q20 9 53 9q21 0 55 -4z" />
<glyph unicode="g" horiz-adv-x="570" d="M482 79v436h-54v-80q-57 92 -165 92q-46 0 -88 -20q-45 -22 -67 -53q-26 -34 -38 -72q-14 -38 -14 -87q0 -63 16 -104q15 -43 43 -74q26 -32 65 -47q36 -16 78 -16q35 0 65 11q30 10 46 23v33q-45 -26 -100 -26q-31 0 -61 15q-32 16 -50 44q-20 27 -31 62q-12 32 -12 74 q0 44 11 74q10 29 32 61q20 27 50 44q32 16 61 16q32 0 64 -17q29 -17 50 -43q21 -31 33 -61q12 -33 12 -71v-214q0 -11 -3 -37q-6 -52 -50 -87q-45 -36 -122 -36q-47 0 -94 10q-52 9 -63 16v-53q13 -7 64 -13q43 -7 82 -7q114 0 177 51t63 156z" />
<glyph unicode="h" horiz-adv-x="570" d="M482 45v318q0 84 -48 126q-44 38 -123 38q-60 0 -105 -33q-38 -27 -65 -86v328h-55v-691h55v205q0 23 2 36q1 17 6 37q15 67 58 113q41 45 97 45q62 0 90 -34q33 -41 33 -91v-311h55z" />
<glyph unicode="i" horiz-adv-x="241" d="M156 658v78h-75v-78h75zM149 45v470h-59v-470h59z" />
<glyph unicode="j" horiz-adv-x="260" d="M181 658v78h-75v-78h75zM171 43v472h-55v-500q0 -66 -72 -90q-24 -9 -65 -7v-47q25 0 67 6q43 6 69 25q28 17 43 53q13 36 13 88z" />
<glyph unicode="k" horiz-adv-x="518" d="M459 45l-262 256l251 214h-71l-236 -196v417h-55v-691h55v240l249 -240h69z" />
<glyph unicode="l" horiz-adv-x="241" d="M149 45v691h-59v-691h59z" />
<glyph unicode="m" horiz-adv-x="817" d="M729 45v313q0 90 -42 130q-42 39 -104 39q-59 0 -105 -40q-28 -25 -46 -63q-23 52 -49 74q-37 29 -96 29q-50 0 -92 -33q-39 -30 -56 -77v98h-53v-470h53v200q0 40 8 80q6 34 21 71q17 38 45 59q28 20 63 20q33 0 57 -12q21 -12 33 -38q10 -27 14 -53q3 -31 3 -56v-271 h49v201q0 22 2 34q0 11 4 39q9 70 47 114q36 42 88 42q29 0 53 -12q22 -11 34 -38q8 -20 13 -52q3 -33 3 -57v-271h53z" />
<glyph unicode="n" horiz-adv-x="570" d="M482 45v318q0 84 -48 126q-44 38 -123 38q-62 0 -107 -33q-44 -32 -63 -82v103h-55v-470h55v205q0 23 2 36q1 17 6 37q18 76 59 117q39 41 96 41q62 0 90 -34q33 -41 33 -91v-311h55z" />
<glyph unicode="o" horiz-adv-x="582" d="M291 34q101 0 167 69t66 178q0 107 -65 177q-66 69 -168 69q-103 0 -167 -69q-66 -70 -66 -177q0 -109 66 -178t167 -69zM291 74q-79 0 -125 61q-48 60 -48 146q0 82 48 145q47 61 125 61q77 0 126 -61q47 -64 47 -145q0 -85 -47 -146q-48 -61 -126 -61z" />
<glyph unicode="p" horiz-adv-x="570" d="M199 68q48 -32 109 -30q42 0 80 16q37 15 63 47q25 29 43 78q17 48 17 108q0 45 -14 90q-16 44 -39 76q-27 33 -66 54q-43 20 -89 20q-105 0 -162 -99v87h-55v-644h55v413q0 39 12 75q13 38 32 64t50 45q29 17 60 17q32 0 64 -16q29 -18 49 -44q22 -31 33 -65 q12 -38 12 -78t-11 -79q-11 -36 -32 -65q-20 -28 -51 -43q-29 -16 -64 -16q-52 0 -96 32v-43z" />
<glyph unicode="q" horiz-adv-x="570" d="M369 66v43q-47 -31 -95 -31q-35 0 -64 16q-31 15 -51 43q-21 27 -31 65q-12 37 -12 79q0 41 12 78q11 34 33 65q18 25 50 44q30 16 63 16q30 0 61 -17q28 -17 49 -45q21 -30 32 -64q12 -36 12 -75v-413h55v644h-55v-87q-58 99 -162 99q-48 0 -88 -20q-41 -21 -67 -54 q-25 -32 -39 -76q-14 -41 -14 -90q0 -64 17 -108q17 -49 43 -78q24 -32 64 -47q36 -16 79 -16q56 -1 108 29z" />
<glyph unicode="r" horiz-adv-x="398" d="M363 471v56q-71 -3 -120 -29q-65 -34 -103 -96v113h-54v-470h54v196q0 46 9 89q9 38 35 66q27 30 55 44q30 15 66 24q40 7 58 7z" />
<glyph unicode="s" horiz-adv-x="449" d="M397 163q0 41 -26 72q-27 29 -61 45q-20 9 -81 32q-46 15 -70 29t-35 29q-12 14 -12 38q0 31 31 55q30 24 80 24q70 0 142 -26v47q-67 19 -131 19q-80 0 -128 -33q-48 -34 -48 -93q0 -42 25 -67q26 -29 52 -40q33 -17 78 -31q50 -19 66 -26q25 -14 44 -32q18 -19 18 -47 q0 -41 -50 -67q-33 -15 -98 -15q-39 0 -88 15l-50 14v-49q78 -22 138 -22q55 0 95 10q41 9 65 27q21 15 33 39q11 25 11 53z" />
<glyph unicode="t" horiz-adv-x="375" d="M328 474v41h-145v155l-55 -27v-128h-87v-41h87v-321q0 -65 32 -91q29 -28 102 -28q44 0 63 3v43q-17 -4 -52 -4q-27 0 -48 9q-22 8 -31 28q-11 19 -11 41v320h145z" />
<glyph unicode="u" horiz-adv-x="570" d="M86 515v-318q0 -85 48 -126q41 -38 123 -38q59 0 106 33q43 30 64 84v-105h55v470h-54v-205q0 -11 -2 -35q-4 -26 -6 -38q-18 -76 -59 -117t-97 -41q-65 0 -90 34q-32 38 -32 91v311h-56z" />
<glyph unicode="v" horiz-adv-x="516" d="M480 515h-52l-162 -414l-173 414h-56l202 -470h56z" />
<glyph unicode="w" horiz-adv-x="710" d="M672 515h-48l-107 -403l-140 403h-45l-138 -404l-106 404h-51l127 -470h55l135 391l139 -391h57z" />
<glyph unicode="x" horiz-adv-x="510" d="M447 515h-58l-133 -181l-131 181h-60l162 -222l-182 -248h59l152 208l151 -208h59l-180 249z" />
<glyph unicode="y" horiz-adv-x="500" d="M407 515l-151 -391l-161 391h-59l196 -454l-73 -190h55l249 644h-56z" />
<glyph unicode="z" horiz-adv-x="478" d="M426 45v41h-320l306 376v53h-341v-41h290l-309 -382v-47h374z" />
<glyph unicode="{" horiz-adv-x="458" d="M137 343q42 -13 78 -42q34 -31 34 -74q0 -29 -9 -58q-10 -34 -14 -57q-3 -30 -3 -58q0 -32 13 -59q13 -26 35 -45q22 -20 44 -30q24 -14 48 -18q24 -6 33 -5v19q-47 11 -70 40q-26 28 -34 59q-9 34 -5 68q3 35 9 64q5 29 3 59q-3 31 -14 54q-19 39 -52 65q-35 24 -54 32 q23 9 54 33q31 23 52 65q11 21 14 54q2 29 -3 59q-6 30 -9 63q-6 32 5 70q10 30 34 58q23 28 70 40v19q-13 0 -33 -4q-20 -5 -48 -19q-24 -12 -44 -29q-22 -21 -35 -46q-13 -29 -13 -59q0 -31 3 -58q4 -25 14 -57q9 -30 9 -58q0 -45 -34 -74q-36 -30 -78 -42v-29z" />
<glyph unicode="|" horiz-adv-x="342" d="M195 -83v879h-49v-879h49z" />
<glyph unicode="}" horiz-adv-x="458" d="M321 343v29q-45 12 -78 42q-34 28 -34 74q0 28 9 58q5 19 13 57q4 38 4 59q0 28 -15 58q-13 27 -34 46q-17 15 -44 29q-28 14 -47 19q-21 4 -33 4v-19q44 -12 69 -40q24 -30 33 -59q10 -35 7 -69q-3 -17 -10 -63q-6 -30 -3 -58q0 -27 13 -55q16 -36 50 -61q31 -25 67 -37 q-37 -15 -65 -34q-31 -21 -51 -62q-13 -27 -14 -55q-3 -30 3 -59q7 -46 10 -63q3 -35 -7 -70q-9 -28 -33 -57q-26 -31 -69 -41v-19q8 -1 33 5q23 5 47 18q24 11 44 30q20 17 34 45q15 29 15 59q0 18 -4 58q-10 45 -13 57q-9 28 -9 58q0 44 34 74q33 29 78 42z" />
<glyph unicode="~" horiz-adv-x="592" d="M531 445h-43q0 -48 -21 -78q-22 -31 -67 -31q-27 0 -47 16q-17 12 -51 46q-32 34 -58 48q-29 13 -59 13q-52 0 -88 -42q-36 -43 -36 -113h42q0 52 22 81q21 30 62 30q23 0 44 -12q18 -12 58 -52q28 -34 58 -47q27 -12 56 -12q60 0 94 44q34 43 34 109z" />
<glyph d="M914 394v55h-139l56 272h-70l-54 -272h-133l-66 272h-77l-66 -272h-133l-54 272h-69l56 -272h-138v-55h149l71 -349h85l84 349h107l84 -349h86l71 349h150zM696 394l-49 -248l-60 248h109zM352 394l-60 -248l-49 248h109zM430 449l40 166l40 -166h-80z" />
<glyph horiz-adv-x="408" d="M361 395h-314v-74h314v74z" />
<glyph d="M464 802q-94 0 -176 -35q-80 -35 -142 -97q-62 -60 -95 -140q-35 -79 -35 -168q0 -97 35 -176q33 -82 93 -142q60 -63 139 -95q76 -35 168 -35q94 0 176 35q81 33 144 93q62 61 97 139q36 78 36 168q0 91 -35 176q-35 79 -97 144q-61 61 -140 97q-81 36 -168 36zM632 158 v62q-32 -19 -62 -25q-31 -7 -60 -7q-32 0 -50 5q-22 3 -33 10q-28 14 -46 37q-17 19 -26 43q-11 23 -12 46q-3 21 -3 42q0 68 37 105q36 36 93 36q23 0 47 -6q24 -8 32 -19q10 -14 13 -27q3 -17 3 -34h80q0 31 -8 57q-9 24 -24 42q-26 25 -63 37q-42 10 -78 10 q-100 0 -155 -60q-56 -59 -56 -153q0 -59 19 -101q17 -43 48 -74q22 -23 59 -37q39 -16 78 -19q41 -4 86 3q42 6 81 27zM463 753q74 0 147 -31q68 -31 123 -83l3 -3q51 -56 84 -129q31 -78 31 -157q0 -80 -31 -151q-32 -73 -85 -123q-52 -52 -127 -83q-74 -30 -156 -30 t-150 31q-73 31 -122 83q-51 51 -82 125q-30 72 -30 156q0 81 30 153t83 125q52 52 126 86q74 31 156 31z" />
<glyph d="M225 368h59v332h135v60h-329v-60h135v-332zM611 368h44l102 266v-266h55v392h-70l-111 -301l-124 301h-59v-392h55v261z" />
<glyph unicode="&#x85;" horiz-adv-x="858" d="M765 408h-100v-100h100v100zM479 408h-100v-100h100v100zM193 408h-100v-100h100v100z" />
<glyph unicode="&#xa1;" d="M426 -48h64l-9 549h-46zM416 748v-91h86v91h-86z" />
<glyph unicode="&#xa2;" d="M657 114q-32 -10 -65 -13q-32 -3 -43 -3q-31 0 -70 6q-40 4 -58 15h-2l-1 1l136 353l9 -6q1 -1 2 -2.5t2.5 -2.5t2.5 -2q11 -14 16 -33q3 -19 3 -37h84q0 34 -9 61q-11 26 -28 46q-10 10 -27 22q-18 11 -31 16l22 57h-59l-17 -44q-8 0 -24 2q-4 0 -12 0.5t-12 0.5 q-115 0 -178 -68q-64 -68 -64 -177q0 -68 22 -116q20 -49 55 -84q5 -6 15 -13q7 -7 17 -12l-37 -97h59l29 74q31 -10 63 -14q27 -5 70 -5q41 0 68 5q28 4 62 14v56zM473 492q2 0 6.5 -0.5t7.5 -0.5q8 -2 14 -2l-129 -333q-38 36 -47 82q-11 41 -11 83q0 81 45 126t114 45z " />
<glyph unicode="&#xa3;" d="M683 216q0 -17 -2 -37q-3 -18 -7 -26q-7 -13 -15 -19q-10 -8 -22 -13q-12 -6 -36 -6q-16 -1 -34 -1h-243q4 9 12 39q6 25 12 70q6 39 6 71q0 19 -4 69h254v60h-262q-8 36 -9 83q-3 46 12 82q18 44 55 77q36 31 91 31q52 0 92 -38q37 -38 46 -93h72q-5 39 -21 75 q-18 36 -45 63t-63 45q-40 16 -80 16q-70 0 -129 -37q-59 -38 -86 -110q-18 -46 -17 -94q0 -54 7 -100h-58v-60h65q6 -35 6 -67q0 -34 -6 -76q-7 -42 -15 -70q-9 -30 -12 -35h-72v-67h397q48 0 73 5q28 5 42 13q15 8 31 26q14 16 23 36q5 17 9 38q4 28 4 50h-71z" />
<glyph unicode="&#xa4;" horiz-adv-x="759" d="M199 218l-81 -84l32 -31l81 81q30 -27 68 -39q35 -13 78 -13q42 0 77 14q36 12 70 40l85 -83l31 31l-84 86q25 31 38 66q13 37 13 77q0 38 -14 77q-14 35 -41 69l88 90l-32 31l-87 -88q-30 22 -69 38q-37 14 -75 14q-39 0 -75 -14q-38 -16 -66 -37l-86 87l-32 -31l84 -88 q-27 -33 -39 -69q-13 -36 -13 -79q0 -42 12 -78q11 -38 37 -67zM565 363q0 -39 -15 -74q-17 -36 -40 -61q-27 -26 -60 -39q-34 -15 -73 -15q-40 0 -73 15q-34 13 -60 39t-39 61q-14 32 -14 74q0 37 15 73q13 32 38 60q27 25 60 41q33 15 73 15q37 0 72 -15q32 -16 60 -41 q24 -27 41 -61q15 -35 15 -72z" />
<glyph unicode="&#xa5;" d="M200 205h228v-157h80v157h217v69h-217v61h217v69h-200l222 354h-87l-192 -309l-187 309h-90l219 -354h-210v-69h228v-61h-228v-69z" />
<glyph unicode="&#xa7;" horiz-adv-x="386" d="M333 288q12 33 -3 71q-16 34 -38 63q-19 22 -50 52q-28 24 -52 49q-26 24 -43 54q-17 25 -17 64q0 38 19 56q17 17 41 20q23 2 42 -7t16 -24q-4 -14 0 -27q2 -13 13 -23q8 -11 19 -11q10 -3 22 9q12 9 10 27q-3 17 -18 36q-13 16 -40 31q-29 13 -60 13q-46 -1 -80 -32 q-33 -33 -30 -95q0 -28 8 -47q5 -19 16 -39q10 -20 16 -27q7 -10 14 -16q-11 -6 -14 -6l-14 -7q-14 -8 -20 -13q-12 -9 -18 -22q-11 -23 -8 -47q2 -24 13 -46q13 -26 30 -46q21 -26 38 -42q28 -32 43 -46q37 -43 40 -46q17 -27 25 -50q8 -28 2 -57q-7 -30 -25 -40 q-20 -13 -38 -13q-18 -2 -34 8q-16 7 -13 21q2 5 0 17q-4 14 -8 20q-5 8 -14 15q-10 5 -22 2t-15 -14q-5 -13 1 -28q5 -19 20 -34q13 -18 40 -25q24 -9 49 -8q26 0 47 10q21 9 39 30q16 19 24 50q9 32 6 60q-5 31 -13 49q-8 22 -16 34q-13 18 -16 23q5 1 10.5 3t6.5 2 q5 0 14 6q10 5 20 15q8 8 15 28zM260 376q12 -15 21 -33q8 -17 10 -36q0 -19 -9 -31q-11 -14 -38 -14q-19 0 -46 18q-28 19 -57 55q-16 17 -23 38q-9 20 -9 38t12 30q12 11 39 9q19 -3 46 -21q24 -19 54 -53z" />
<glyph unicode="&#xa8;" horiz-adv-x="560" d="M474 802h-86v-85h86v85zM172 802h-86v-85h86v85z" />
<glyph unicode="&#xa9;" horiz-adv-x="0" />
<glyph unicode="&#xaa;" horiz-adv-x="686" d="M134 242h418v39h-418v-39zM453 360h54v263q0 53 -41 89q-42 36 -112 36q-34 0 -66 -10q-32 -11 -50 -25q-21 -15 -30 -33q-11 -16 -11 -25h64q0 21 25 39q26 16 68 16q31 0 52 -9q20 -11 30 -24q11 -18 14 -29q3 -15 3 -28v-39q-35 5 -81 2q-47 -5 -87 -19t-70 -43 q-29 -29 -29 -75q0 -24 11 -39q8 -17 25 -30q13 -13 37 -20q21 -6 42 -6q57 0 90 16q39 18 56 44h6v-51zM453 503q0 -49 -35 -81q-36 -33 -88 -33q-34 0 -59 16q-26 14 -26 49q0 37 23 57q22 19 54 28q28 8 65 10q44 0 66 -2v-44z" />
<glyph unicode="&#xab;" d="M213 358l578 397l-24 28l-625 -425l625 -425l24 28zM409 358l476 330l-24 28l-523 -358l523 -359l23 30z" />
<glyph unicode="&#xac;" d="M888 403h-863v-54h799v-275h64v329z" />
<glyph unicode="&#xad;" horiz-adv-x="408" d="M353 388h-298v-60h298v60z" />
<glyph unicode="&#xae;" horiz-adv-x="920" d="M758 263h-43q-13 0 -19 -4q-5 -4 -8 -10t-6 -15q-5 -10 -14 -19t-23 -15q-15 -6 -24 -6l-322 1q-8 0 33 23l13 7q51 28 166 64q31 9 66 21q34 12 65 30q32 18 56 40q22 19 38 53q16 39 12 78q-6 38 -28 67q-22 30 -58 52q-36 21 -80 30q-5 1 -26 3.5t-35 4.5q-39 3 -83 3 q-47 -3 -91 -13q-46 -12 -86 -36q-25 -18 -39 -32q-19 -21 -28 -41q-9 -24 -8 -47q0 -27 17 -50q11 -20 33 -27q23 -10 44 -7q24 2 44 16t29 41q6 18 3 34q-3 17 -9 28q-2 4 -11 19q-7 7 -5 7q2 2 8 6q5 5 25 12q19 7 47 12q33 4 70 1q33 -3 57 -18q23 -17 32 -40 q9 -25 5 -51q-6 -29 -29 -57q-16 -20 -39 -33q-19 -12 -53 -28q-20 -10 -64 -30q-33 -16 -71 -38q-69 -42 -110 -86t-41 -88v-70h571zM159 -52q-22 0 -42 7q-22 6 -34 18q-19 16 -25 40q-8 21 -8 48v596q0 18 6 42t17 36q14 16 41 26q28 7 48 7h596q20 0 48 -7q24 -9 41 -26 q10 -15 17 -36q6 -24 6 -42v-596q0 -22 -8 -48q-9 -25 -25 -40q-14 -12 -34 -18q-20 -7 -42 -7h-602zM174 799q-2 0 -11 -0.5t-14 -0.5q-9 -1 -34 -5q-19 -5 -35 -12q-17 -9 -30 -23q-20 -23 -25 -52q-6 -28 -6 -46v-588q0 -15 1 -25q0 -14 5 -34q3 -16 13 -35q7 -17 23 -28 q23 -20 51 -26q25 -7 49 -7h598q21 0 48 7q28 6 52 26q15 11 23 28q7 16 12 35q2 12 6 34q0 5 0.5 14t0.5 11v588q0 18 -6 46q-6 27 -25 52q-12 14 -29 23q-18 7 -36 12q-24 4 -34 5q-6 0 -14.5 0.5t-10.5 0.5h-572z" />
<glyph unicode="&#xb0;" horiz-adv-x="258" d="M129 785q-40 0 -69 -29t-29 -70q0 -43 29 -69q28 -29 69 -29q40 0 69 29q29 27 29 69q0 39 -29 70q-31 29 -69 29zM129 742q21 0 40 -16q17 -17 17 -40q0 -24 -17 -39q-17 -16 -40 -16q-26 0 -41 16q-16 15 -16 39t16 40t41 16z" />
<glyph unicode="&#xb1;" horiz-adv-x="662" d="M605 405v51h-244v189h-59v-189h-245v-51h245v-193h59v193h244zM605 77v50h-548v-50h548z" />
<glyph unicode="&#xb2;" horiz-adv-x="387" d="M90 401v-39h222v37h-168q35 35 47 48q10 10 38 42q23 27 38 49q17 24 27 51q5 14 8 32q2 24 2 30q0 46 -34 77q-36 28 -75 28q-32 0 -52 -11q-21 -12 -34 -28q-13 -18 -17 -34q-5 -16 -5 -23h44q0 22 16 42q15 21 48 21q39 0 54 -24q13 -25 13 -43q0 -9 -2 -29 q-2 -12 -7 -27q-14 -32 -29 -53q-7 -10 -20.5 -27.5t-17.5 -22.5q-33 -37 -36 -41q-6 -6 -15.5 -16t-13.5 -14q-4 -3 -8 -7q-6 -4 -8 -6q-2 -1 -5 -3.5t-4 -3.5z" />
<glyph unicode="&#xb3;" horiz-adv-x="387" d="M249 565q22 6 40 31q16 26 16 58q0 20 -9 40q-11 19 -26 34q-12 10 -34 20q-26 7 -42 7q-27 0 -50 -10q-22 -11 -32 -21q-13 -13 -19 -28q-7 -15 -7 -20h40q3 16 22 32q18 15 51 15q27 0 46 -19q18 -20 18 -50q0 -35 -21 -56q-9 -9 -27 -12q-17 -4 -36 -4v-32 q27 0 59 -15q30 -17 30 -64q0 -37 -18 -60q-17 -23 -57 -23q-37 0 -52 18q-16 17 -16 30h-46q3 -29 31 -54q27 -27 85 -27q56 0 87 34q30 33 30 80q0 38 -19 63q-21 25 -44 33z" />
<glyph unicode="&#xb4;" d="M531 743h-71l-59 -154h49z" />
<glyph unicode="&#xb6;" d="M591 751h-184q-37 0 -70 -14q-37 -17 -58 -38q-25 -25 -38 -54q-14 -29 -14 -66q0 -78 50 -127q49 -51 144 -51v-474h30v794h110v-794h30v824z" />
<glyph unicode="&#xb7;" horiz-adv-x="286" d="M185 401h-84v-86h84v86z" />
<glyph unicode="&#xb8;" horiz-adv-x="310" d="M262 41h-60v-98q-6 -31 -26 -40q-21 -10 -54 -10q-26 0 -44 6q-20 6 -25 10l-8 -13q15 -10 44 -19q28 -9 61 -8q48 0 80 22q32 21 32 57v93z" />
<glyph unicode="&#xb9;" horiz-adv-x="387" d="M185 711v-351h41v393h-36l-73 -45v-40z" />
<glyph unicode="&#xba;" horiz-adv-x="686" d="M134 242h418v39h-418v-39zM345 358q85 0 133 54q48 52 48 141q0 87 -49 144q-49 54 -134 54q-44 0 -79 -16q-36 -17 -56 -43q-23 -28 -34 -63q-11 -33 -11 -77q0 -94 51 -143q50 -51 131 -51zM223 552q0 35 5 59q5 28 19 51q13 21 38 37q23 14 57 14q67 0 96 -49 q27 -50 27 -111q0 -65 -27 -110q-26 -47 -93 -47q-68 0 -94 47q-28 44 -28 109z" />
<glyph unicode="&#xbb;" d="M709 358l-578 -397l24 -28l625 425l-625 425l-24 -28zM513 358l-475 -329l23 -30l523 359l-523 358l-24 -28z" />
<glyph unicode="&#xbc;" d="M107 -25l663 758l-31 24l-663 -757zM215 721v-351h41v393h-36l-73 -45v-40zM684 79v-106h39v106h63v37h-63v250h-43l-153 -253v-34h157zM684 310v-194h-114z" />
<glyph unicode="&#xbd;" d="M107 -25l663 758l-31 24l-663 -757zM215 711v-351h41v393h-36l-73 -45v-40zM550 11v-39h222v37h-165q10 10 40 42l42 48q23 27 38 49q17 24 27 51q5 14 8 32q2 24 2 30q0 46 -34 77q-36 28 -75 28q-32 0 -52 -11q-21 -12 -34 -28q-13 -18 -17 -34q-5 -16 -5 -23h44 q-3 21 15 42q15 21 49 21q35 0 51 -21q16 -24 16 -46q0 -9 -2 -29q-2 -12 -7 -27q-14 -32 -29 -53q-7 -10 -20.5 -27.5t-17.5 -22.5q-28 -32 -39 -43q-19 -21 -30 -30q-7 -7 -27 -23z" />
<glyph unicode="&#xbe;" d="M107 -25l663 758l-31 24l-663 -757zM684 79v-106h39v106h63v37h-63v250h-43l-153 -253v-34h157zM684 310v-194h-114zM249 575q22 6 40 31q16 26 16 58q0 20 -9 40q-11 19 -26 34q-12 10 -34 20q-26 7 -42 7q-27 0 -50 -10q-22 -11 -32 -21q-13 -13 -19 -28q-7 -15 -7 -20 h40q3 16 22 32q18 15 51 15q27 0 46 -19q18 -20 18 -50q0 -35 -21 -56q-9 -9 -27 -12q-17 -4 -36 -4v-32q27 0 59 -15q30 -16 30 -64q0 -37 -18 -60q-17 -23 -57 -23q-37 0 -52 18q-16 17 -16 30h-46q3 -29 31 -54q27 -27 85 -27q56 0 87 34q30 33 30 80q0 38 -19 63 q-21 25 -44 33z" />
<glyph unicode="&#xbf;" d="M233 127q0 -48 18 -78q16 -33 46 -52q27 -19 66 -27q32 -8 76 -8q51 0 88 8q31 6 64 14v55q-19 -10 -65 -20q-44 -11 -83 -11q-32 0 -56 8q-26 6 -48 23q-23 17 -34 38q-13 20 -13 54q0 25 14 50q14 26 34 48q20 23 42 45l38 38q32 29 51 64t19 90v68h-52v-41 q0 -26 -4 -58q-5 -26 -13 -41q-11 -22 -20 -31t-30 -29q-13 -12 -36 -33q-27 -25 -47 -48q-23 -28 -38 -59q-17 -31 -17 -67zM421 748v-91h87v91h-87z" />
<glyph unicode="&#xc6;" horiz-adv-x="848" d="M26 43h52l91 215h249v-215h366v47h-309v287h289v46h-289v254h300v47h-461zM339 659h79v-355h-230z" />
<glyph unicode="&#xd0;" horiz-adv-x="708" d="M154 372v-329h153q67 0 126 14q42 9 81 36q40 29 68 68q30 39 48 95q17 56 17 130q0 129 -48 204q-50 74 -125 107q-63 27 -156 27h-164v-312h-115v-40h115zM209 372h219v40h-219v265h88q66 -1 114 -9q33 -9 66 -27q31 -21 57 -54q26 -39 41 -83q14 -44 17 -119 q0 -66 -16 -116q-18 -48 -42 -84q-24 -31 -55 -55q-33 -24 -62 -30q-53 -12 -111 -10h-97v282z" />
<glyph unicode="&#xd7;" horiz-adv-x="662" d="M593 136l-223 221l207 209l-37 36l-209 -208l-207 211l-39 -39l211 -211l-219 -214l42 -38l213 217l225 -223z" />
<glyph unicode="&#xd8;" horiz-adv-x="763" d="M623 384q0 -61 -17 -120q-18 -59 -51 -101t-80 -65q-46 -23 -99 -23t-98 23q-24 11 -46 30l342 448q21 -35 32 -72q17 -60 17 -120zM548 614l-347 -456q-3 3 -4 5q-32 41 -49 101q-17 54 -17 120q0 65 17 120q17 59 49 101q32 40 81 65q48 23 98 23t99 -23q40 -20 73 -56 zM682 384q0 70 -22 139q-20 56 -52 98l59 77l-35 26l-53 -69q-37 35 -83 56q-61 25 -120 25q-60 0 -119 -25q-59 -27 -99 -73q-44 -52 -64 -115q-23 -63 -23 -139q0 -77 23 -139q21 -66 64 -115q4 -5 12 -13l-57 -74l36 -24l53 70q22 -18 55 -31q55 -26 119 -26t120 26 q57 24 99 72q40 45 65 115q22 68 22 139z" />
<glyph unicode="&#xde;" horiz-adv-x="593" d="M151 724h-56v-681h56v130h142q49 0 89 10q44 9 75 32q34 21 55 58q21 34 21 89q0 48 -21 86q-22 35 -56 60q-38 24 -88 36q-51 12 -113 12h-104v168zM151 512h139q32 0 67 -8q31 -9 57 -27q26 -19 43 -45q18 -30 18 -68q-6 -83 -58 -114q-52 -32 -137 -32h-129v294z" />
<glyph unicode="&#xdf;" horiz-adv-x="606" d="M307 382q25 0 60 -8q31 -9 58 -27q24 -18 42 -45q15 -30 18 -68q-6 -82 -59 -114q-52 -32 -125 -32h-47v-45h57q41 0 81 10q44 9 75 32q32 20 54 58q21 34 21 89q0 48 -17 80q-17 29 -40 47q-51 36 -128 48q156 42 156 165q0 87 -60 126t-145 39q-92 0 -147 -58 q-56 -59 -56 -162v-474h55v479q0 75 35 122q35 48 110 48q66 0 111 -31q42 -33 42 -94q0 -39 -16 -69q-16 -29 -43 -44q-26 -16 -59 -22q-35 -6 -62 -6h-13v-44h42z" />
<glyph unicode="&#xe6;" horiz-adv-x="821" d="M753 328q0 28 -7 79q-9 42 -30 69t-54 39q-34 12 -78 12q-57 0 -96 -18q-39 -19 -76 -65q-26 43 -64 64q-40 19 -94 19q-45 0 -78 -12q-35 -13 -55 -30q-24 -19 -33 -41q-10 -23 -10 -36h64q0 30 30 55q31 25 82 25q40 0 65 -14q22 -14 35 -33q14 -20 17 -41q3 -24 3 -32 v-60q-38 0 -106 -4q-54 -5 -97 -19q-46 -16 -75 -47q-30 -32 -30 -87q0 -30 10 -50q9 -22 28 -38t40 -23q19 -8 46 -8q85 0 130 27q44 25 80 93q45 -74 96 -97q47 -23 123 -23q39 0 66 5q27 4 53 11v35q-21 -6 -51 -9q-33 -3 -46 -3q-105 0 -155 46q-52 45 -61 159h328v52z M374 220q0 -43 -11 -62q-22 -39 -61 -62q-18 -12 -38 -18q-20 -7 -38 -7q-38 0 -70 18q-33 18 -33 72q0 42 27 66q25 23 63 34t77 14q52 2 84 2v-57zM580 488q34 0 60 -14q23 -14 37 -36q12 -21 15 -54q2 -48 2 -70h-269q6 84 47 130q39 44 108 44z" />
<glyph unicode="&#xf0;" horiz-adv-x="583" d="M347 660q-50 33 -104 49q-56 16 -103 20v-37q45 -8 77 -17q42 -12 89 -39l-126 -73l17 -29l131 77q31 -25 55 -58q22 -32 48 -104q-38 31 -78 43q-44 11 -74 11q-50 0 -92 -18q-43 -19 -70 -51q-31 -34 -44 -76q-15 -45 -15 -93q0 -117 61 -174q59 -59 162 -59 q102 0 164 62q61 63 61 173v1q0 122 -32 215q-33 89 -100 155l102 60l-16 28zM115 265q0 84 38 141q38 58 125 58q42 0 76 -17q32 -18 51 -45q19 -24 32 -62q11 -38 11 -74q0 -38 -11 -74q-12 -37 -31 -63q-22 -28 -50 -42q-31 -16 -74 -16q-85 0 -125 57q-42 57 -42 137z " />
<glyph unicode="&#xf7;" horiz-adv-x="662" d="M385 584q0 22 -14 41q-15 17 -39 17q-23 0 -39 -16t-16 -42q0 -23 16 -36q15 -15 39 -15q20 0 37 15q16 14 16 36zM613 329v56h-564v-56h564zM386 130q0 20 -15 38q-18 16 -41 16q-21 0 -38 -17t-17 -38q0 -24 16 -39q15 -16 40 -16q21 0 38 17q17 15 17 39z" />
<glyph unicode="&#xf8;" horiz-adv-x="602" d="M462 279q0 -39 -11 -80q-12 -40 -33 -68q-22 -28 -56 -44q-32 -16 -67 -16q-36 0 -67 16q-7 2 -19 10l226 302q7 -15 16 -39q11 -42 11 -81zM413 433l-234 -309q-4 4 -6 7q-22 28 -33 68q-11 36 -11 80t11 81q10 37 33 68q23 29 55 45q32 15 67 15q34 0 67 -15 q27 -14 51 -40zM521 279q0 47 -16 98q-15 36 -36 67l45 61l-30 22l-41 -55q-27 22 -59 37q-44 18 -89 18q-46 0 -88 -18q-44 -18 -74 -51q-32 -35 -47 -81q-16 -47 -16 -98q0 -54 16 -98q15 -46 47 -80q9 -11 17 -16l-46 -61l34 -22l45 60q11 -8 24 -12q42 -18 88 -18 q45 0 89 18q44 19 73 51q30 33 48 81q16 48 16 97z" />
<glyph unicode="&#xfe;" horiz-adv-x="592" d="M113 -123h51v228q32 -42 68 -56q34 -14 80 -14q92 0 154 60q61 61 61 183q0 45 -11 92q-13 48 -35 81q-26 34 -62 55q-38 21 -91 21q-30 0 -57 -10q-25 -10 -44 -24q-18 -15 -34 -34q-19 -23 -29 -46v311h-51v-847zM166 261q0 45 10 84q10 42 29 71q22 32 49 50 q28 19 65 19q44 0 73 -20q27 -21 45 -51q14 -28 22 -67q7 -44 7 -74q0 -84 -40 -142t-114 -58q-41 0 -68 18q-30 18 -46 46q-18 27 -24 60q-8 29 -8 64z" />
<glyph unicode="&#x152;" horiz-adv-x="925" d="M501 45h370v47h-312v292h291v46h-291v258h303v47h-361v-27q-42 21 -77 31q-38 7 -70 7q-72 0 -127 -29q-55 -30 -94 -78q-39 -47 -57 -112q-20 -63 -20 -136q0 -80 20 -141q18 -67 57 -113q38 -48 94 -75q53 -28 127 -28q41 0 70 8q34 8 77 31v-28zM354 77q-54 0 -98 27 q-44 25 -74 70q-32 44 -47 101q-17 52 -17 117q0 68 17 122q15 54 47 99q30 41 75 66q42 24 96 24q40 0 79 -17q34 -17 69 -49v-497q-34 -32 -69 -47q-36 -16 -78 -16z" />
<glyph unicode="&#x153;" horiz-adv-x="846" d="M793 329q-3 36 -14 76q-13 38 -33 64q-19 24 -52 44q-35 16 -77 16q-60 0 -104 -22q-43 -22 -79 -73q-35 49 -82 73q-46 21 -95 21q-50 0 -87 -20t-65 -54q-27 -33 -39 -78q-14 -43 -14 -96q0 -118 53 -180q53 -63 154 -63q49 0 97 24q48 22 82 76q86 -109 221 -100 q39 0 66 5q29 4 53 11v35q-20 -6 -52 -9q-33 -3 -45 -3q-104 0 -160 46q-57 45 -66 159h338v48zM112 280q0 40 9 78q7 36 24 66q18 28 46 47q27 18 65 18q41 0 71 -18q28 -19 46 -49q17 -30 24 -66q7 -44 7 -75q0 -33 -7 -75q-8 -39 -25 -66q-18 -30 -44 -46 q-28 -18 -68 -18q-42 0 -67 17q-28 16 -46 46q-19 28 -26 65q-9 36 -9 76zM616 490q31 0 56 -14q21 -15 35 -38q14 -28 19 -51q5 -30 6 -68h-277q5 85 48 128t113 43z" />
<glyph unicode="&#x2dc;" d="M177 306h61v49q0 35 23 52q22 16 45 16q37 0 67 -24q11 -9 31.5 -26.5t30.5 -25.5q29 -29 69 -52q36 -24 90 -24q36 0 62 15t40 34q14 18 22 41q6 20 6 32v61h-61v-44q0 -25 -17 -51t-49 -26q-39 0 -69 24q-33 23 -64 52q-35 30 -72 53q-39 24 -91 24q-28 0 -52 -11 q-25 -12 -39 -28q-16 -18 -24 -39q-9 -24 -9 -45v-57z" />
<glyph unicode="&#x2000;" horiz-adv-x="409" vert-adv-y="0" />
<glyph unicode="&#x2001;" horiz-adv-x="818" vert-adv-y="0" />
<glyph unicode="&#x2002;" horiz-adv-x="409" vert-adv-y="0" />
<glyph unicode="&#x2003;" horiz-adv-x="818" vert-adv-y="0" />
<glyph unicode="&#x2004;" horiz-adv-x="272" vert-adv-y="0" />
<glyph unicode="&#x2005;" horiz-adv-x="204" vert-adv-y="0" />
<glyph unicode="&#x2006;" horiz-adv-x="136" vert-adv-y="0" />
<glyph unicode="&#x2007;" horiz-adv-x="136" vert-adv-y="0" />
<glyph unicode="&#x2008;" horiz-adv-x="102" vert-adv-y="0" />
<glyph unicode="&#x2009;" horiz-adv-x="163" vert-adv-y="0" />
<glyph unicode="&#x200a;" horiz-adv-x="45" vert-adv-y="0" />
<glyph unicode="&#x2010;" horiz-adv-x="428" d="M363 362v52h-301v-52h301z" />
<glyph unicode="&#x2011;" horiz-adv-x="428" d="M363 362v52h-301v-52h301z" />
<glyph unicode="&#x2012;" horiz-adv-x="428" d="M363 362v52h-301v-52h301z" />
<glyph unicode="&#x2013;" horiz-adv-x="408" d="M361 395h-314v-74h314v74z" />
<glyph unicode="&#x2014;" d="M930 395h-921v-74h921v74z" />
<glyph unicode="&#x2018;" horiz-adv-x="240" d="M72 693v-77h92v91h-52q-4 60 51 81l-25 28q-16 -8 -29 -18q-12 -10 -23 -26q-8 -13 -11 -38t-3 -41z" />
<glyph unicode="&#x2019;" horiz-adv-x="240" d="M165 730v79h-92v-91h51q7 -57 -52 -82l25 -29q15 7 28 18q14 10 24 26q8 12 13 38q3 24 3 41z" />
<glyph unicode="&#x201c;" horiz-adv-x="412" d="M99 693v-77h92v91h-52q-5 60 51 81l-25 28q-16 -8 -29 -18q-12 -10 -23 -26q-8 -13 -11 -38t-3 -41zM227 693v-77h92v91h-52q-5 60 51 81l-25 28q-16 -8 -29 -18q-12 -10 -23 -26q-8 -13 -11 -38t-3 -41z" />
<glyph unicode="&#x201d;" horiz-adv-x="412" d="M190 730v79h-92v-91h51q7 -57 -52 -82l25 -29q15 7 28 18q14 10 24 26q8 12 13 38q3 24 3 41zM318 730v79h-92v-91h51q7 -57 -52 -82l25 -29q15 7 28 18q14 10 24 26q8 12 13 38q3 24 3 41z" />
<glyph unicode="&#x2022;" d="M577 358q0 46 -34 82q-37 34 -83 34q-49 0 -83 -34t-34 -82q0 -51 34 -84q33 -34 83 -34q48 0 83 34q34 34 34 84z" />
<glyph unicode="&#x2026;" horiz-adv-x="0" />
<glyph unicode="&#x202f;" horiz-adv-x="163" vert-adv-y="0" />
<glyph unicode="&#x2039;" d="M883 799l-722 -441l722 -442v39l-652 403l652 404v37z" />
<glyph unicode="&#x203a;" d="M37 799v-37l652 -404l-652 -403v-39l722 442z" />
<glyph unicode="&#x205f;" horiz-adv-x="204" vert-adv-y="0" />
<glyph unicode="&#x20ac;" horiz-adv-x="920" d="M385 537v-368q0 -23 -12 -33q-13 -11 -32 -13q-24 -3 -40 -8q-14 -6 -14 -24v-38h351v38q0 18 -14 24q-17 5 -40 8q-20 1 -32 13q-12 10 -12 33v456q0 24 -7 31l-62 5l-200 -66v-58h114zM159 -52q-22 0 -42 7q-22 6 -34 18q-19 16 -25 40q-8 21 -8 48v596q0 18 6 42 t17 36q14 16 41 26q28 7 48 7h596q20 0 48 -7q24 -9 41 -26q10 -15 17 -36q6 -24 6 -42v-596q0 -22 -8 -48q-9 -25 -25 -40q-14 -12 -34 -18q-20 -7 -42 -7h-602zM174 799q-2 0 -11 -0.5t-14 -0.5q-9 -1 -34 -5q-19 -5 -35 -12q-17 -9 -30 -23q-20 -23 -25 -52 q-6 -28 -6 -46v-588q0 -15 1 -25q0 -14 5 -34q3 -16 13 -35q7 -17 23 -28q23 -20 51 -26q25 -7 49 -7h598q21 0 48 7q28 6 52 26q15 11 23 28q7 16 12 35q2 12 6 34q0 5 0.5 14t0.5 11v588q0 18 -6 46q-6 27 -25 52q-12 14 -29 23q-18 7 -36 12q-24 4 -34 5q-6 0 -14.5 0.5 t-10.5 0.5h-572z" />
<glyph unicode="&#x2122;" d="M231 360h47v332h135v50h-317v-50h135v-332zM615 360h34l114 292v-292h43v382h-60l-116 -314l-129 314h-47v-382h43v285z" />
</font>
</defs>
</svg>
