<?xml version="1.0" standalone="no"?>
<!DOCTYPE svg PUBLIC "-//W3C//DTD SVG 1.1//EN" "http://www.w3.org/Graphics/SVG/1.1/DTD/svg11.dtd" >
<svg xmlns="http://www.w3.org/2000/svg" xmlns:xlink="http://www.w3.org/1999/xlink" version="1.1">
<metadata></metadata>
<defs>
<font id="seoulnamsanb" horiz-adv-x="940" vert-adv-y="1000" >
<font-face units-per-em="1000" ascent="800" descent="-200" />
<missing-glyph horiz-adv-x="500" />
<glyph horiz-adv-x="0" vert-adv-y="0" />
<glyph horiz-adv-x="333" />
<glyph horiz-adv-x="330" />
<glyph unicode="!" horiz-adv-x="318" d="M100 -32h119v117h-119v-117zM111 773l5 -561h84l6 561h-95z" />
<glyph unicode="&#x22;" horiz-adv-x="418" d="M81 813l17 -233h74l15 233h-106zM233 813l14 -233h74l16 233h-104z" />
<glyph unicode="#" horiz-adv-x="647" d="M44 259h117l-58 -220h80l58 220h102l-56 -220h79l57 220h121l17 69h-123l25 85h120l16 69h-122l59 222h-80l-58 -222h-104l58 222h-80l-57 -222h-116l-16 -69h116l-23 -85h-116zM256 328l23 85h103l-23 -85h-103z" />
<glyph unicode="$" horiz-adv-x="548" d="M47 196q6 -74 60 -119q43 -39 128 -45v-85h68v86q30 3 53 11q40 11 73 35q27 23 47 59q19 38 19 88q0 51 -23 88q-25 35 -55 56q-37 24 -80 41q-17 5 -34 12v259q31 -7 51 -26q28 -30 30 -71h99q0 32 -17 63q-20 30 -44 50q-29 21 -61 35q-26 9 -58 12v76h-68v-76 q-16 -3 -46 -11q-40 -13 -67 -33q-28 -23 -45 -54q-18 -33 -18 -79q0 -56 19 -90q18 -35 47 -57q29 -21 75 -36q15 -7 35 -13v-276q-35 6 -55 26q-32 26 -32 74h-101zM149 572q0 31 10 51q10 23 23 36q17 14 35 20q13 3 18 4v-236q-4 1 -12 5q-30 11 -44 28q-15 13 -22 37 q-8 20 -8 55zM303 96v251l14 -6q31 -17 48 -34q14 -16 27 -38q10 -21 10 -50q0 -33 -12 -56q-12 -24 -29 -41q-17 -15 -40 -22q-12 -4 -18 -4z" />
<glyph unicode="%" horiz-adv-x="865" d="M29 503q0 -43 12 -82q12 -41 36 -68q23 -29 57 -41q31 -14 66 -14q37 0 68 14q32 12 57 41q21 27 36 68q13 42 13 82q0 39 -13 83q-15 40 -36 68q-24 27 -57 42q-34 14 -68 14q-33 0 -67 -14q-34 -15 -56 -42q-24 -28 -36 -68t-12 -83zM117 503q0 67 23 104q23 38 60 38 t63 -38q24 -39 24 -104t-24 -102q-25 -38 -63 -38t-60 38q-23 36 -23 102zM240 42h84l299 668h-84zM491 247q0 -43 12 -82q12 -41 36 -68q25 -29 57 -41q29 -14 66 -14t68 14q32 12 57 41q21 27 36 68q13 42 13 82q0 39 -13 83q-15 40 -36 68q-24 27 -57 42q-34 14 -68 14 q-33 0 -66 -14q-33 -15 -57 -42q-24 -28 -36 -68t-12 -83zM579 247q0 67 23 104q23 38 60 38t63 -38q23 -37 23 -104q0 -65 -24 -102q-23 -38 -62 -38q-38 0 -60 38q-23 36 -23 102z" />
<glyph unicode="&#x26;" horiz-adv-x="777" d="M75 246q-12 -62 14 -114q30 -59 91 -87q58 -29 124 -29q82 0 151 42q49 29 98 71l86 -101h113l-138 159q42 41 97 99l-65 55q-45 -51 -84 -93l-167 193q26 17 58 42q39 30 64 68q25 37 25 71q-3 35 -18 64q-18 28 -43 45q-26 16 -58 25q-35 8 -63 8q-35 0 -71 -13 q-34 -13 -59 -35q-21 -21 -33 -48q-12 -30 -9 -61q3 -32 24 -67q18 -33 62 -82q-4 -2 -21 -13.5t-32 -20.5q-42 -26 -90 -73q-47 -46 -56 -105zM170 241q9 40 35 66q61 54 120 91l178 -210q-42 -39 -93 -68q-59 -34 -106 -34q-42 0 -77 23q-36 20 -49 52q-20 39 -8 80z M282 622q0 33 23 57q21 24 56 24q36 0 64 -23q26 -24 26 -52q0 -30 -21 -54q-20 -24 -42 -41q-28 -24 -44 -31q-16 18 -39 54q-23 32 -23 66z" />
<glyph unicode="'" horiz-adv-x="328" d="M80 813l16 -233h74l15 233h-105z" />
<glyph unicode="(" horiz-adv-x="384" d="M140 293q0 -61 5 -114q4 -62 23 -123q18 -61 57 -109q38 -48 113 -68v58q-30 13 -48 45q-18 28 -31 74q-14 50 -19 97q-7 48 -7 108v190q0 60 7 110q5 44 19 96q13 44 31 74t48 45v58q-77 -21 -113 -68q-39 -47 -57 -109q-19 -63 -23 -122q-5 -54 -5 -116v-126z" />
<glyph unicode=")" horiz-adv-x="384" d="M45 -63v-58q73 19 113 68q37 50 56 109q18 58 24 123q5 70 5 114v126q0 44 -5 116q-6 62 -24 122q-20 62 -57 109q-38 47 -112 68v-58q28 -15 47 -45q20 -35 31 -74q13 -49 20 -96q7 -63 7 -110v-190q0 -49 -7 -108q-7 -49 -20 -97q-11 -41 -31 -74q-19 -31 -47 -45z" />
<glyph unicode="*" horiz-adv-x="406" d="M45 562h75l34 4l-20 -22l-41 -65l55 -35l40 68l14 29l13 -29l42 -68l55 35l-42 65l-19 22l30 -4h80v64h-80l-28 -4l17 24l42 64l-56 32l-40 -64l-13 -32l-1 -2l-2 2l-13 32l-39 64l-55 -32l41 -64l18 -25l-32 5h-75v-64z" />
<glyph unicode="+" horiz-adv-x="583" d="M48 351h202v-201h82v201h203v75h-203v202h-82v-202h-202v-75z" />
<glyph unicode="," horiz-adv-x="253" d="M53 -121h81l57 234h-114z" />
<glyph unicode="-" horiz-adv-x="428" d="M45 347h335v82h-335v-82z" />
<glyph unicode="." horiz-adv-x="253" d="M67 -32h119v117h-119v-117z" />
<glyph unicode="/" horiz-adv-x="388" d="M26 -111h86l248 935h-87z" />
<glyph unicode="0" horiz-adv-x="552" d="M35 388q0 -81 14 -147q13 -70 47 -122q33 -53 80 -76q46 -24 96 -24q52 0 98 25q47 25 79 75q35 52 51 122q16 75 16 147q0 74 -16 151q-18 71 -51 121q-34 50 -79 77q-47 26 -98 26q-48 0 -96 -25q-46 -25 -80 -78q-32 -49 -46 -121q-15 -72 -15 -151zM128 388 q0 64 9 123q9 55 27 95q21 41 50 61q28 20 58 20q33 0 62 -20q27 -21 48 -61q18 -40 30 -95q11 -61 11 -123q0 -56 -10 -118q-11 -58 -31 -97q-21 -41 -48 -59q-28 -19 -62 -19q-32 0 -58 19q-28 18 -50 58q-20 38 -28 97q-8 51 -8 119z" />
<glyph unicode="1" horiz-adv-x="552" d="M109 573l151 77v-620h92v721h-82l-161 -90v-88z" />
<glyph unicode="2" horiz-adv-x="552" d="M49 547h94q2 64 31 99q31 40 99 40q33 0 59 -15q24 -15 41 -35q13 -19 21 -41q8 -27 8 -43q0 -42 -20 -85q-38 -81 -150 -195q-117 -117 -182 -166v-76h459v77h-333q82 74 165 160q85 87 126 171q11 19 20 53q8 34 8 61q0 47 -17 87q-18 38 -48 65t-71 43q-42 14 -83 14 q-64 0 -111 -22q-46 -22 -73 -57q-43 -56 -43 -135z" />
<glyph unicode="3" horiz-adv-x="552" d="M35 193q2 -43 19 -74q15 -33 45 -54q26 -21 70 -33q42 -13 99 -13q61 0 106 17q46 15 78 48q28 28 45 72q15 42 15 76q0 44 -16 79q-18 34 -43 54q-37 30 -78 45q39 12 72 42q27 24 40 58q12 33 12 58q0 45 -17 82q-18 34 -49 61t-75 39q-45 12 -88 12q-54 0 -95 -15 t-69 -41q-27 -27 -40 -56q-17 -31 -17 -59h91q5 38 40 67q34 29 95 29q53 0 94 -29q39 -30 39 -90q0 -52 -45 -86q-44 -35 -141 -35v-74q19 0 63 -7q38 -10 65 -23q26 -15 48 -41q21 -27 21 -68q0 -61 -42 -100q-41 -40 -112 -40q-33 0 -59 9q-27 7 -39 21q-15 14 -21 30 q-7 14 -7 39h-104z" />
<glyph unicode="4" horiz-adv-x="552" d="M12 217h317v-187h90v187h121v76h-121v463h-89l-318 -471v-68zM110 293l219 327v-327h-219z" />
<glyph unicode="5" horiz-adv-x="552" d="M39 187q0 -35 12 -64q10 -29 35 -51q28 -26 70 -38q39 -14 100 -14t109 17q50 17 81 49q31 31 50 74q18 42 18 87q0 101 -61 167q-61 63 -174 63q-71 -1 -122 -33l14 230h297v77h-385l-23 -410h89q14 26 48 44q35 16 70 16q67 0 111 -39q42 -40 42 -113q-6 -72 -50 -113 t-113 -41q-38 0 -58 8q-23 6 -36 19q-13 12 -18 29q-7 19 -7 36h-99z" />
<glyph unicode="6" horiz-adv-x="552" d="M37 400q0 -90 6 -141q4 -52 11 -75q16 -58 59 -104q32 -32 78 -46q45 -15 87 -15q48 0 93 14q44 13 78 47q32 32 50 76q16 45 16 89q0 50 -17 96q-18 44 -48 74q-33 30 -72 48q-43 17 -100 17q-53 0 -109 -31v-83q57 36 110 39q31 0 60 -12q25 -13 46 -35q14 -18 28 -49 q11 -30 11 -63q0 -30 -11 -58q-12 -30 -29 -50q-21 -23 -46 -33q-25 -11 -59 -11t-56 11q-25 10 -45 32q-21 22 -32 56q-13 31 -16 85q-4 91 -1 167q0 29 7 76q5 40 22 78q16 37 48 63q31 25 72 25q33 0 57 -9q23 -11 36 -25q12 -13 18 -32q5 -17 7 -34h103q0 30 -14 64 q-16 34 -41 56q-29 26 -69 41q-44 14 -95 14q-74 0 -123 -34q-49 -33 -77 -87q-26 -51 -34 -113q-9 -62 -9 -128z" />
<glyph unicode="7" horiz-adv-x="552" d="M40 672h363l-284 -642h102l286 645v76h-467v-79z" />
<glyph unicode="8" horiz-adv-x="552" d="M32 227q0 -42 15 -81q13 -41 48 -70q34 -32 83 -44q46 -13 92 -13q49 0 97 13q49 12 82 44q35 29 51 70q15 39 15 81q0 44 -19 85q-19 37 -52 67q-17 12 -43 26q19 8 36 22q30 24 49 62q17 37 17 73q0 43 -18 79q-18 34 -48 62q-33 29 -76 44q-44 15 -91 15 q-43 0 -85 -15q-43 -14 -76 -44q-31 -28 -45 -62q-17 -34 -17 -79q0 -37 15 -73q15 -37 48 -62q14 -13 34 -22q-19 -9 -43 -26q-35 -30 -51 -67q-18 -39 -18 -85zM124 227q0 63 42 103q42 39 104 39q68 0 111 -39q42 -41 42 -103q0 -58 -42 -94q-41 -38 -111 -38 q-67 0 -105 38q-41 35 -41 94zM139 562q0 58 38 92q36 33 93 33q60 0 102 -33q40 -35 40 -92q0 -52 -40 -84q-40 -33 -103 -33q-57 0 -93 33q-37 31 -37 84z" />
<glyph unicode="9" horiz-adv-x="552" d="M36 528q0 -48 15 -91q13 -45 45 -75q32 -32 76 -46q40 -15 93 -15q68 0 115 23v85q-57 -35 -115 -33q-34 0 -56 11q-26 9 -45 32q-20 23 -28 49q-10 26 -10 59q0 34 10 63q9 27 28 50q17 20 45 34q28 13 56 13q29 0 58 -13q26 -14 45 -34q17 -18 29 -49q11 -30 15 -63 q11 -97 11 -197q0 -33 -8 -76q-10 -45 -26 -78q-19 -39 -47 -60q-30 -23 -76 -23q-34 0 -53 8q-20 6 -35 22q-13 11 -20 32q-6 18 -6 38h-103q0 -38 14 -67q13 -32 41 -57q26 -26 69 -38q39 -13 90 -13q77 0 126 32t77 85q28 52 38 113q10 67 10 124q0 89 -8 153 q-8 52 -22 94q-19 41 -49 76q-32 30 -74 49q-43 17 -95 17q-50 0 -93 -17q-44 -18 -75 -49q-30 -33 -45 -75q-17 -41 -17 -93z" />
<glyph unicode=":" horiz-adv-x="409" d="M145 104h119v117h-119v-117zM145 499h119v117h-119v-117z" />
<glyph unicode=";" horiz-adv-x="409" d="M127 -13h80l58 234h-115zM145 499h119v117h-119v-117z" />
<glyph unicode="&#x3c;" horiz-adv-x="592" d="M95 330l434 -258v96l-337 199l337 198v96l-434 -258v-73z" />
<glyph unicode="=" horiz-adv-x="592" d="M56 246h478v75h-478v-75zM56 458h478v75h-478v-75z" />
<glyph unicode="&#x3e;" horiz-adv-x="592" d="M101 72l434 258v73l-434 258v-96l337 -198l-337 -199v-96z" />
<glyph unicode="?" horiz-adv-x="468" d="M38 641q14 9 36 17q23 9 46 15q14 4 44 10q21 3 44 3t51 -7q25 -10 41 -22q17 -14 29 -32q11 -22 11 -41q0 -20 -13 -46q-16 -28 -32 -46q-19 -24 -40 -43q-5 -5 -18.5 -17t-19.5 -18q-31 -32 -51 -64q-18 -32 -18 -95v-75h86v54q0 36 4 51q3 16 12 32q7 12 20 27 q17 19 24 28q10 12 34 34q20 18 46 48q23 26 42 61q18 35 18 72q0 45 -21 80q-21 33 -53 56q-34 21 -73 32q-40 9 -77 9q-25 0 -49 -3q-37 -7 -44 -8l-42 -9q-21 -6 -37 -12v-91zM133 -32h119v117h-119v-117z" />
<glyph unicode="@" horiz-adv-x="1000" d="M80 226q3 -65 28 -120q47 -107 154 -163q103 -56 241 -56q83 0 141 17q59 16 101 41q44 25 64 43q19 16 31 31l-37 46q-15 -18 -40 -34q-36 -24 -56 -34q-38 -19 -89 -31q-52 -12 -112 -12q-125 0 -203 50q-80 48 -115 126q-20 40 -23 98q-5 55 9 106q8 40 31 104 q22 56 65 111q29 41 78 76q43 31 101 50q53 17 108 17q56 0 113 -21q84 -32 135 -115q50 -86 44 -176q-1 -31 -15 -79q-15 -51 -33 -80q-15 -25 -39 -48q-27 -25 -48 -38q-53 -28 -76 -19q-26 8 -8 55q35 91 73 187q13 34 26 66.5t24.5 61t14.5 37.5h-86l-20 -45 q-11 23 -37 45q-27 21 -79 21q-56 0 -106 -36q-50 -37 -87 -86q-45 -60 -59 -112q-17 -52 -19 -91q-2 -44 9 -74q9 -32 32 -55q17 -19 47 -29q26 -10 54 -10q30 0 50 8q21 6 33 15q27 15 43 30v-5q3 -28 25 -44q21 -18 63 -15q49 3 99 31q86 44 137 126q50 82 56 182 q4 124 -59 224q-67 97 -171 133q-71 23 -136 26q-71 2 -131 -16q-59 -19 -115 -53q-55 -35 -102 -88q-49 -59 -78 -123q-31 -67 -44 -127q-12 -61 -7 -129zM364 214q4 36 18 72q13 38 35 73q33 53 74 87q39 33 69 33q28 0 43 -21q15 -22 15 -48q0 -13 -10 -60 q-13 -49 -38 -102q-27 -62 -64 -95q-39 -33 -80 -33q-12 0 -20 3q-11 2 -19 10q-14 9 -20 29q-9 18 -3 52z" />
<glyph unicode="A" horiz-adv-x="650" d="M17 30h98l76 222h265l75 -222h99l-258 721h-99zM219 331l106 309l104 -309h-210z" />
<glyph unicode="B" horiz-adv-x="602" d="M74 30h220q29 0 49 1q25 0 53 7q65 18 113 66q47 49 47 131q0 137 -162 176q132 39 132 148q0 93 -65 143q-67 49 -178 49h-209v-721zM166 106v264h114q13 0 45 -4q8 -2 20.5 -4.5t16.5 -3.5q51 -15 77 -46q24 -32 24 -77q0 -43 -24 -75q-26 -33 -77 -47q-15 -5 -39 -5 q-18 -2 -43 -2h-114zM166 446v229h91q4 0 13 -0.5t14 -0.5q20 -2 27 -2q56 -6 89 -32q33 -27 33 -81q0 -48 -33 -77t-89 -35q-8 -1 -27 -1h-118z" />
<glyph unicode="C" horiz-adv-x="653" d="M39 401q0 -74 17 -138q15 -68 60 -124q41 -56 105 -88q60 -33 147 -33q84 0 148 16q24 6 42 15q5 2 15 7t15 7v92q-37 -24 -89 -43q-51 -18 -110 -18q-80 0 -128 33q-50 31 -79 80q-28 48 -37 104q-10 50 -10 90q0 59 18 119q16 58 50 95q34 39 74 56q42 17 88 17 q31 -3 56 -10q26 -9 47 -25q18 -14 35 -41q14 -26 14 -65h98q0 53 -21 92q-20 36 -55 67q-35 26 -79 43q-45 15 -96 15q-81 0 -143 -31q-61 -31 -103 -80q-42 -51 -60 -115q-19 -64 -19 -137z" />
<glyph unicode="D" horiz-adv-x="659" d="M74 30h168q33 0 72 3q38 3 66 9q45 9 87 40q41 30 74 70q30 40 51 102q20 62 20 135q0 77 -20 139q-21 57 -51 100q-35 41 -74 71q-41 29 -87 39q-23 5 -66 10q-39 3 -72 3h-168v-721zM166 108v565h78q11 0 57 -2q32 -3 52 -9q27 -7 56 -25q27 -18 53 -53q20 -30 40 -79 q17 -49 17 -116q0 -65 -17 -113q-18 -47 -40 -80q-24 -33 -53 -53q-33 -20 -56 -25q-21 -7 -52 -8q-23 -2 -57 -2h-78z" />
<glyph unicode="E" horiz-adv-x="547" d="M74 30h420v78h-327v260h304v78h-304v227h317v78h-410v-721z" />
<glyph unicode="F" horiz-adv-x="521" d="M74 30h93v338h306v78h-306v227h317v78h-410v-721z" />
<glyph unicode="G" horiz-adv-x="682" d="M39 402q0 -75 17 -137q16 -68 60 -124q42 -56 104 -88q61 -34 148 -34q74 0 130 12q54 12 110 40v347h-267v-79h175v-223q-6 -3 -45 -12t-82 -9q-80 0 -129 34q-52 34 -78 80q-29 52 -37 103q-10 50 -10 90q0 58 18 118q16 58 50 95q32 38 74 56q42 17 88 17 q31 -3 56 -10q26 -9 47 -25q18 -14 35 -41q14 -26 14 -65h98q0 53 -21 92q-20 36 -55 67q-35 26 -79 43q-45 15 -96 15q-81 0 -143 -31q-61 -31 -103 -80q-42 -51 -60 -114q-19 -64 -19 -137z" />
<glyph unicode="H" horiz-adv-x="660" d="M74 30h93v336h324v-336h93v721h-93v-307h-324v307h-93v-721z" />
<glyph unicode="I" horiz-adv-x="252" d="M79 30h93v721h-93v-721z" />
<glyph unicode="J" horiz-adv-x="390" d="M8 32q20 -8 44 -10q21 -3 51 -3q64 0 105 16q42 16 64 41q21 23 33 55q10 35 10 60v560h-93v-549q0 -31 -9 -49q-8 -17 -22 -31q-13 -12 -26 -17q-17 -7 -26 -8q-6 -1 -15 -1h-14q-25 0 -52 6q-29 5 -50 15v-85z" />
<glyph unicode="K" horiz-adv-x="592" d="M74 30h91v330l305 -330h118l-344 382l317 339h-111l-285 -302v302h-91v-721z" />
<glyph unicode="L" horiz-adv-x="513" d="M74 30h421v78h-328v643h-93v-721z" />
<glyph unicode="M" horiz-adv-x="834" d="M74 30h87v586l213 -586h81l216 586v-586h87v721h-126l-215 -592l-220 592h-123v-721z" />
<glyph unicode="N" horiz-adv-x="660" d="M74 30h89v591l314 -591h107v721h-89v-593l-316 593h-105v-721z" />
<glyph unicode="O" horiz-adv-x="743" d="M43 390q0 -79 22 -146q21 -70 68 -122q44 -51 107 -77q61 -26 129 -26t129 26q61 25 107 77q45 51 69 122q23 71 23 146q0 76 -23 148q-24 70 -69 122q-46 52 -107 78q-64 26 -129 26t-129 -26q-64 -27 -107 -78q-47 -53 -68 -122q-22 -69 -22 -148zM137 390q0 65 17 120 q15 55 47 97q32 39 77 62q44 21 91 21q48 0 93 -21q43 -22 75 -62q32 -43 49 -97q18 -58 18 -120t-18 -117q-18 -56 -49 -98q-31 -40 -75 -61q-45 -21 -93 -21q-49 0 -92 21q-45 21 -76 61q-32 41 -47 98q-17 52 -17 117z" />
<glyph unicode="P" horiz-adv-x="583" d="M74 30h93v644h109q29 0 63 -8q34 -10 56 -23q27 -17 43 -38q17 -26 17 -68q0 -33 -17 -61t-42 -43q-23 -16 -54 -22q-33 -6 -68 -6h-64v-81h66q54 0 100 10q46 9 84 36q38 24 63 69q25 44 25 98q0 58 -25 102q-26 42 -64 66q-35 22 -85 35q-49 11 -98 11h-202v-721z" />
<glyph unicode="Q" horiz-adv-x="764" d="M43 390q0 -79 22 -146q21 -70 68 -122q44 -51 107 -77q61 -26 129 -26q46 0 85 11h293v73q-52 -11 -132 -11h-40q15 14 30 30q45 51 69 122q23 71 23 146q0 76 -23 148q-24 70 -69 122q-46 52 -107 78q-64 26 -129 26t-129 -26q-64 -27 -107 -78q-47 -53 -68 -122 q-22 -69 -22 -148zM137 390q0 65 17 120q15 55 47 97q32 39 77 62q44 21 91 21q48 0 93 -21q43 -22 75 -62q32 -43 49 -97q18 -58 18 -120t-18 -117q-18 -56 -49 -98q-31 -40 -75 -61q-45 -21 -93 -21q-49 0 -92 21q-45 21 -76 61q-32 41 -47 98q-17 52 -17 117z" />
<glyph unicode="R" horiz-adv-x="594" d="M74 30h93v644h109q29 0 63 -8q33 -10 56 -22q26 -16 43 -39q17 -26 17 -62q0 -33 -17 -59q-19 -28 -42 -41q-24 -15 -55 -21q-29 -7 -67 -7h-70v-81h71q65 0 118 -68q45 -60 75 -236h98q-25 130 -62 223q-30 74 -105 115q41 13 61 24q37 21 63 62q25 41 25 89 q0 58 -25 99q-27 38 -64 63q-35 22 -84 35q-50 11 -99 11h-202v-721z" />
<glyph unicode="S" horiz-adv-x="532" d="M39 576q0 -42 21 -75t57 -60q34 -26 74 -44q39 -21 72 -36q48 -25 88 -56q19 -15 36 -36q16 -26 16 -56q0 -34 -18 -55q-19 -24 -39 -36q-21 -13 -51 -19q-28 -7 -61 -7q-30 0 -58 7q-37 7 -56 13q-46 12 -74 27v-95q29 -9 83 -19q46 -10 96 -10q123 0 198 51 q74 50 74 155q-3 48 -19 80q-19 32 -42 52q-23 22 -65 46q-93 47 -119 59q-24 10 -43 24q-24 14 -39 28q-17 17 -26 31q-12 15 -12 38q0 52 38 80q38 27 93 27q50 0 111 -16q55 -16 77 -29v86q-33 11 -74 20q-20 4 -50 9q-40 4 -55 4q-102 0 -167 -45q-66 -45 -66 -143z" />
<glyph unicode="T" horiz-adv-x="603" d="M27 673h228v-643h93v643h228v78h-549v-78z" />
<glyph unicode="U" horiz-adv-x="673" d="M74 300q0 -44 9 -94q9 -52 39 -92q27 -43 81 -68q51 -27 132 -27t133 27q51 26 81 69q28 39 39 91q9 50 9 94v451h-92v-447q0 -40 -9 -76q-8 -34 -28 -69q-17 -27 -52 -46q-30 -16 -69 -16h-12q-49 0 -82 18q-33 16 -52 44q-19 33 -26 69q-8 32 -8 76v447h-93v-451z" />
<glyph unicode="V" horiz-adv-x="644" d="M19 751l251 -721h100l253 721h-96l-205 -609l-210 609h-93z" />
<glyph unicode="W" horiz-adv-x="874" d="M26 751l143 -721h105l162 589l162 -589h104l145 721h-88l-113 -591l-164 591h-93l-163 -591l-113 591h-87z" />
<glyph unicode="X" horiz-adv-x="616" d="M21 30h103l183 295l185 -295h103l-237 377l214 344h-103l-162 -261l-164 261h-103l215 -344z" />
<glyph unicode="Y" horiz-adv-x="604" d="M17 751l239 -393v-328h93v328l237 393h-102l-181 -307l-184 307h-102z" />
<glyph unicode="Z" horiz-adv-x="570" d="M35 30h512v78h-407l383 566v77h-471v-78h364l-381 -568v-75z" />
<glyph unicode="[" horiz-adv-x="359" d="M122 -111h198v70h-110v795h110v70h-198v-935z" />
<glyph unicode="\" horiz-adv-x="388" d="M27 824l249 -935h85l-246 935h-88z" />
<glyph unicode="]" horiz-adv-x="359" d="M38 -41v-70h200v935h-200v-70h110v-795h-110z" />
<glyph unicode="^" horiz-adv-x="477" d="M44 580h89l107 164l102 -164h91l-152 240h-83z" />
<glyph unicode="_" horiz-adv-x="508" d="M-1 -25v-62h511v62h-511z" />
<glyph unicode="`" horiz-adv-x="309" d="M53 755l94 -180h77l-66 180h-105z" />
<glyph unicode="a" horiz-adv-x="538" d="M41 153q0 -34 11 -56q10 -25 33 -43q20 -16 49 -25q26 -10 47 -10q47 0 78 7q29 5 60 22q37 18 59 39v-57h91v342q0 70 -53 121q-55 49 -154 49q-45 0 -89 -13q-44 -16 -68 -34q-26 -20 -39 -46q-12 -27 -12 -58h102q0 39 31 60q31 20 75 20q33 0 60 -11q23 -11 36 -28 q10 -15 16 -34q4 -26 4 -30v-41h-88q-24 0 -64 -5q-36 -6 -67 -15q-50 -16 -84 -56q-34 -41 -34 -98zM133 163q0 38 37 63q32 21 75 27q51 7 78 8h55v-42q0 -30 -11 -49q-22 -35 -62 -58q-18 -9 -46 -16q-27 -6 -40 -6q-39 0 -62 17q-24 16 -24 56z" />
<glyph unicode="b" horiz-adv-x="570" d="M69 285q0 -66 16 -114q15 -53 44 -84q27 -34 71 -51q40 -17 97 -17t99 17q44 16 72 51q25 31 44 84q16 53 16 114q0 45 -13 97q-16 50 -41 83q-29 36 -73 57q-48 20 -98 20q-54 0 -104 -26v-77q59 31 96 31q28 0 57 -13q26 -14 44 -38q18 -27 30 -63q10 -42 10 -76 q0 -35 -10 -75q-12 -37 -30 -63q-18 -27 -45 -39q-26 -13 -56 -13q-27 0 -53 13q-26 12 -45 38q-20 28 -28 63q-11 33 -11 77v470h-89v-466z" />
<glyph unicode="c" horiz-adv-x="538" d="M41 291q0 -70 22 -118q21 -51 54 -84q29 -29 71 -46q43 -20 87 -23q20 -2 41 -2l61 5q50 8 98 33v73q-42 -25 -81 -31q-36 -7 -64 -7q-33 0 -57 6q-25 6 -38 12q-35 17 -54 43q-20 23 -29 50q-9 21 -12 45q-4 19 -4 43q0 86 42 134q42 47 105 47q57 0 85 -31 q27 -33 27 -74h96q0 44 -17 78q-19 31 -45 53q-30 21 -64 33q-36 12 -80 12q-57 0 -104 -19q-48 -21 -77 -53q-33 -35 -48 -79q-15 -45 -15 -100z" />
<glyph unicode="d" horiz-adv-x="570" d="M41 285q0 -66 16 -114q14 -48 46 -83q27 -34 70 -51q42 -18 86 -18q87 0 152 68v-57h88v721h-88v-470q0 -40 -12 -76q-15 -39 -31 -61q-19 -25 -44 -39q-27 -15 -53 -15q-29 0 -54 14q-27 12 -44 38q-19 28 -29 63q-11 33 -11 75t11 75q10 33 29 62q18 24 45 39 q26 14 53 14q43 0 98 -29v74q-48 27 -105 27q-52 0 -96 -21q-46 -23 -72 -58q-29 -36 -41 -82q-14 -43 -14 -96z" />
<glyph unicode="e" horiz-adv-x="538" d="M41 291q0 -70 22 -118q21 -51 54 -84q26 -27 70 -46q43 -20 88 -23q20 -2 41 -2l61 5q50 8 98 33v73q-41 -25 -81 -31q-36 -7 -64 -7q-33 0 -57 6q-25 6 -38 12q-35 17 -54 43q-20 23 -29 50q-9 21 -12 45q-1 1 -1 4h352v55q0 112 -46 169q-27 32 -70 50q-43 17 -92 17 q-57 0 -104 -19q-47 -22 -75 -53q-33 -35 -48 -79q-15 -45 -15 -100zM138 322q6 64 40 102q42 47 105 47q33 0 57 -12q23 -14 36 -34q23 -41 23 -103h-261z" />
<glyph unicode="f" horiz-adv-x="398" d="M26 459h91v-429h93v429h149v71h-149v55q0 23 3 41q4 20 11 32q11 17 28 26q17 7 46 7q18 0 50 -4q26 -5 48 -13v76q-15 2 -47 8q-34 4 -55 4q-65 -2 -98 -19q-34 -17 -53 -46t-22 -63q-4 -31 -4 -68v-36h-91v-71z" />
<glyph unicode="g" horiz-adv-x="570" d="M39 295q0 -67 17 -109q15 -45 45 -78q28 -34 71 -51q42 -18 86 -18q60 0 111 33v74q-48 -36 -100 -36q-28 0 -52 14q-27 12 -45 39q-20 27 -29 57q-11 28 -11 70q0 40 10 70q9 30 30 57q18 24 45 39q26 14 52 14q28 0 55 -15t45 -39q21 -32 31 -56q11 -33 11 -71v-224 q0 -3 -0.5 -8t-0.5 -7q-4 -49 -44 -83q-40 -33 -114 -33q-40 0 -88 9q-49 9 -84 31v-91q26 -13 77 -19q45 -7 86 -7q121 0 190 56q66 52 66 169v10v438h-88v-58q-52 70 -148 70q-53 0 -96 -21q-47 -24 -73 -58q-28 -37 -41 -77q-14 -39 -14 -91z" />
<glyph unicode="h" horiz-adv-x="570" d="M69 30h89v218q0 25 2 37q2 17 6 35q16 71 54 109q37 37 84 37q55 -3 76 -28q28 -36 30 -88v-320h89v335q0 89 -53 134q-51 43 -135 43q-58 0 -109 -36q-20 -15 -44 -46v291h-89v-721z" />
<glyph unicode="i" horiz-adv-x="241" d="M64 643h109v108h-109v-108zM73 30h93v500h-93v-500z" />
<glyph unicode="j" horiz-adv-x="260" d="M-38 -66v-78q46 0 88 7q43 6 76 27q32 21 47 59q14 33 15 89v492h-89v-503q0 -68 -61 -88q-17 -6 -50 -6q-12 0 -26 1zM89 643h109v108h-109v-108z" />
<glyph unicode="k" horiz-adv-x="518" d="M69 30h89v231l234 -231h113l-269 277l264 223h-120l-222 -191v412h-89v-721z" />
<glyph unicode="l" horiz-adv-x="241" d="M73 30h93v721h-93v-721z" />
<glyph unicode="m" horiz-adv-x="817" d="M69 30h87v215q0 39 8 77q7 39 20 68q15 35 39 53q23 17 53 17q29 0 47 -9q18 -10 27 -32q8 -19 13 -49q3 -30 3 -56v-284h83v214q0 24 2 36q0 9 4 37q9 66 42 105q32 38 76 38q25 0 44 -9q18 -10 27 -32q8 -19 12 -47q3 -31 3 -58v-284h87v329q0 93 -46 139 q-49 44 -117 44q-69 0 -114 -45q-13 -13 -33 -45q-15 34 -42 57q-42 33 -107 33q-57 0 -100 -40q-14 -12 -31 -39v67h-87v-500z" />
<glyph unicode="n" horiz-adv-x="570" d="M69 30h89v218q0 25 2 37q2 17 6 35q16 71 54 109q37 37 84 37q54 0 76 -28q30 -36 30 -88v-320h89v335q0 89 -53 134q-51 43 -135 43q-61 0 -112 -36q-21 -15 -41 -46v70h-89v-500z" />
<glyph unicode="o" horiz-adv-x="582" d="M41 281q0 -117 71 -188q68 -74 179 -74q109 0 180 74q70 73 70 188q0 112 -70 188q-71 73 -180 73q-111 0 -180 -74q-70 -74 -70 -187zM135 281q0 79 44 135q42 56 112 56q68 0 113 -56q43 -58 43 -135q0 -81 -43 -136q-44 -56 -113 -56q-71 0 -112 56q-44 53 -44 136z " />
<glyph unicode="p" horiz-adv-x="570" d="M69 -144h89v425q0 42 11 74q11 33 30 60q18 24 44 40q25 15 52 15t55 -14q23 -15 44 -40q20 -30 31 -60q11 -38 11 -74q0 -37 -11 -75q-13 -38 -29 -60q-40 -53 -101 -53q-41 0 -96 35v-79q51 -27 109 -27q44 0 87 18q41 16 70 51q27 33 45 82q18 48 18 113q0 50 -15 95 q-15 43 -41 80q-28 35 -72 58q-47 22 -97 22q-91 0 -145 -68v56h-89v-674z" />
<glyph unicode="q" horiz-adv-x="570" d="M41 287q0 -66 16 -113q14 -47 46 -82q27 -34 70 -51q42 -18 86 -18q59 0 110 27v80q-54 -36 -98 -36q-29 0 -54 14q-27 12 -44 38q-21 29 -29 62q-11 32 -11 74q0 41 11 74q9 32 29 60q19 26 45 40t53 14q26 0 53 -15q25 -15 44 -40q17 -25 31 -60q12 -34 12 -74v-425h88 v674h-88v-56q-56 68 -147 68q-50 0 -96 -22q-46 -23 -72 -58q-29 -37 -41 -80q-14 -42 -14 -95z" />
<glyph unicode="r" horiz-adv-x="398" d="M69 30h88v207q0 48 9 90q7 32 32 60q23 26 50 41q27 14 61 21q39 7 71 7v86q-86 0 -140 -31q-58 -33 -83 -69v88h-88v-500z" />
<glyph unicode="s" horiz-adv-x="449" d="M38 45q90 -26 155 -26q57 0 100 10q44 9 71 30q23 17 37 45q13 29 13 59q0 47 -29 81q-30 31 -67 49q-47 20 -82 32q-46 14 -68 28q-22 12 -30 26q-9 12 -9 33q0 28 29 44t66 16q48 0 92 -12q42 -12 66 -27v85q-78 24 -150 24q-84 0 -137 -36q-54 -38 -54 -103 q0 -49 27 -78q28 -31 59 -44q41 -20 78 -31q50 -19 66 -26q21 -11 38 -28q15 -16 15 -38q0 -33 -41 -54q-29 -13 -90 -13q-38 0 -83 14q-46 11 -72 31v-91z" />
<glyph unicode="t" horiz-adv-x="375" d="M24 459h87v-314q0 -63 37 -94q35 -32 112 -32q52 0 82 5v74q-36 -7 -68 -7q-27 0 -41 7q-17 6 -24 21q-9 18 -9 37v303h145v71h-145v166l-89 -44v-122h-87v-71z" />
<glyph unicode="u" horiz-adv-x="570" d="M69 195q0 -89 54 -134q46 -43 135 -43q61 0 112 36q18 13 41 45v-69h88v500h-88v-218q0 -14 -2 -36l-6 -36q-18 -73 -54 -109q-36 -37 -84 -37q-56 0 -77 28q-29 35 -29 88v320h-90v-335z" />
<glyph unicode="v" horiz-adv-x="516" d="M12 530l215 -500h80l197 500h-88l-150 -384l-161 384h-93z" />
<glyph unicode="w" horiz-adv-x="710" d="M15 530l135 -500h81l123 355l126 -355h84l129 500h-83l-95 -363l-126 363h-70l-123 -362l-94 362h-87z" />
<glyph unicode="x" horiz-adv-x="510" d="M13 30h100l143 195l142 -195h99l-191 263l173 237h-99l-124 -168l-122 168h-100l172 -237z" />
<glyph unicode="y" horiz-adv-x="500" d="M11 530l203 -471l-78 -203h90l261 674h-92l-139 -362l-149 362h-96z" />
<glyph unicode="z" horiz-adv-x="478" d="M35 30h408v71h-305l291 356v73h-375v-71h275l-294 -362v-67z" />
<glyph unicode="{" horiz-adv-x="458" d="M123 333q48 -16 80 -41q29 -27 29 -67q0 -26 -9 -53q-10 -34 -14 -58q-4 -30 -3 -61q0 -35 14 -64q15 -31 39 -50q19 -19 48 -32q22 -13 51 -20q25 -6 55 -3v44q-53 12 -74 39q-23 25 -30 51q-11 33 -5 65q3 31 9 63q4 30 3 61q-3 32 -16 59q-23 45 -52 65q-30 20 -46 26 q18 6 48 27q27 20 50 65q13 26 16 59q2 31 -3 61q-6 30 -9 63q-6 29 5 65q6 25 30 52q21 26 74 38v44q-30 3 -55 -3q-26 -6 -51 -20q-25 -15 -48 -33q-24 -20 -39 -49q-14 -31 -14 -63t3 -62q4 -27 14 -57q9 -30 9 -55q0 -41 -29 -65q-30 -27 -80 -42v-49z" />
<glyph unicode="|" horiz-adv-x="342" d="M131 -98h79v909h-79v-909z" />
<glyph unicode="}" horiz-adv-x="458" d="M45 -72v-44q28 -3 55 3q28 7 51 20q24 13 48 33q22 17 39 49q14 33 14 64t-3 61q-8 38 -14 58q-9 27 -9 54q0 40 29 66q29 25 80 41v49q-52 15 -80 42q-29 23 -29 66q0 24 9 54q7 20 14 57q4 38 4 61q-1 31 -15 64q-15 27 -38 50q-26 21 -49 32q-27 14 -51 20 q-27 6 -55 3v-44q51 -12 74 -38q20 -26 30 -52q9 -33 6 -64q-2 -13 -10 -64q-6 -30 -3 -61q2 -33 16 -59q20 -42 52 -65q31 -21 46 -27q-19 -7 -47 -26q-31 -21 -51 -65q-14 -27 -16 -59q-3 -31 3 -61q6 -42 10 -62q3 -33 -6 -66q-7 -25 -29 -52q-23 -26 -75 -38z" />
<glyph unicode="~" horiz-adv-x="592" d="M44 289h76q0 61 18 87q16 24 49 24q16 0 36 -10q18 -14 53 -48q33 -39 63 -51q28 -14 64 -14q68 0 107 49q38 49 38 134h-77q0 -59 -18 -83q-17 -26 -53 -26q-21 0 -38 14q-17 11 -47 43q-33 36 -63 51t-67 15q-61 0 -100 -47q-41 -47 -41 -138z" />
<glyph d="M27 394h149l71 -349h85l84 349h107l84 -349h86l71 349h150v55h-139l56 272h-70l-54 -272h-133l-66 272h-77l-66 -272h-133l-54 272h-69l56 -272h-138v-55zM243 394h109l-60 -248zM430 449l40 166l40 -166h-80zM587 394h109l-49 -248z" />
<glyph horiz-adv-x="408" d="M47 321h314v74h-314v-74z" />
<glyph d="M16 362q0 -97 35 -176q33 -82 93 -142q60 -63 139 -95q76 -35 168 -35q94 0 176 35q81 33 144 93q62 61 97 139q36 78 36 168q0 91 -35 176q-35 79 -97 144q-61 61 -140 97q-81 36 -168 36q-94 0 -176 -35q-80 -35 -142 -97q-62 -60 -95 -140q-35 -79 -35 -168zM68 358 q0 81 30 153t83 125q52 52 126 86q74 31 156 31q74 0 147 -31q68 -31 123 -83l3 -3q51 -56 84 -129q31 -78 31 -157q0 -80 -31 -151q-32 -73 -85 -123q-52 -52 -127 -83q-74 -30 -156 -30t-150 31q-73 31 -122 83q-51 51 -82 125q-30 72 -30 156zM261 359q0 -59 19 -101 q17 -43 48 -74q22 -23 59 -37q39 -16 78 -19q41 -4 86 3q42 6 81 27v62q-32 -19 -62 -25q-31 -7 -60 -7q-32 0 -50 5q-22 3 -33 10q-28 14 -46 37q-17 19 -26 43q-11 23 -12 46q-3 21 -3 42q0 68 37 105q36 36 93 36q23 0 47 -6q24 -8 32 -19q10 -14 13 -27q3 -17 3 -34h80 q0 31 -8 57q-9 24 -24 42q-26 25 -63 37q-42 10 -78 10q-100 0 -155 -60q-56 -59 -56 -153z" />
<glyph d="M90 700h135v-332h59v332h135v60h-329v-60zM448 368h55v261l108 -261h44l102 266v-266h55v392h-70l-111 -301l-124 301h-59v-392z" />
<glyph unicode="&#x85;" horiz-adv-x="858" d="M93 308h100v100h-100v-100zM379 308h100v100h-100v-100zM665 308h100v100h-100v-100z" />
<glyph unicode="&#xa1;" d="M402 645h114v115h-114v-115zM412 -60h92l-9 573h-74z" />
<glyph unicode="&#xa2;" d="M234 306q0 -68 22 -116q20 -49 55 -84q5 -6 15 -13q7 -7 17 -12l-37 -97h59l29 74q31 -10 63 -14q27 -5 70 -5q41 0 68 5q28 4 62 14v56q-32 -10 -65 -13q-32 -3 -43 -3q-31 0 -70 6q-40 4 -58 15h-2l-1 1l136 353l9 -6q1 -1 2 -2.5t2.5 -2.5t2.5 -2q11 -14 16 -33 q3 -19 3 -37h84q0 34 -9 61q-11 26 -28 46q-10 10 -27 22q-18 11 -31 16l22 57h-59l-17 -44q-8 0 -24 2q-4 0 -12 0.5t-12 0.5q-115 0 -178 -68q-64 -68 -64 -177zM314 321q0 81 45 126t114 45q2 0 6.5 -0.5t7.5 -0.5q8 -2 14 -2l-129 -333q-38 36 -47 82q-11 41 -11 83z " />
<glyph unicode="&#xa3;" d="M175 48h397q48 0 73 5q28 5 42 13q15 8 31 26q14 16 23 36q5 17 9 38q4 28 4 50h-71q0 -17 -2 -37q-3 -18 -7 -26q-7 -13 -15 -19q-10 -8 -22 -13q-12 -6 -36 -6q-16 -1 -34 -1h-243q4 9 12 39q6 25 12 70q6 39 6 71q0 19 -4 69h254v60h-262q-8 36 -9 83q-3 46 12 82 q18 44 55 77q36 31 91 31q52 0 92 -38q37 -38 46 -93h72q-5 39 -21 75q-18 36 -45 63t-63 45q-40 16 -80 16q-70 0 -129 -37q-59 -38 -86 -110q-18 -46 -17 -94q0 -54 7 -100h-58v-60h65q6 -35 6 -67q0 -34 -6 -76q-7 -42 -15 -70q-9 -30 -12 -35h-72v-67z" />
<glyph unicode="&#xa4;" horiz-adv-x="759" d="M104 135l46 -46l82 83q25 -22 63 -35q36 -14 83 -14q42 0 81 15q37 13 65 36l85 -85l46 46l-86 85q21 28 36 64q13 39 13 80q0 40 -15 79q-14 35 -38 67l90 89l-46 46l-89 -90q-31 21 -63 34q-40 14 -79 14q-43 0 -80 -14q-36 -15 -61 -33l-87 89l-46 -46l85 -87 q-26 -32 -37 -67q-13 -38 -13 -81q0 -45 12 -81q12 -39 35 -65zM202 364q0 38 14 69q13 32 38 57t56 39t68 14q32 0 66 -14q32 -15 56 -39q27 -30 40 -58q14 -34 14 -68q0 -37 -14 -71q-15 -34 -39 -58q-24 -25 -56 -38q-31 -14 -67 -14q-40 0 -68 14q-32 13 -57 38 q-26 26 -37 58q-14 31 -14 71z" />
<glyph unicode="&#xa5;" d="M191 758l219 -354h-210v-69h228v-61h-228v-69h228v-157h80v157h217v69h-217v61h217v69h-200l222 354h-87l-192 -309l-187 309h-90z" />
<glyph unicode="&#xa7;" horiz-adv-x="386" d="M50 390q1 -26 14 -51q12 -24 32 -47q19 -25 38 -43q28 -32 43 -46q26 -29 39 -46q13 -20 23 -46q8 -25 2 -52q-6 -24 -20 -33q-17 -10 -30 -10q-15 -1 -23 4q-10 4 -9 10q1 7 0 22q-3 13 -10 24q-6 9 -20 20q-14 6 -32 3q-19 -5 -23 -21q-6 -20 -1 -36q6 -22 23 -39 q15 -20 46 -29q27 -9 55 -8q27 0 53 12q23 10 43 33q18 21 27 54q9 35 6 65q-5 31 -13 51q-8 18 -17 33q-9 11 -9 13q3 0 7 3q3 0 11 5q12 6 24 18q11 13 18 32q12 35 -4 76q-17 36 -39 68q-27 30 -51 53q-30 24 -52 49q-27 25 -41 51q-16 25 -16 59q0 33 16 48q15 13 32 16 q19 2 31 -4q11 -7 11 -13q-5 -16 1 -31q3 -17 15 -29q11 -12 28 -15t34 13q16 12 14 35q-3 21 -20 43q-19 21 -45 35q-31 14 -67 14q-54 -1 -90 -36q-37 -36 -34 -103q0 -31 8 -51q6 -21 17 -40q10 -20 15 -25q4 -9 7 -10q-4 -2 -5 -2t-4 -1.5l-5 -2.5q-16 -8 -24 -14 q-12 -11 -20 -26q-12 -27 -9 -52zM123 409q0 15 8 23q6 8 27 6q14 -3 40 -19q25 -20 51 -50q9 -11 19 -30q8 -18 9 -32q0 -15 -6 -24q-7 -9 -27 -9q-15 0 -38 16q-24 14 -54 52q-15 15 -21 34q-8 16 -8 33z" />
<glyph unicode="&#xa8;" horiz-adv-x="560" d="M72 705h114v109h-114v-109zM374 705h114v109h-114v-109z" />
<glyph unicode="&#xa9;" horiz-adv-x="0" />
<glyph unicode="&#xaa;" horiz-adv-x="686" d="M117 227h452v69h-452v-69zM169 446q0 -26 12 -46q11 -22 30 -35q18 -15 43 -21q20 -8 47 -8q32 0 56 7q28 7 43 17q15 8 36 25v-40h88v281q0 54 -46 97q-49 40 -124 40q-39 0 -72 -11q-32 -12 -55 -27q-23 -17 -35 -38t-12 -47h98q0 30 20 43q18 12 56 12q25 0 44 -8 q16 -10 24 -19q9 -14 11 -23q3 -14 3 -22v-25q-21 3 -67 0q-44 -4 -91 -20q-44 -18 -76 -48q-33 -33 -33 -84zM262 455q0 28 19 46q18 16 47 24q24 7 60 10q11 0 27 0.5t21 0.5v-38q0 -39 -30 -66q-31 -28 -76 -28q-28 0 -47 11q-21 11 -21 40z" />
<glyph unicode="&#xab;" d="M142 358l625 -425l24 28l-578 397l578 397l-24 28zM338 358l523 -359l23 30l-475 329l476 330l-24 28z" />
<glyph unicode="&#xac;" d="M25 349h799v-275h64v329h-863v-54z" />
<glyph unicode="&#xad;" horiz-adv-x="408" d="M41 316h326v84h-326v-84z" />
<glyph unicode="&#xae;" horiz-adv-x="920" d="M13 72q0 -15 1 -25q0 -15 5 -35q3 -15 13 -36q9 -19 25 -30q25 -20 53 -26q25 -8 50 -8h600q22 0 49 8q28 6 54 26q15 12 24 30q8 16 13 36q1 6 3 17.5t3 17.5q0 5 0.5 14t0.5 11v588q0 17 -6 47q-6 28 -26 54q-14 15 -31 24q-18 8 -37 13l-35 5q-7 0 -15.5 0.5 t-10.5 0.5h-572q-2 0 -11 -0.5t-14 -0.5q-12 -1 -36 -5q-20 -5 -36 -13q-20 -9 -32 -24q-22 -26 -26 -54q-6 -30 -6 -47v-588zM56 61v595q0 18 6 42q7 23 16 34q15 17 38 24q26 7 47 7h594q19 0 47 -7q22 -8 38 -24q7 -10 16 -34q6 -24 6 -42v-594q0 -21 -7 -47 q-9 -25 -25 -39q-10 -10 -31 -17q-21 -6 -41 -6h-600q-22 0 -41 6q-23 7 -32 17q-18 15 -24 39q-7 21 -7 46zM162 50h582l20 218h-49q-16 0 -23 -5q-8 -8 -10 -12q-1 -2 -2.5 -7t-2.5 -7q-5 -10 -14 -19q-8 -8 -21 -13q-15 -6 -21 -6l-322 1q12 0 58 26q49 26 156 58 q35 10 67 22q34 12 65 30q33 17 57 40q26 25 40 55q17 41 12 80q-6 40 -29 70q-22 28 -60 53q-41 23 -82 31q-5 1 -26 3.5t-35 4.5q-39 3 -84 3q-48 -3 -93 -13q-51 -13 -88 -37q-21 -15 -39 -33q-20 -19 -30 -42q-9 -25 -8 -49q0 -26 18 -52q10 -21 35 -30q24 -10 48 -7 q23 1 46 17q22 16 32 44q6 18 3 36q-2 12 -10 29l-8 16q-3 3 -11 3q2 2 8 7t25 11t46 12q32 4 68 1q31 -3 54 -17q21 -15 30 -38q9 -22 5 -48q-5 -26 -28 -55q-15 -18 -38 -32q-22 -14 -52 -28q-20 -10 -64 -30q-28 -14 -72 -38q-69 -42 -111 -87q-42 -46 -42 -92v-74z" />
<glyph unicode="&#xb0;" horiz-adv-x="258" d="M17 686q0 -46 33 -78q31 -32 79 -32q47 0 79 32q33 32 33 78q0 45 -33 78t-79 33q-47 0 -79 -33q-33 -33 -33 -78zM86 686q0 19 13 32q12 12 30 12q17 0 30 -12q13 -15 13 -32q0 -18 -13 -31q-13 -12 -30 -12q-18 0 -30 12q-13 12 -13 31z" />
<glyph unicode="&#xb1;" horiz-adv-x="662" d="M43 65h576v74h-576v-74zM43 393h245v-193h87v193h244v75h-244v189h-87v-189h-245v-75z" />
<glyph unicode="&#xb2;" horiz-adv-x="387" d="M70 645h79q-3 32 10 48q12 15 36 15q26 0 39 -19q11 -22 11 -34q0 -6 -2 -26q-3 -17 -6 -24q-14 -29 -28 -50q-7 -10 -21 -28t-16 -21q-35 -40 -38 -43q-5 -5 -15.5 -16.5t-14.5 -15.5q-6 -4 -7 -5q-6 -4 -8 -6q-1 -1 -3.5 -2.5t-3.5 -2.5q-3 -2 -9 -8v-60h256v67h-150 l23 23q18 16 41 43q20 23 38 50q15 22 29 54q6 16 9 35q2 24 2 32q0 54 -39 87q-40 33 -87 33q-35 0 -61 -13q-23 -13 -39 -32q-14 -19 -19 -39q-6 -21 -6 -42z" />
<glyph unicode="&#xb3;" horiz-adv-x="387" d="M60 451q5 -50 38 -80q31 -31 97 -31q64 0 99 38t35 91q0 44 -19 69q-23 24 -26 26q3 0 22 25q16 24 16 65q0 25 -11 49q-11 19 -30 35q-18 15 -41 24q-26 8 -46 8q-31 0 -56 -10q-23 -10 -39 -26q-17 -17 -22 -32q-8 -17 -8 -41h72q3 23 17 36q13 11 39 11q20 0 36 -14 q13 -14 13 -40q0 -14 -4 -26q-6 -12 -13 -20q-7 -7 -20 -8q-15 -3 -47 -3v-62q40 0 65 -12q24 -13 24 -53q0 -30 -14 -49q-15 -18 -44 -18q-30 0 -40 14q-12 12 -12 34h-81z" />
<glyph unicode="&#xb4;" d="M382 577h77l94 178h-103z" />
<glyph unicode="&#xb6;" d="M213 579q0 -82 54 -136q53 -54 140 -54v-474h51v799h89v-799h51v848h-191q-43 0 -77 -15q-33 -14 -62 -41q-25 -23 -40 -57q-15 -35 -15 -71z" />
<glyph unicode="&#xb7;" horiz-adv-x="286" d="M87 303h112v110h-112v-110z" />
<glyph unicode="&#xb8;" horiz-adv-x="310" d="M26 -107q27 -18 58 -27q26 -9 66 -9q52 0 89 25t37 66v105h-88v-110q-4 -24 -21 -30q-16 -8 -45 -8q-26 0 -39 5q-16 4 -34 17z" />
<glyph unicode="&#xb9;" horiz-adv-x="387" d="M100 639l68 43v-337h75v423h-58l-85 -52v-77z" />
<glyph unicode="&#xba;" horiz-adv-x="686" d="M117 227h452v69h-452v-69zM146 552q0 -100 55 -154q54 -55 144 -55q92 0 146 58q52 58 52 152q0 93 -53 154q-54 59 -147 59q-50 0 -87 -17q-38 -18 -62 -48q-25 -30 -36 -68q-12 -39 -12 -81zM240 552q0 34 5 56q4 25 17 47q13 21 32 32t48 11q56 0 82 -43 q24 -43 24 -102q0 -61 -24 -101q-23 -41 -79 -41q-57 0 -80 41q-25 40 -25 100z" />
<glyph unicode="&#xbb;" d="M37 688l476 -330l-475 -329l23 -30l523 359l-523 358zM131 -39l24 -28l625 425l-625 425l-24 -28l578 -397z" />
<glyph unicode="&#xbc;" d="M53 -2l56 -46l684 783l-57 43zM130 649l68 43v-337h75v423h-58l-85 -52v-77zM510 64h157v-106h73v106h63v67h-63v250h-70l-160 -264v-53zM596 131l71 121v-121h-71z" />
<glyph unicode="&#xbd;" d="M53 -2l56 -46l684 783l-57 43zM130 639l68 43v-337h75v423h-58l-85 -52v-77zM530 255h79q-3 32 10 48q12 15 36 15q26 0 39 -19q11 -22 11 -34q0 -6 -2 -26q-3 -17 -6 -24q-14 -29 -28 -50q-7 -10 -21 -28t-16 -21q-35 -40 -38 -43q-5 -6 -15.5 -17t-14.5 -15 q-6 -4 -7 -5q-6 -4 -8 -6q-1 -1 -3.5 -2.5t-3.5 -2.5q-3 -2 -9 -8v-60h256v67h-150l23 23q18 16 41 43q20 23 38 50q15 23 29 54q6 16 9 35q2 24 2 32q0 54 -39 87q-40 33 -87 33q-35 0 -61 -13q-23 -13 -39 -32q-14 -19 -19 -39q-6 -21 -6 -42z" />
<glyph unicode="&#xbe;" d="M53 -2l56 -46l684 783l-57 43zM60 461q5 -50 38 -80q31 -31 97 -31q64 0 99 38t35 91q0 44 -19 69q-23 24 -26 26q3 0 22 25q16 24 16 65q0 25 -11 49q-11 19 -30 35q-18 15 -41 24q-26 8 -46 8q-31 0 -56 -10q-23 -10 -39 -26q-17 -17 -22 -32q-8 -17 -8 -41h72 q3 23 17 36q13 11 39 11q20 0 36 -14q13 -14 13 -40q0 -14 -4 -26q-6 -12 -13 -20q-7 -7 -20 -8q-15 -3 -47 -3v-62q40 0 65 -12q24 -13 24 -53q0 -30 -14 -49q-15 -18 -44 -18q-30 0 -40 14q-12 12 -12 34h-81zM510 64h157v-106h73v106h63v67h-63v250h-70l-160 -264v-53z M596 131l71 121v-121h-71z" />
<glyph unicode="&#xbf;" d="M219 127q0 -52 19 -84q17 -33 50 -55q31 -22 71 -29q39 -9 80 -9q54 0 91 8q37 7 75 17v83q-37 -16 -83 -27q-43 -11 -79 -11q-29 0 -51 7q-26 6 -44 21q-19 12 -30 34q-12 19 -12 49q0 22 13 45q11 21 32 46q19 22 41 44l38 38q34 31 54 67q20 37 20 99v76h-80v-47 q0 -32 -4 -62q-4 -22 -12 -38q-7 -17 -19 -29q-8 -9 -29 -28q-14 -12 -36 -33q-28 -26 -47 -49q-23 -28 -40 -63q-18 -34 -18 -70zM407 645h115v115h-115v-115z" />
<glyph unicode="&#xc6;" horiz-adv-x="848" d="M1 28h89l91 215h220v-215h400v77h-309v257h289v76h-289v224h300v77h-490zM212 319l139 325h50v-325h-189z" />
<glyph unicode="&#xd0;" horiz-adv-x="708" d="M22 359h115v-331h167q71 0 133 14q46 9 88 39q39 29 71 71q30 42 50 100q18 56 18 134q0 132 -51 212q-50 77 -131 112q-70 29 -167 29h-178v-314h-115v-66zM226 105v254h219v66h-219v237h71q65 -2 111 -9q29 -8 59 -24q29 -19 53 -51q23 -34 38 -78q14 -44 17 -115 q0 -64 -16 -112q-16 -45 -39 -79q-24 -32 -51 -52q-30 -22 -55 -27q-52 -12 -108 -10h-80z" />
<glyph unicode="&#xd7;" horiz-adv-x="662" d="M58 141l61 -56l213 216l225 -223l55 58l-223 221l207 209l-56 54l-209 -207l-207 211l-58 -58l211 -211z" />
<glyph unicode="&#xd8;" horiz-adv-x="763" d="M54 384q0 -79 23 -144q22 -68 67 -119q2 -3 8 -9l-59 -77l57 -33l52 68q22 -16 47 -26q60 -27 127 -27q65 0 128 27q61 28 105 77q44 54 67 119q23 69 23 144q0 73 -23 144q-18 50 -50 98l60 79l-55 36l-50 -66q-36 30 -77 49q-63 27 -128 27q-67 0 -127 -27 q-61 -27 -105 -77t-67 -119q-23 -66 -23 -144zM148 384q0 61 16 116q15 55 47 96q29 38 75 61q44 21 90 21t91 -21q36 -18 63 -48l-326 -428q-26 35 -40 87q-16 54 -16 116zM250 133l319 418q9 -18 20 -51q17 -59 17 -116q0 -59 -17 -116q-18 -57 -48 -96t-74 -60 q-44 -22 -91 -22t-90 22q-20 9 -36 21z" />
<glyph unicode="&#xde;" horiz-adv-x="593" d="M78 28h90v130h131q45 0 88 10q44 9 81 35q34 23 59 63q23 40 23 96q0 52 -23 93q-23 38 -61 65q-42 26 -93 39q-54 12 -110 12h-95v168h-90v-711zM168 233v264h123q26 0 61 -7q30 -9 51 -25q21 -14 39 -40q16 -29 16 -61q-6 -74 -52 -102q-46 -29 -123 -29h-115z" />
<glyph unicode="&#xdf;" horiz-adv-x="606" d="M88 28h89v488q0 76 31 119q30 42 98 42q60 0 98 -27q37 -29 37 -83q0 -37 -14 -62q-15 -28 -38 -39q-23 -14 -54 -19q-31 -6 -69 -6h-18v-74h51q28 0 63 -7q29 -9 52 -25q22 -15 37 -40q14 -25 17 -61q-6 -73 -53 -102q-46 -29 -127 -29h-40v-75h57q49 0 92 10 q44 9 81 35q34 23 59 63q22 41 22 96q0 52 -18 86q-18 31 -45 53q-33 22 -47 28q-24 8 -26 10q14 3 61 44q46 41 46 119q-3 93 -67 137q-66 43 -157 43q-98 0 -158 -63t-60 -171v-490z" />
<glyph unicode="&#xe6;" horiz-adv-x="821" d="M49 151q0 -32 12 -56q11 -26 31 -42q20 -18 46 -27q24 -9 50 -9q93 0 142 29t71 72q29 -52 86 -76q53 -25 132 -25q41 0 68 5q31 4 68 15v67q-41 -12 -70 -15q-31 -3 -44 -3q-98 0 -143 42q-48 40 -55 133h327v61q0 40 -8 88q-9 47 -32 75q-22 28 -61 44q-42 13 -85 13 q-61 0 -104 -20q-44 -21 -66 -49q-18 27 -57 48q-42 21 -103 21q-45 0 -84 -13q-38 -14 -61 -34q-25 -21 -36 -45q-12 -27 -12 -57h98q0 39 25 60q25 20 70 20q34 0 56 -11q18 -11 30 -28q11 -19 14 -37q3 -21 3 -28v-46q-19 0 -91 -4q-53 -4 -101 -20q-49 -17 -83 -51 q-33 -36 -33 -97zM140 161q0 37 23 57q22 20 56 29q38 10 73 13q50 2 65 2v-46q0 -36 -9 -51q-19 -34 -56 -57q-16 -11 -34 -16q-18 -6 -32 -6q-34 0 -59 15q-27 15 -27 60zM443 329q6 65 41 104q35 40 96 40q29 0 51 -11q19 -11 30 -31q11 -19 14 -49q2 -44 2 -53h-234z " />
<glyph unicode="&#xf0;" horiz-adv-x="583" d="M41 265q0 -122 66 -185q65 -63 174 -63q110 0 176 67q66 66 66 181v1q0 129 -33 222q-33 92 -90 147l99 58l-33 54l-119 -69q-41 27 -98 45q-59 17 -126 23v-66q54 -10 87 -19q36 -11 64 -25l-117 -68l34 -55l135 80q20 -17 43 -48q21 -32 30 -55q-15 10 -51 20 q-37 8 -69 8q-54 0 -100 -20q-46 -21 -76 -55q-31 -33 -47 -80q-15 -47 -15 -98zM132 265q0 79 34 132q34 52 112 52q38 0 67 -15q27 -15 46 -40q18 -26 30 -58q10 -38 10 -70q0 -33 -10 -70q-13 -36 -29 -58q-19 -25 -45 -38q-25 -14 -65 -14q-76 0 -112 52q-38 50 -38 127 z" />
<glyph unicode="&#xf7;" horiz-adv-x="662" d="M35 317h592v80h-592v-80zM261 129q0 -31 20 -48q19 -19 50 -19q29 0 49 20t20 48q0 24 -19 46q-20 20 -51 20q-28 0 -48 -20q-21 -21 -21 -47zM263 584q0 -28 20 -45q20 -18 49 -18q26 0 47 18q20 18 20 45q0 28 -18 49t-49 21q-30 0 -49 -19q-20 -20 -20 -51z" />
<glyph unicode="&#xf8;" horiz-adv-x="602" d="M53 279q0 -57 17 -102q15 -48 50 -85q5 -6 11 -11l-48 -63l58 -35l45 60q6 -5 13 -6q43 -20 96 -20q50 0 96 20q44 17 79 55q33 36 51 85q17 49 17 102q0 52 -17 103q-14 35 -34 64l48 64l-54 36l-40 -52q-23 17 -50 29q-51 19 -96 19q-49 0 -96 -19q-47 -21 -79 -56 q-35 -36 -50 -85q-17 -47 -17 -103zM146 279q0 41 11 77q9 36 30 63q19 25 49 40q30 14 59 14q28 0 59 -14q26 -15 40 -29l-213 -282q-17 24 -24 55q-11 33 -11 76zM231 103l199 266q2 -8 4 -13q11 -41 11 -77q0 -38 -11 -76q-12 -37 -30 -63q-20 -26 -50 -40 q-28 -14 -59 -14q-32 0 -59 14q-4 0 -5 3z" />
<glyph unicode="&#xfe;" horiz-adv-x="592" d="M96 -138h85v202q11 -13 48 -29q35 -15 83 -15q102 0 167 65q65 63 65 193q0 46 -11 96q-11 44 -38 85q-26 35 -67 60q-43 23 -100 23q-35 0 -63 -11q-30 -12 -48 -27q-19 -16 -25 -25q-8 -10 -11 -14v274h-85v-877zM183 261q0 42 9 81q9 38 27 67q19 27 45 45 q26 16 55 16q38 0 63 -17q24 -18 39 -45q13 -28 21 -63q7 -42 7 -72q0 -82 -36 -133q-37 -52 -101 -52q-36 0 -59 16q-25 15 -40 40q-17 27 -23 57q-7 28 -7 60z" />
<glyph unicode="&#x152;" horiz-adv-x="925" d="M39 391q0 -82 20 -145q19 -68 60 -118q41 -52 100 -80q55 -29 135 -29q40 0 74 10q38 10 56 20v-19h404v77h-312v262h291v76h-291v228h303v77h-395v-19q-21 10 -56 21q-36 9 -74 9q-76 0 -135 -31q-60 -31 -100 -82q-41 -51 -60 -117q-20 -64 -20 -140zM135 392 q0 64 16 118q15 53 45 94q27 37 69 62q41 22 88 22q34 0 71 -16q32 -16 60 -41v-485q-28 -26 -59 -39q-35 -15 -71 -15q-50 0 -89 24q-42 24 -69 66q-30 42 -45 97q-16 52 -16 113z" />
<glyph unicode="&#x153;" horiz-adv-x="846" d="M35 280q0 -123 58 -190q56 -68 166 -68q55 0 106 26q49 23 74 61q76 -96 220 -87q40 0 69 5q35 5 67 16v66q-43 -12 -71 -15q-32 -3 -43 -3q-97 0 -148 42q-53 41 -60 133h337v63q-3 42 -15 81q-12 37 -35 68q-24 30 -58 48q-36 18 -84 18q-68 0 -114 -23t-70 -58 q-24 33 -74 57q-52 23 -103 23q-55 0 -96 -21q-40 -22 -70 -59q-28 -36 -42 -83q-14 -45 -14 -100zM129 280q0 43 8 75q7 34 23 62q16 25 41 42q23 15 55 15q34 0 61 -16q25 -17 41 -43q14 -26 22 -62q7 -42 7 -72q0 -33 -7 -72q-7 -36 -22 -62q-15 -25 -39 -41 q-24 -15 -59 -15q-34 0 -58 15q-25 14 -41 40q-17 27 -24 61q-8 29 -8 73zM473 334q3 64 42 103q38 38 99 38q28 0 48 -12q17 -12 30 -32q11 -22 17 -47q4 -27 6 -50h-242z" />
<glyph unicode="&#x2dc;" d="M177 306h61v49q0 35 23 52q22 16 45 16q37 0 67 -24q11 -9 31.5 -26.5t30.5 -25.5q29 -29 69 -52q36 -24 90 -24q36 0 62 15t40 34q14 18 22 41q6 20 6 32v61h-61v-44q0 -25 -17 -51t-49 -26q-39 0 -69 24q-33 23 -64 52q-35 30 -72 53q-39 24 -91 24q-28 0 -52 -11 q-25 -12 -39 -28q-16 -18 -24 -39q-9 -24 -9 -45v-57z" />
<glyph unicode="&#x2000;" horiz-adv-x="417" vert-adv-y="0" />
<glyph unicode="&#x2001;" horiz-adv-x="834" vert-adv-y="0" />
<glyph unicode="&#x2002;" horiz-adv-x="417" vert-adv-y="0" />
<glyph unicode="&#x2003;" horiz-adv-x="834" vert-adv-y="0" />
<glyph unicode="&#x2004;" horiz-adv-x="278" vert-adv-y="0" />
<glyph unicode="&#x2005;" horiz-adv-x="208" vert-adv-y="0" />
<glyph unicode="&#x2006;" horiz-adv-x="139" vert-adv-y="0" />
<glyph unicode="&#x2007;" horiz-adv-x="139" vert-adv-y="0" />
<glyph unicode="&#x2008;" horiz-adv-x="104" vert-adv-y="0" />
<glyph unicode="&#x2009;" horiz-adv-x="166" vert-adv-y="0" />
<glyph unicode="&#x200a;" horiz-adv-x="46" vert-adv-y="0" />
<glyph unicode="&#x2010;" horiz-adv-x="428" d="M45 347h335v82h-335v-82z" />
<glyph unicode="&#x2011;" horiz-adv-x="428" d="M45 347h335v82h-335v-82z" />
<glyph unicode="&#x2012;" horiz-adv-x="428" d="M45 347h335v82h-335v-82z" />
<glyph unicode="&#x2013;" horiz-adv-x="408" d="M47 321h314v74h-314v-74z" />
<glyph unicode="&#x2014;" d="M9 321h921v74h-921v-74z" />
<glyph unicode="&#x2018;" horiz-adv-x="240" d="M58 604h120v115h-52q-4 44 58 62l-43 51q-32 -19 -41 -26q-17 -14 -26 -29q-10 -16 -13 -42q-3 -27 -3 -44v-87z" />
<glyph unicode="&#x2019;" horiz-adv-x="240" d="M50 641l43 -50q24 12 41 26q16 13 27 29q10 16 14 42q4 32 4 44v89h-120v-115h52q3 -46 -61 -65z" />
<glyph unicode="&#x201c;" horiz-adv-x="412" d="M79 604h120v115h-52q-3 47 58 62l-43 51q-32 -19 -41 -26q-17 -14 -26 -29q-10 -16 -13 -42q-3 -27 -3 -44v-87zM219 604h120v115h-52q-4 44 58 62l-43 51q-32 -19 -41 -26q-17 -14 -26 -29q-10 -16 -13 -42q-3 -27 -3 -44v-87z" />
<glyph unicode="&#x201d;" horiz-adv-x="412" d="M69 641l43 -50q24 12 41 26q16 13 27 29q10 16 14 42q4 32 4 44v89h-120v-115h52q5 -46 -61 -65zM209 641l43 -50q24 12 41 26q16 13 27 29q10 16 14 42q4 32 4 44v89h-120v-115h52q3 -47 -61 -65z" />
<glyph unicode="&#x2022;" d="M343 358q0 -51 34 -84q33 -34 83 -34q48 0 83 34q34 34 34 84q0 46 -34 82q-37 34 -83 34q-49 0 -83 -34t-34 -82z" />
<glyph unicode="&#x2026;" horiz-adv-x="0" />
<glyph unicode="&#x202f;" horiz-adv-x="166" vert-adv-y="0" />
<glyph unicode="&#x2039;" d="M161 358l722 -442v39l-652 403l652 404v37z" />
<glyph unicode="&#x203a;" d="M37 -45v-39l722 442l-722 441v-37l652 -404z" />
<glyph unicode="&#x205f;" horiz-adv-x="208" vert-adv-y="0" />
<glyph unicode="&#x20ac;" horiz-adv-x="920" d="M13 72q0 -15 1 -25q0 -15 5 -35q3 -15 13 -36q9 -19 25 -30q25 -20 53 -26q25 -8 50 -8h600q22 0 49 8q28 6 54 26q15 12 24 30q8 16 13 36q1 6 3 17.5t3 17.5q0 5 0.5 14t0.5 11v588q0 17 -6 47q-6 28 -26 54q-14 15 -31 24q-18 8 -37 13l-35 5q-7 0 -15.5 0.5 t-10.5 0.5h-572q-2 0 -11 -0.5t-14 -0.5q-12 -1 -36 -5q-20 -5 -36 -13q-20 -9 -32 -24q-22 -26 -26 -54q-6 -30 -6 -47v-588zM56 61v595q0 18 6 42q7 23 16 34q15 17 38 24q26 7 47 7h594q19 0 47 -7q22 -8 38 -24q7 -10 16 -34q6 -24 6 -42v-594q0 -21 -7 -47 q-9 -25 -25 -39q-10 -10 -31 -17q-21 -6 -41 -6h-600q-22 0 -41 6q-23 7 -32 17q-18 15 -24 39q-7 21 -7 46zM265 532h114v-362q0 -21 -11 -30q-12 -11 -28 -12q-28 -3 -43 -9q-16 -7 -16 -27v-44h363v44q0 19 -16 27q-18 6 -43 9q-19 2 -28 12q-11 8 -11 31v454 q0 26 -10 36l-66 5l-205 -68v-66z" />
<glyph unicode="&#x2122;" d="M84 682h135v-332h71v332h135v70h-341v-70zM442 350h67v236l98 -236h52l92 239v-239h67v402h-81l-106 -290l-120 290h-69v-402z" />
</font>
</defs>
</svg>
